<svg width="85" height="112" viewBox="0 0 85 112" fill="none" xmlns="http://www.w3.org/2000/svg">
<path d="M60.5 106.673V60.1211H23.5V108.343C23.5 109.123 24.3529 109.603 25.0193 109.198L41.4807 99.1953C41.7998 99.0014 42.2002 99.0014 42.5193 99.1953L58.9807 109.198C59.6471 109.603 60.5 109.123 60.5 108.343V106.673Z" fill="white" stroke="#008ABD" stroke-width="5"/>
<path d="M34.3112 72.2707L34.1667 72.1415L33.3185 71.3834C31.7181 69.9528 29.6467 69.1619 27.5 69.1619H23.6915C21.8072 69.1619 19.9442 68.7645 18.224 67.9957L17.6571 67.7423C15.3908 66.7294 13.5121 65.0121 12.3003 62.8457L11.9243 62.1735C11.2089 60.8946 10.8333 59.4538 10.8333 57.9884C10.8333 56.5231 10.4577 55.0823 9.7424 53.8034L8.28163 51.1919C7.7617 50.2624 7.15543 49.3839 6.47086 48.568L5.07729 46.9071C3.41251 44.9229 2.5 42.3944 2.5 39.8043C2.5 36.6982 3.82382 33.7133 6.13964 31.6432C7.0403 30.8381 7.801 29.8891 8.39073 28.8348L9.49459 26.8614C10.3724 25.292 10.8333 23.5239 10.8333 21.7257V20.6981C10.8333 18.3572 11.831 16.1273 13.5763 14.5672C13.969 14.2162 14.3945 13.9037 14.8469 13.6341L15.7861 13.0744C17.9723 11.7716 20.5418 11.2647 23.059 11.6398C26.8538 12.2051 30.6697 10.7583 33.1357 7.81917L33.5985 7.26765C33.9768 6.81678 34.3869 6.39361 34.8257 6.00138L35.8327 5.10127C36.9307 4.11979 38.2318 3.39284 39.6432 2.9723L40.009 2.86331C41.6344 2.37902 43.3656 2.37902 44.991 2.86331C46.6276 3.35095 48.0851 4.30823 49.1827 5.61645L49.8496 6.41123C51.5686 8.46002 53.9142 9.88609 56.5242 10.4694L57.5275 10.6936C58.617 10.937 59.7299 11.0599 60.8463 11.0599H65.7534C68.9285 11.0599 71.895 12.6415 73.6645 15.2777C75.0547 17.3488 75.5772 19.8824 75.12 22.3344L75.0773 22.5636C74.5031 25.6434 75.3906 28.8152 77.4799 31.1497L79.6239 33.5453C80.4196 34.4343 81.0004 35.4941 81.3218 36.6431C82.0536 39.2595 81.3697 42.0682 79.5171 44.0554L77.8211 45.8747C75.534 48.3279 74.6045 51.7514 75.3368 55.0244C75.6638 56.4858 75.6638 58.0013 75.3368 59.4627L75.2861 59.6895C74.5752 62.8664 72.5176 65.577 69.6487 67.1156L68.7868 67.5779C66.8479 68.6178 64.682 69.1619 62.4819 69.1619H61.0624C57.6401 69.1619 54.2813 70.0868 51.3413 71.8388L50.8333 72.1415L46.3483 74.1461C44.91 74.7888 43.3524 75.1211 41.7771 75.1211C39.0227 75.1211 36.3648 74.1063 34.3112 72.2707Z" fill="white" stroke="#008ABD" stroke-width="5"/>
<path d="M26.5 43.1211L34.8032 52.3468C35.1833 52.7692 35.8386 52.7903 36.2452 52.3932L57 32.1211" stroke="#008ABD" stroke-width="4" stroke-linecap="round"/>
</svg>
