<svg width="80" height="100" viewBox="0 0 80 100" fill="none" xmlns="http://www.w3.org/2000/svg">
<path d="M79.9922 14.1875V56.7266C79.9922 80.2222 62.089 99.2637 40 99.2637C17.911 99.2637 0.0078125 80.2222 0.0078125 56.7266V14.1875L40 0.00878906L79.9922 14.1875ZM7.49707 20.1562L7.49219 20.1436V56.7266C7.49219 75.8203 22.0473 91.3027 40 91.3027C57.9527 91.3027 72.5078 75.8203 72.5078 56.7266V20.165H72.5225L72.5029 20.1572L40.0029 7.96973L40.0039 7.96777L39.9971 7.96973L7.49707 20.1562Z" fill="#008ABD" stroke="#008ABD" stroke-width="0.015625"/>
<path d="M36.981 57.1221L36.9751 57.127L26.0796 45.5381C25.7327 45.1675 25.3197 44.8735 24.8657 44.6729C24.4119 44.4723 23.9255 44.3692 23.4341 44.3691C22.9425 44.3691 22.4554 44.4722 22.0015 44.6729C21.5476 44.8735 21.1354 45.1675 20.7886 45.5381C20.4402 45.9069 20.1638 46.3453 19.9751 46.8281C19.7864 47.3111 19.689 47.8295 19.689 48.3525C19.689 48.8755 19.7865 49.3931 19.9751 49.876C20.1638 50.359 20.4401 50.7981 20.7886 51.167L34.2681 65.5039L34.4868 65.7363C34.8148 66.0858 35.2045 66.3636 35.6333 66.5527C36.0621 66.7418 36.5217 66.8389 36.9858 66.8389C37.4499 66.8389 37.9096 66.7418 38.3384 66.5527C38.7673 66.3635 39.1578 66.0859 39.4858 65.7363L62.7671 40.9736C63.0956 40.6248 63.3558 40.2101 63.5337 39.7539C63.7116 39.2976 63.8032 38.8085 63.8032 38.3145C63.8032 37.8204 63.7116 37.3313 63.5337 36.875C63.3558 36.4188 63.0956 36.0042 62.7671 35.6553L62.4751 35.3447C62.147 34.9952 61.7575 34.7175 61.3286 34.5283C60.8997 34.3391 60.4394 34.2422 59.9751 34.2422C59.511 34.2422 59.0513 34.3392 58.6226 34.5283C58.1937 34.7175 57.8041 34.9952 57.4761 35.3447L36.9868 57.127M36.981 57.1221L36.9868 57.127M36.981 57.1221L36.9868 57.127M36.981 57.1221L37.0737 57.0342L36.9868 57.127" fill="#008ABD" stroke="#008ABD" stroke-width="0.015625"/>
</svg>
