<svg width="36" height="49" viewBox="0 0 36 49" fill="none" xmlns="http://www.w3.org/2000/svg">
<path d="M25.6879 45.867V26.0391H10.2578V45.5382C10.2578 46.3222 11.119 46.8013 11.7851 46.3879L17.4455 42.8749C17.7685 42.6745 18.1772 42.6745 18.5002 42.8749L24.4399 46.5613C24.9842 46.8991 25.6879 46.5076 25.6879 45.867Z" fill="white" stroke="#008ABD" stroke-width="3"/>
<path d="M14.7804 31.228L14.7059 31.16L14.3424 30.8281C13.682 30.2252 12.82 29.8909 11.9257 29.8909H10.3545C9.55784 29.8909 8.77045 29.7197 8.04571 29.3888L7.85248 29.3006C6.887 28.8599 6.08989 28.1188 5.58008 27.188L5.43245 26.9184C5.13248 26.3707 4.97524 25.7562 4.97524 25.1317C4.97524 24.5072 4.818 23.8928 4.51803 23.3451L3.91213 22.2387C3.69462 21.8416 3.44048 21.4656 3.15304 21.1157L2.58286 20.4216C1.88272 19.5693 1.5 18.5005 1.5 17.3976V17.3461C1.5 16.0402 2.04949 14.7945 3.01396 13.9139C3.39215 13.5687 3.71067 13.1633 3.95665 12.7141L4.4157 11.8759C4.78281 11.2056 4.97524 10.4537 4.97524 9.68939V9.22477C4.97524 8.24161 5.3889 7.30382 6.11498 6.64094C6.2815 6.48892 6.46231 6.35335 6.65491 6.23612L7.04471 5.99888C7.95279 5.44618 9.02648 5.23091 10.0774 5.39082C11.6544 5.63078 13.2412 5.02253 14.2538 3.78996L14.4724 3.5238C14.6279 3.33458 14.7967 3.15673 14.9775 2.99161L15.4101 2.59673C15.8617 2.18444 16.3996 1.87811 16.9846 1.70008L17.1356 1.65412C17.8172 1.44669 18.5451 1.44669 19.2267 1.65412C19.9046 1.86042 20.5063 2.26264 20.9561 2.81016L21.2454 3.1624C21.9624 4.03515 22.9489 4.64508 24.0501 4.89641L24.4424 4.98594C24.9004 5.09049 25.3688 5.14326 25.8386 5.14326H27.8182C29.1781 5.14326 30.4467 5.82757 31.1936 6.964C31.7639 7.83184 31.9781 8.88602 31.7916 9.90761L31.7671 10.0418C31.527 11.3568 31.9006 12.7094 32.7815 13.7148L33.6563 14.7131C33.9926 15.0968 34.2373 15.5518 34.372 16.0438C34.6772 17.1585 34.3899 18.3519 33.6108 19.2055L32.9257 19.956C31.9608 21.0131 31.5692 22.473 31.8755 23.8711C32.0116 24.4926 32.0116 25.1363 31.8755 25.7578L31.8562 25.8456C31.5582 27.2062 30.6859 28.3713 29.4642 29.0405L29.163 29.2055C28.3421 29.6552 27.4212 29.8909 26.4853 29.8909H25.9217C24.4958 29.8909 23.0973 30.283 21.8792 31.0244L21.6564 31.16L19.7848 32.0143C19.1861 32.2877 18.5356 32.4291 17.8774 32.4291C16.7314 32.4291 15.6268 32.0007 14.7804 31.228Z" fill="white" stroke="#008ABD" stroke-width="3"/>
<path d="M11.5088 18.7986L14.5587 22.2597C14.9399 22.6923 15.607 22.7138 16.0152 22.3065L24.2282 14.1133" stroke="#008ABD" stroke-width="4" stroke-linecap="round"/>
</svg>
