<svg width="21" height="15" viewBox="0 0 21 15" fill="none" xmlns="http://www.w3.org/2000/svg">
<path d="M0 1.07143C0 0.787268 0.138281 0.514746 0.384423 0.313814C0.630564 0.112883 0.964403 0 1.3125 0H19.6875C20.0356 0 20.3694 0.112883 20.6156 0.313814C20.8617 0.514746 21 0.787268 21 1.07143C21 1.35559 20.8617 1.62811 20.6156 1.82904C20.3694 2.02997 20.0356 2.14286 19.6875 2.14286H1.3125C0.964403 2.14286 0.630564 2.02997 0.384423 1.82904C0.138281 1.62811 0 1.35559 0 1.07143ZM0 7.5C0 7.21584 0.138281 6.94332 0.384423 6.74239C0.630564 6.54145 0.964403 6.42857 1.3125 6.42857H19.6875C20.0356 6.42857 20.3694 6.54145 20.6156 6.74239C20.8617 6.94332 21 7.21584 21 7.5C21 7.78416 20.8617 8.05668 20.6156 8.25761C20.3694 8.45855 20.0356 8.57143 19.6875 8.57143H1.3125C0.964403 8.57143 0.630564 8.45855 0.384423 8.25761C0.138281 8.05668 0 7.78416 0 7.5ZM1.3125 12.8571C0.964403 12.8571 0.630564 12.97 0.384423 13.171C0.138281 13.3719 0 13.6444 0 13.9286C0 14.2127 0.138281 14.4853 0.384423 14.6862C0.630564 14.8871 0.964403 15 1.3125 15H19.6875C20.0356 15 20.3694 14.8871 20.6156 14.6862C20.8617 14.4853 21 14.2127 21 13.9286C21 13.6444 20.8617 13.3719 20.6156 13.171C20.3694 12.97 20.0356 12.8571 19.6875 12.8571H1.3125Z" fill="white"/>
</svg>
