<svg width="245" height="57" viewBox="0 0 245 57" fill="none" xmlns="http://www.w3.org/2000/svg">
<path fill-rule="evenodd" clip-rule="evenodd" d="M71.2792 0.736612C71.2792 1.10737 71.1044 1.41073 70.8911 1.41073C70.6778 1.41073 70.6049 1.20849 70.7295 0.961317C70.8541 0.714142 70.6892 0.511909 70.363 0.511909C69.6314 0.511909 69.8161 0.91278 71.9899 4.04111C72.9094 5.36417 73.616 6.64319 73.5607 6.88317C73.5053 7.12361 73.6069 7.20854 73.7868 7.07237C74.2292 6.73711 75.3837 8.35319 75.0366 8.82192C74.8849 9.0273 74.9486 9.06326 75.1784 8.90237C75.586 8.61655 77.6724 11.5184 77.7084 12.4212C77.7183 12.6684 77.9136 12.8248 78.1423 12.7686C78.371 12.7125 78.9999 13.3192 79.5401 14.1169C80.4714 15.4929 81.4522 16.8052 86.4208 23.3252C87.6823 24.9809 88.4439 26.3345 88.2881 26.6437C88.1305 26.9565 88.1844 27.045 88.4226 26.8643C88.6414 26.6985 88.9233 26.7668 89.049 27.0162C89.1747 27.2657 84.8338 33.3861 79.403 40.618L69.5288 53.7668L75.3705 53.8904L81.2121 54.014L83.1175 51.425C84.6814 49.3002 93.031 38.1939 94.6176 36.1284C94.8551 35.8188 95.2201 35.5658 95.429 35.5658C95.8541 35.5658 96.7715 37.3836 96.6366 37.9584C96.5886 38.1624 96.7073 38.2092 96.9005 38.0631C97.3649 37.7113 106.137 49.5028 105.844 50.0848C105.719 50.3324 105.785 50.4075 105.991 50.2515C106.467 49.8916 107.658 51.4659 107.289 51.9652C107.137 52.1705 107.201 52.2065 107.43 52.046C107.856 51.7476 108.576 52.5107 108.63 53.3174C108.648 53.5916 111.031 53.8208 114.738 53.9048C120.154 54.0275 120.782 53.9664 120.497 53.3426C120.321 52.9574 117.742 49.4062 114.765 45.4514C111.324 40.8791 109.449 38.0559 109.616 37.6996C109.761 37.3908 109.739 37.2947 109.569 37.4848C109.19 37.9077 106.414 34.6777 106.689 34.1335C106.796 33.92 106.735 33.8014 106.553 33.8692C106.059 34.0535 101.272 27.5101 101.528 27.0014C101.65 26.7601 101.944 26.6999 102.182 26.867C102.42 27.0342 102.496 27.0095 102.35 26.8122C102.048 26.4023 102.769 25.2887 107.009 19.6118C108.67 17.3872 110.479 14.9092 111.028 14.1052C111.578 13.3012 112.181 12.7601 112.37 12.903C112.558 13.0455 112.667 12.9691 112.611 12.7331C112.462 12.0995 119.75 2.31268 120.372 2.31089C120.708 2.30999 120.775 2.1527 120.554 1.88171C120.363 1.64667 117.75 1.4242 114.749 1.3869C110.521 1.33522 109.159 1.4624 108.702 1.95226C108.378 2.29965 106.65 4.54175 104.862 6.93485C103.075 9.3275 101.441 11.1557 101.232 10.9971C101.023 10.8389 100.961 10.9247 101.094 11.1885C101.317 11.6316 96.0191 19.1624 95.4836 19.1624C94.9163 19.1624 89.5929 11.6842 89.8281 11.2173C89.9802 10.9157 89.9205 10.8335 89.6808 11.015C89.447 11.1921 87.7662 9.24301 85.6841 6.38073L82.091 1.44083L76.8291 1.426C72.3058 1.41297 71.597 1.3159 71.7784 0.736612C71.8942 0.36585 71.8293 0.0625 71.6343 0.0625C71.439 0.0625 71.2792 0.36585 71.2792 0.736612ZM158.811 0.971658C154.512 1.86104 149.821 4.22492 147.06 6.89306C146.292 7.63549 145.504 8.07186 145.262 7.88895C145.017 7.70335 144.93 7.75682 145.059 8.01343C145.184 8.26105 144.784 9.05066 144.171 9.76837C142.474 11.7548 139.968 16.9967 139.035 20.5106C138.359 23.056 138.206 24.5998 138.233 28.5999C138.264 33.3488 138.487 34.6989 140.001 39.2783C140.183 39.828 140.11 40.0221 139.764 39.9138C139.49 39.828 139.384 39.841 139.531 39.9426C139.677 40.0441 139.877 40.0617 139.976 39.9812C140.293 39.7237 142.403 44.1459 142.177 44.5939C142.057 44.8317 142.178 44.9701 142.445 44.9022C142.712 44.8344 142.889 45.0312 142.838 45.3404C142.788 45.6492 142.88 45.8514 143.043 45.7898C143.436 45.6411 146.052 48.6705 145.86 49.0516C145.778 49.2143 145.91 49.3491 146.153 49.3514C146.396 49.3532 147.502 50.0646 148.611 50.932C152.633 54.0796 157.873 55.7932 164.187 56.0274C173.576 56.3747 180.784 53.4738 186.197 47.169C187.679 45.4424 189.319 43.1365 189.841 42.0449C190.362 40.9533 190.957 40.0599 191.162 40.0599C191.367 40.0599 191.436 39.8635 191.315 39.6235C191.194 39.3839 191.335 38.6177 191.629 37.9216C192.325 36.2714 193.326 30.2915 193.317 27.8324C193.314 26.7713 193.068 24.4937 192.77 22.7707C191.337 14.4741 187.193 8.21028 180.469 4.17504C175.536 1.21523 172.604 0.495735 165.76 0.564944C162.879 0.593706 159.752 0.777064 158.811 0.971658ZM240.411 1.29612L236.004 1.4368L236.047 20.5236C236.071 31.0214 235.965 39.6105 235.812 39.6105C235.554 39.6105 233.269 36.5994 219.828 18.5467C216.968 14.7069 214.726 11.3723 214.845 11.1373C214.963 10.9018 214.899 10.8321 214.701 10.9822C214.383 11.2227 208.266 3.60248 207.507 2.02192C207.283 1.55408 206.038 1.41073 202.193 1.41073H197.172L197.176 27.8135C197.177 42.3352 197.301 54.1659 197.451 54.1039C197.6 54.0419 199.701 53.9915 202.12 53.9915H206.518V35.4876V16.9832L207.423 18.0258C207.92 18.5993 208.225 19.2725 208.099 19.5219C207.973 19.7713 208.049 19.8401 208.267 19.6747C208.71 19.3394 212.624 24.5813 212.464 25.295C212.409 25.5431 212.509 25.6352 212.688 25.4999C212.967 25.2878 215.902 28.9401 220.882 35.697C221.626 36.7073 222.137 37.7288 222.016 37.9674C221.896 38.2061 221.972 38.2685 222.186 38.1067C222.644 37.7593 227.472 44.0636 227.184 44.6348C227.076 44.8497 227.206 44.9701 227.473 44.9022C227.74 44.8344 227.917 45.0312 227.866 45.3404C227.816 45.6492 227.919 45.8514 228.095 45.7898C228.555 45.6285 234.068 53.0545 233.833 53.5201C233.725 53.734 236.194 53.9358 239.319 53.9682L245 54.0275V27.4944C245 12.9012 244.959 1.00491 244.909 1.05839C244.858 1.11187 242.834 1.21883 240.411 1.29612ZM124.513 2.49425C124.513 3.1432 124.658 3.7836 124.834 3.91707C125.01 4.051 125.155 5.8792 125.155 7.98019C125.155 10.9166 125.049 11.722 124.697 11.4626C124.338 11.1984 124.333 11.2685 124.675 11.7871C124.915 12.1511 125.101 13.3254 125.089 14.3968C125.075 15.675 124.958 16.1338 124.75 15.7316C124.539 15.324 124.431 15.2975 124.427 15.6529C124.424 15.9473 124.587 16.3131 124.788 16.4659C125.339 16.8834 125.256 21.1834 124.697 21.1915C124.364 21.1964 124.354 21.289 124.659 21.5285C125.294 22.0269 125.343 32.6051 124.709 32.1651C124.332 31.9031 124.329 31.9584 124.697 32.4437C125.036 32.8922 125.155 35.7658 125.155 43.5203V53.9915H129.553H133.951V27.7011V1.41073H129.553C126.282 1.41073 125.153 1.55454 125.149 1.97249C125.145 2.38594 125.06 2.37336 124.829 1.9244C124.606 1.49477 124.513 1.6633 124.513 2.49425ZM168.209 10.3895C171.752 10.8465 175.875 12.4482 175.487 13.2171C175.347 13.4953 175.431 13.5479 175.696 13.347C176.165 12.992 179.095 15.1056 178.937 15.6848C178.888 15.8673 178.986 16.0475 179.156 16.0848C179.839 16.2367 181.602 18.7179 181.426 19.281C181.322 19.6131 181.404 19.7574 181.608 19.6023C181.812 19.4482 182.426 20.4994 182.972 21.9384C183.825 24.1827 183.965 25.1314 183.958 28.5999C183.952 31.8766 183.789 33.0644 183.103 34.8539C181.556 38.8847 176.475 44.0704 174.745 43.3837C174.275 43.1976 174.22 43.2421 174.554 43.5369C175.752 44.5939 168.264 46.1179 163.772 45.7305C155.72 45.0366 150.095 40.6693 147.85 33.3691C146.688 29.5909 146.954 24.127 148.465 20.7353C149.071 19.3758 149.775 18.3193 150.032 18.3871C150.288 18.455 150.386 18.2896 150.25 18.0195C150.004 17.5301 152.256 14.8871 154.116 13.4827C155.849 12.1741 159.402 10.7998 162.009 10.429C163.409 10.2304 164.636 10.0448 164.737 10.0164C164.838 9.98858 166.4 10.1562 168.209 10.3895ZM114.062 43.7109C114.311 44.0183 114.606 44.1562 114.719 44.0178C114.832 43.8794 114.628 43.6282 114.267 43.4592C113.745 43.2156 113.703 43.2668 114.062 43.7109Z" fill="#29292B"/>
<path d="M0.39081 18.965C0.0601515 18.5829 -0.167124 0.444461 0.156971 0.316871C0.527834 0.171193 4.56165 0.341746 5.76039 0.553965C7.78318 0.912186 9.94573 2.27465 15.6785 6.80199C22.2501 11.9918 29.4144 13.4418 36.6872 11.0541C39.4206 10.1568 42.5456 8.24457 46.447 5.08195C51.5371 0.955471 52.4702 0.536518 57.3185 0.202524L60.2586 0L60.2745 2.2178C60.3021 6.08588 60.3068 15.033 60.2822 16.7101L60.2584 18.3251L57.3183 18.3545C53.6381 18.3914 52.7292 18.6969 49.7024 20.9163C48.3631 21.8983 46.2214 23.316 44.9428 24.0667L42.618 25.4314H30.3106H18.0032L16.5841 24.6733C15.8035 24.2563 15.0153 24.0244 14.8326 24.1581C14.6258 24.3086 14.5706 24.2657 14.6865 24.0441C14.9179 23.6022 13.8682 22.8948 13.4427 23.2052C13.2575 23.3406 13.2077 23.2879 13.319 23.075C13.5113 22.7078 12.6047 21.9442 12.2956 22.2126C12.2007 22.2953 12.184 22.2665 12.2587 22.1486C12.4685 21.8179 10.7618 20.7051 10.4233 20.9522C10.2302 21.093 10.2034 21.0191 10.348 20.7429C10.5102 20.4328 10.4473 20.3714 10.1199 20.5197C9.84891 20.6424 9.69411 20.5749 9.73322 20.3507C9.76904 20.145 9.11511 19.6492 8.28013 19.249C6.33282 18.3151 0.436485 17.9785 0.587182 18.8097C0.647352 19.1414 0.58554 19.1905 0.39081 18.965Z" fill="#29292B"/>
<path d="M14.7954 32.0929C15.0555 32.0922 16.1298 31.7202 17.1827 31.2663L19.0972 30.4413L30.7209 30.5205L42.3445 30.5996L43.9467 31.4856C44.8276 31.9727 45.6891 32.2764 45.8612 32.1604C46.0329 32.0444 46.0841 32.0664 45.9749 32.2092C45.7482 32.5051 50.3408 36.1545 52.6007 37.4736C53.8954 38.2295 54.5434 38.3745 57.2502 38.5134L60.3954 38.6749L60.3497 47.3423C60.3248 52.1093 60.2466 56.0779 60.1763 56.1609C59.9906 56.3802 54.2417 56.4758 54.2417 56.2597C54.2417 56.0443 51.5165 55.1379 51.0387 55.1947C50.8566 55.2164 50.7335 55.1269 50.7653 54.9961C50.8615 54.5988 45.4394 50.4649 45.1115 50.6855C44.9436 50.7989 44.8993 50.7701 45.0133 50.6219C45.2742 50.2824 43.8403 49.1408 43.4817 49.4025C43.3362 49.5088 43.2911 49.4542 43.3816 49.2817C43.6488 48.771 40.0961 46.5209 39.3916 46.7544C38.9641 46.8959 38.8979 46.8649 39.1638 46.6475C39.4414 46.4204 39.1443 46.1669 38.0164 45.6685C32.5402 43.2488 26.1726 43.3625 20.8055 45.9766C18.4676 47.1149 13.4175 51.033 13.6688 51.5134C13.7711 51.7088 13.7197 51.7627 13.5493 51.6384C13.385 51.5182 12.1203 52.2964 10.7394 53.3671C7.76677 55.6725 6.30957 56.219 2.82412 56.335L0.225892 56.4219V47.5901V38.7583L2.82412 38.6523C6.54752 38.5005 7.79494 37.9594 11.8082 34.7558C13.26 33.5968 14.4196 32.5238 14.3851 32.3713C14.3507 32.2192 14.5353 32.0939 14.7954 32.0929Z" fill="#29292B"/>
</svg>
