<svg width="255" height="57" viewBox="0 0 255 57" fill="none" xmlns="http://www.w3.org/2000/svg">
<path d="M0 38.9856C2.22317 38.9989 4.44206 39.0344 6.66523 39.0166C8.52789 39.0033 10.4206 39.0921 12.2532 38.8436C15.7339 38.3644 18.279 36.5141 19.9141 33.599C20.1502 33.1775 20.382 33 20.9184 33C32.2961 33.0177 43.6781 33.0133 55.0557 33.0089C55.4763 33.0089 55.7682 33.0444 56.0085 33.4748C58.06 37.1265 61.309 38.9811 65.7038 39.0211C68.8798 39.0521 72.06 39.0388 75.2403 39.0166C75.8025 39.0166 76.0042 39.1231 75.9999 39.6955C75.9742 45.2418 75.9871 50.7837 75.9828 56.33C75.9828 56.5519 75.9184 56.7781 75.884 57H74.2832C74.0686 56.9645 73.8497 56.9157 73.6351 56.8979C68.6866 56.5208 64.0815 55.1231 59.9785 52.5053C58.0257 51.2585 56.2575 49.7454 54.4592 48.2945C44.6051 40.33 29.9571 40.685 20.5751 49.1242C15.6051 53.5923 9.71244 56.2013 2.84978 56.8536C2.47639 56.8891 2.10729 56.9512 1.7382 57H0C0 50.9922 0 44.9889 0 38.9856Z" fill="white"/>
<path d="M75.898 0C75.9324 0.204104 75.9968 0.403771 75.9968 0.607876C76.0011 6.21187 76.0011 11.8159 75.9968 17.4243C75.9968 17.5885 75.9753 17.7482 75.9581 17.9745C75.7006 17.9878 75.4645 18.0055 75.2327 18.0055C71.9875 18.0055 68.7422 17.9789 65.5013 18.0144C61.2215 18.0588 58.1051 19.9445 56.0661 23.4321C55.8343 23.827 55.6196 24 55.1174 24C43.6947 23.9867 32.2763 23.9867 20.8536 24C20.3728 24 20.1625 23.8314 19.9479 23.4587C17.9046 19.9401 14.771 18.0499 10.4654 18.0144C6.97553 17.9834 3.48991 18.0144 0 18.0144V0C0.536579 0 1.07316 0 1.60544 0C1.84583 0.0354964 2.08193 0.093178 2.32231 0.110926C8.63249 0.599002 14.2086 2.76428 19.0464 6.58902C20.2011 7.50305 21.2657 8.51913 22.4462 9.39323C32.2892 16.6966 46.4119 16.0311 55.4479 7.86689C59.8264 3.91348 65.0033 1.39767 71.0044 0.425957C72.142 0.244038 73.2881 0.141986 74.43 0C74.9193 0 75.4087 0 75.898 0Z" fill="white"/>
<path d="M212 44.991H219.112V17.0126C219.204 16.9493 219.291 16.886 219.383 16.8273C219.449 16.9764 219.479 17.1527 219.584 17.2702C227.592 26.3508 235.605 35.4268 243.626 44.4893C243.818 44.7062 244.164 44.9322 244.439 44.9367C247.857 44.9684 251.276 44.9548 254.694 44.9548C254.781 44.9548 254.869 44.9322 255 44.9096V12.0588C254.781 12.0497 254.567 12.0316 254.349 12.0316C252.447 12.0316 250.546 12.0542 248.644 12.0181C248.037 12.0045 247.888 12.1718 247.888 12.7322C247.905 21.7133 247.901 30.6944 247.901 39.6755C247.901 39.897 247.901 40.1185 247.901 40.5343C247.617 40.236 247.468 40.0914 247.333 39.9377C239.342 30.8165 231.352 21.6998 223.378 12.5695C223.024 12.1672 222.666 12.0181 222.115 12.0226C219.016 12.0452 215.912 12.0362 212.813 12.0316C212.542 12.0316 212.271 12.009 212 12V45V44.991Z" fill="white"/>
<path d="M182.665 44.9846C177.817 44.9574 173.038 44.4636 168.491 42.6966C165.164 41.4054 162.276 39.5342 160.325 36.5349C155.85 29.6618 158.03 20.5551 165.185 16.1739C168.703 14.0173 172.61 12.9481 176.691 12.4361C182.77 11.675 188.807 11.8426 194.743 13.4782C197.922 14.3526 200.856 15.7028 203.324 17.8911C206.647 20.8315 208.069 24.5557 207.997 28.8554C207.93 32.8741 206.613 36.408 203.54 39.2171C201.508 41.0746 199.09 42.2934 196.474 43.1678C192.897 44.3594 189.193 44.8487 185.433 44.9846C184.515 45.0163 183.592 44.9892 182.673 44.9892L182.665 44.9846ZM183.85 39.806C184.756 39.7471 186.424 39.6928 188.075 39.5206C191.106 39.1989 194.023 38.5103 196.673 36.9472C202.485 33.522 202.358 25.625 198.828 22.0593C196.855 20.0703 194.421 18.9331 191.733 18.249C187.194 17.0937 182.588 17.0167 177.961 17.5785C174.956 17.9409 172.077 18.7021 169.469 20.2742C163.174 24.0664 163.97 31.977 167.352 35.2844C168.859 36.7569 170.659 37.7265 172.653 38.3834C176.039 39.5025 179.549 39.7471 183.85 39.806Z" fill="white"/>
<path d="M143.939 44.9861C143.766 44.9861 143.598 44.9861 143.425 44.9861C141.006 44.9861 138.582 44.9997 136.164 44.968C135.804 44.9634 135.363 44.8095 135.103 44.5831C130.266 40.3087 125.45 36.0162 120.629 31.7237C119.859 31.04 119.751 31.04 118.981 31.7373C114.299 35.98 109.613 40.2227 104.939 44.4744C104.546 44.8321 104.147 45.0087 103.581 44.9997C101.071 44.968 98.5612 44.9861 96.0515 44.9861C95.8395 44.9861 95.6231 44.968 95.2207 44.9499C101.344 39.4394 107.341 34.042 113.386 28.604C107.259 23.0844 101.188 17.6192 95 12.0498C95.3332 12.0272 95.5193 12.0045 95.701 12.0045C98.3016 12.0045 100.898 11.9864 103.498 12.0226C103.858 12.0226 104.299 12.1811 104.554 12.412C109.253 16.6366 113.931 20.8838 118.617 25.131C118.747 25.2488 118.89 25.3529 119.011 25.4797C119.418 25.9144 119.773 25.851 120.201 25.4661C124.195 21.8936 128.206 18.3391 132.213 14.7756C133.13 13.9606 134.035 13.1365 134.965 12.3396C135.164 12.1721 135.463 12.0181 135.718 12.0181C138.34 11.9955 140.962 12.0091 143.585 12.0091C143.624 12.0091 143.662 12.0408 143.836 12.1087C137.834 17.5467 131.871 22.944 125.852 28.3957C131.927 33.9017 137.964 39.3714 144 44.8367C143.978 44.8865 143.957 44.9363 143.935 44.9861H143.939Z" fill="white"/>
<path d="M153.987 28.5587C153.987 33.7914 153.978 39.0196 154 44.2524C154 44.8408 153.838 45.0128 153.21 44.9993C151.358 44.9631 149.502 44.9676 147.646 44.9993C147.131 45.0083 147 44.8544 147 44.3836C147.013 33.7959 147.013 23.2037 147 12.616C147 12.1452 147.135 11.9913 147.646 12.0004C149.524 12.0275 151.402 12.0321 153.275 12.0004C153.843 11.9913 153.996 12.1543 153.996 12.6794C153.978 17.9755 153.983 23.2671 153.983 28.5632L153.987 28.5587Z" fill="white"/>
</svg>
