<svg width="245" height="52" viewBox="0 0 245 52" fill="none" xmlns="http://www.w3.org/2000/svg">
<path fill-rule="evenodd" clip-rule="evenodd" d="M71.2792 0.67419C71.2792 1.01384 71.1044 1.29174 70.8911 1.29174C70.6778 1.29174 70.6049 1.10648 70.7295 0.88004C70.8541 0.653605 70.6892 0.468341 70.363 0.468341C69.6314 0.468341 69.8161 0.835576 71.9899 3.70142C72.9094 4.91346 73.616 6.08516 73.5607 6.30501C73.5053 6.52527 73.6069 6.60308 73.7868 6.47833C74.2292 6.17121 75.3837 7.65168 75.0366 8.08108C74.8849 8.26923 74.9486 8.30217 75.1784 8.15479C75.586 7.89294 77.6724 10.5513 77.7084 11.3784C77.7183 11.6048 77.9136 11.7481 78.1423 11.6966C78.371 11.6452 78.9999 12.201 79.5401 12.9317C80.4714 14.1924 81.4522 15.3945 86.4208 21.3675C87.6823 22.8842 88.4439 24.1242 88.2881 24.4075C88.1305 24.694 88.1844 24.7751 88.4226 24.6096C88.6414 24.4577 88.9233 24.5203 89.049 24.7488C89.1747 24.9773 84.8338 30.5842 79.403 37.2093L69.5288 49.2548L75.3705 49.368L81.2121 49.4812L83.1175 47.1094C84.6814 45.1629 93.031 34.9886 94.6176 33.0964C94.8551 32.8127 95.2201 32.5809 95.429 32.5809C95.8541 32.5809 96.7715 34.2463 96.6366 34.7728C96.5886 34.9597 96.7073 35.0026 96.9005 34.8688C97.3649 34.5464 106.137 45.3486 105.844 45.8817C105.719 46.1086 105.785 46.1773 105.991 46.0345C106.467 45.7047 107.658 47.1469 107.289 47.6043C107.137 47.7924 107.201 47.8254 107.43 47.6784C107.856 47.405 108.576 48.1041 108.63 48.8431C108.648 49.0942 111.031 49.3042 114.738 49.3812C120.154 49.4936 120.782 49.4376 120.497 48.8662C120.321 48.5133 117.742 45.2601 114.765 41.6371C111.324 37.4485 109.449 34.8622 109.616 34.5357C109.761 34.2528 109.739 34.1648 109.569 34.3389C109.19 34.7263 106.414 31.7674 106.689 31.2689C106.796 31.0733 106.735 30.9646 106.553 31.0268C106.059 31.1956 101.272 25.2012 101.528 24.7352C101.65 24.5141 101.944 24.4589 102.182 24.6121C102.42 24.7652 102.496 24.7426 102.35 24.5618C102.048 24.1864 102.769 23.1662 107.009 17.9656C108.67 15.9277 110.479 13.6576 111.028 12.921C111.578 12.1845 112.181 11.6888 112.37 11.8197C112.558 11.9502 112.667 11.8803 112.611 11.6641C112.462 11.0836 119.75 2.11802 120.372 2.11637C120.708 2.11555 120.775 1.97146 120.554 1.7232C120.363 1.50788 117.75 1.30409 114.749 1.26992C110.521 1.22257 109.159 1.33908 108.702 1.78783C108.378 2.10608 106.65 4.16005 104.862 6.35235C103.075 8.54424 101.441 10.219 101.232 10.0737C101.023 9.92879 100.961 10.0074 101.094 10.2491C101.317 10.655 96.0191 17.5539 95.4836 17.5539C94.9163 17.5539 89.5929 10.7032 89.8281 10.2755C89.9802 9.9992 89.9205 9.92385 89.6808 10.0902C89.447 10.2524 87.7662 8.46684 85.6841 5.84473L82.091 1.31932L76.8291 1.30574C72.3058 1.2938 71.597 1.20487 71.7784 0.67419C71.8942 0.334538 71.8293 0.0566406 71.6343 0.0566406C71.439 0.0566406 71.2792 0.334538 71.2792 0.67419ZM158.811 0.889514C154.512 1.70427 149.821 3.86981 147.06 6.31407C146.292 6.9942 145.504 7.39396 145.262 7.2264C145.017 7.05637 144.93 7.10535 145.059 7.34043C145.184 7.56728 144.784 8.29064 144.171 8.94812C142.474 10.7678 139.968 15.5699 139.035 18.789C138.359 21.1209 138.206 22.535 138.233 26.1996C138.264 30.55 138.487 31.7868 140.001 35.982C140.183 36.4855 140.11 36.6634 139.764 36.5641C139.49 36.4855 139.384 36.4974 139.531 36.5905C139.677 36.6835 139.877 36.6996 139.976 36.6259C140.293 36.39 142.403 40.4411 142.177 40.8516C142.057 41.0694 142.178 41.1962 142.445 41.134C142.712 41.0719 142.889 41.2522 142.838 41.5354C142.788 41.8183 142.88 42.0035 143.043 41.9471C143.436 41.8108 146.052 44.5861 145.86 44.9352C145.778 45.0843 145.91 45.2078 146.153 45.2098C146.396 45.2115 147.502 45.8632 148.611 46.6578C152.633 49.5413 157.873 51.1112 164.187 51.3257C173.576 51.6439 180.784 48.9864 186.197 43.2106C187.679 41.6289 189.319 39.5164 189.841 38.5164C190.362 37.5164 190.957 36.6979 191.162 36.6979C191.367 36.6979 191.436 36.518 191.315 36.2982C191.194 36.0787 191.335 35.3768 191.629 34.7391C192.325 33.2273 193.326 27.7492 193.317 25.4964C193.314 24.5244 193.068 22.4379 192.77 20.8594C191.337 13.259 187.193 7.52076 180.469 3.82411C175.536 1.11265 172.604 0.453524 165.76 0.516926C162.879 0.543274 159.752 0.711248 158.811 0.889514ZM240.411 1.18676L236.004 1.31563L236.047 18.8009C236.071 28.4178 235.965 36.2862 235.812 36.2862C235.554 36.2862 233.269 33.5279 219.828 16.9899C216.968 13.4723 214.726 10.4175 214.845 10.2022C214.963 9.98644 214.899 9.92262 214.701 10.0601C214.383 10.2804 208.266 3.2996 207.507 1.85165C207.283 1.42307 206.038 1.29174 202.193 1.29174H197.172L197.176 25.4791C197.177 38.7824 197.301 49.6204 197.451 49.5636C197.6 49.5068 199.701 49.4606 202.12 49.4606H206.518V32.5093V15.5576L207.423 16.5127C207.92 17.038 208.225 17.6548 208.099 17.8832C207.973 18.1117 208.049 18.1747 208.267 18.0232C208.71 17.7161 212.624 22.5182 212.464 23.1719C212.409 23.3992 212.509 23.4836 212.688 23.3597C212.967 23.1654 215.902 26.5112 220.882 32.7012C221.626 33.6267 222.137 34.5625 222.016 34.7811C221.896 34.9997 221.972 35.0569 222.186 34.9087C222.644 34.5904 227.472 40.3658 227.184 40.889C227.076 41.0858 227.206 41.1962 227.473 41.134C227.74 41.0719 227.917 41.2522 227.866 41.5354C227.816 41.8183 227.919 42.0035 228.095 41.9471C228.555 41.7993 234.068 48.6022 233.833 49.0288C233.725 49.2247 236.194 49.4096 239.319 49.4392L245 49.4936V25.1868C245 11.8181 244.959 0.919977 244.909 0.968969C244.858 1.01796 242.834 1.11594 240.411 1.18676ZM124.513 2.28435C124.513 2.87885 124.658 3.46551 124.834 3.58779C125.01 3.71048 125.155 5.38528 125.155 7.30998C125.155 10 125.049 10.7378 124.697 10.5002C124.338 10.2582 124.333 10.3224 124.675 10.7975C124.915 11.131 125.101 12.2067 125.089 13.1882C125.075 14.3591 124.958 14.7794 124.75 14.411C124.539 14.0376 124.431 14.0133 124.427 14.3389C124.424 14.6086 124.587 14.9437 124.788 15.0837C125.339 15.4662 125.256 19.4053 124.697 19.4127C124.364 19.4173 124.354 19.5021 124.659 19.7215C125.294 20.1781 125.343 29.8687 124.709 29.4656C124.332 29.2256 124.329 29.2762 124.697 29.7209C125.036 30.1317 125.155 32.7642 125.155 39.868V49.4606H129.553H133.951V25.3762V1.29174H129.553C126.282 1.29174 125.153 1.42348 125.149 1.80637C125.145 2.18513 125.06 2.1736 124.829 1.76232C124.606 1.36873 124.513 1.52312 124.513 2.28435ZM168.209 9.5171C171.752 9.9358 175.875 11.4031 175.487 12.1075C175.347 12.3624 175.431 12.4105 175.696 12.2265C176.165 11.9012 179.095 13.8375 178.937 14.3682C178.888 14.5353 178.986 14.7004 179.156 14.7346C179.839 14.8737 181.602 17.1467 181.426 17.6626C181.322 17.9668 181.404 18.099 181.608 17.9569C181.812 17.8157 182.426 18.7787 182.972 20.097C183.825 22.153 183.965 23.0221 183.958 26.1996C183.952 29.2013 183.789 30.2894 183.103 31.9288C181.556 35.6214 176.475 40.3719 174.745 39.7429C174.275 39.5724 174.22 39.6132 174.554 39.8833C175.752 40.8516 168.264 42.2476 163.772 41.8928C155.72 41.2571 150.095 37.2562 147.85 30.5686C146.688 27.1074 146.954 22.1019 148.465 18.9948C149.071 17.7494 149.775 16.7815 150.032 16.8437C150.288 16.9059 150.386 16.7544 150.25 16.5069C150.004 16.0586 152.256 13.6374 154.116 12.3508C155.849 11.152 159.402 9.89297 162.009 9.55332C163.409 9.37135 164.636 9.20132 164.737 9.17538C164.838 9.14985 166.4 9.30342 168.209 9.5171ZM114.062 40.0426C114.311 40.3242 114.606 40.4506 114.719 40.3238C114.832 40.197 114.628 39.9668 114.267 39.812C113.745 39.5889 113.703 39.6358 114.062 40.0426Z" fill="white"/>
<path d="M0.39081 17.3737C0.0601515 17.0237 -0.167124 0.407168 0.156971 0.290283C0.527834 0.156828 4.56165 0.313071 5.76039 0.507484C7.78318 0.835647 9.94573 2.08379 15.6785 6.23126C22.2501 10.9856 29.4144 12.314 36.6872 10.1266C39.4206 9.30457 42.5456 7.55279 46.447 4.65554C51.5371 0.8753 52.4702 0.491501 57.3185 0.18553L60.2586 0L60.2745 2.03171C60.3021 5.57523 60.3068 13.7716 60.2822 15.308L60.2584 16.7875L57.3183 16.8145C53.6381 16.8482 52.7292 17.1281 49.7024 19.1613C48.3631 20.0609 46.2214 21.3596 44.9428 22.0473L42.618 23.2975H30.3106H18.0032L16.5841 22.603C15.8035 22.221 15.0153 22.0086 14.8326 22.1311C14.6258 22.269 14.5706 22.2296 14.6865 22.0266C14.9179 21.6218 13.8682 20.9738 13.4427 21.2581C13.2575 21.3821 13.2077 21.3339 13.319 21.1389C13.5113 20.8024 12.6047 20.1029 12.2956 20.3488C12.2007 20.4246 12.184 20.3982 12.2587 20.2902C12.4685 19.9872 10.7618 18.9678 10.4233 19.1942C10.2302 19.3232 10.2034 19.2554 10.348 19.0024C10.5102 18.7183 10.4473 18.6621 10.1199 18.7979C9.84891 18.9104 9.69411 18.8485 9.73322 18.6432C9.76904 18.4547 9.11511 18.0005 8.28013 17.6338C6.33282 16.7784 0.436485 16.47 0.587182 17.2314C0.647352 17.5353 0.58554 17.5803 0.39081 17.3737Z" fill="white"/>
<path d="M14.7954 29.4001C15.0555 29.3995 16.1298 29.0586 17.1827 28.6429L19.0972 27.8871L30.7209 27.9596L42.3445 28.0321L43.9467 28.8438C44.8276 29.29 45.6891 29.5681 45.8612 29.4619C46.0329 29.3557 46.0841 29.3758 45.9749 29.5066C45.7482 29.7776 50.3408 33.1208 52.6007 34.3293C53.8954 35.0218 54.5434 35.1546 57.2502 35.2819L60.3954 35.4298L60.3497 43.37C60.3248 47.737 60.2466 51.3725 60.1763 51.4486C59.9906 51.6495 54.2417 51.7371 54.2417 51.5391C54.2417 51.3418 51.5165 50.5114 51.0387 50.5635C50.8566 50.5833 50.7335 50.5014 50.7653 50.3815C50.8615 50.0176 45.4394 46.2305 45.1115 46.4326C44.9436 46.5365 44.8993 46.5102 45.0133 46.3743C45.2742 46.0633 43.8403 45.0176 43.4817 45.2573C43.3362 45.3546 43.2911 45.3046 43.3816 45.1466C43.6488 44.6788 40.0961 42.6175 39.3916 42.8314C38.9641 42.961 38.8979 42.9326 39.1638 42.7335C39.4414 42.5254 39.1443 42.2931 38.0164 41.8366C32.5402 39.6199 26.1726 39.7241 20.8055 42.1189C18.4676 43.1616 13.4175 46.751 13.6688 47.191C13.7711 47.3701 13.7197 47.4195 13.5493 47.3056C13.385 47.1955 12.1203 47.9083 10.7394 48.8893C7.76677 51.0012 6.30957 51.5018 2.82412 51.6081L0.225892 51.6877V43.5969V35.5062L2.82412 35.4091C6.54752 35.27 7.79494 34.7744 11.8082 31.8396C13.26 30.7778 14.4196 29.7948 14.3851 29.6551C14.3507 29.5158 14.5353 29.401 14.7954 29.4001Z" fill="white"/>
</svg>
