<svg width="75" height="80" viewBox="0 0 75 80" fill="none" xmlns="http://www.w3.org/2000/svg">
<path d="M65 38.7891C66.5625 39.8568 67.9557 41.0677 69.1797 42.4219C70.4036 43.776 71.4583 45.2604 72.3438 46.875C73.2292 48.4896 73.8802 50.1953 74.2969 51.9922C74.7135 53.7891 74.9479 55.625 75 57.5C75 60.599 74.4141 63.5156 73.2422 66.25C72.0703 68.9844 70.4557 71.3672 68.3984 73.3984C66.3411 75.4297 63.9583 77.0312 61.25 78.2031C58.5417 79.375 55.625 79.974 52.5 80C50.1302 80 47.8385 79.6484 45.625 78.9453C43.4115 78.2422 41.3802 77.2266 39.5312 75.8984C37.6823 74.5703 36.0417 72.9818 34.6094 71.1328C33.1771 69.2839 32.0703 67.2396 31.2891 65H0V5H10V0H15V5H50V0H55V5H65V38.7891ZM5 10V20H60V10H55V15H50V10H15V15H10V10H5ZM30.1172 60C30.0391 59.1927 30 58.3594 30 57.5C30 55.2604 30.3125 53.0859 30.9375 50.9766C31.5625 48.8672 32.513 46.875 33.7891 45H30V40H35V43.3594C36.0677 42.0312 37.2526 40.8594 38.5547 39.8438C39.8568 38.8281 41.263 37.9557 42.7734 37.2266C44.2839 36.4974 45.8594 35.9505 47.5 35.5859C49.1406 35.2214 50.8073 35.026 52.5 35C55.1042 35 57.6042 35.4297 60 36.2891V25H5V60H30.1172ZM52.5 75C54.9219 75 57.1875 74.5443 59.2969 73.6328C61.4062 72.7214 63.2552 71.4714 64.8438 69.8828C66.4323 68.2943 67.6823 66.4453 68.5938 64.3359C69.5052 62.2266 69.974 59.9479 70 57.5C70 55.0781 69.5443 52.8125 68.6328 50.7031C67.7214 48.5938 66.4714 46.7448 64.8828 45.1562C63.2943 43.5677 61.4453 42.3177 59.3359 41.4062C57.2266 40.4948 54.9479 40.026 52.5 40C50.0781 40 47.8125 40.4557 45.7031 41.3672C43.5938 42.2786 41.7448 43.5286 40.1562 45.1172C38.5677 46.7057 37.3177 48.5547 36.4062 50.6641C35.4948 52.7734 35.026 55.0521 35 57.5C35 59.9219 35.4557 62.1875 36.3672 64.2969C37.2786 66.4062 38.5286 68.2552 40.1172 69.8438C41.7057 71.4323 43.5547 72.6823 45.6641 73.5938C47.7734 74.5052 50.0521 74.974 52.5 75ZM55 55H62.5V60H50V45H55V55ZM10 40H15V45H10V40ZM20 40H25V45H20V40ZM20 30H25V35H20V30ZM10 50H15V55H10V50ZM20 50H25V55H20V50ZM35 35H30V30H35V35ZM45 35H40V30H45V35ZM55 35H50V30H55V35Z" fill="#008ABD"/>
</svg>
