<svg width="50" height="63" viewBox="0 0 50 63" fill="none" xmlns="http://www.w3.org/2000/svg">
<path fill-rule="evenodd" clip-rule="evenodd" d="M21.8892 0.0159037C21.8676 0.0365443 21.6018 0.0770255 21.2987 0.105746C20.3131 0.199189 18.5069 0.711604 17.6888 1.12994C17.5222 1.21506 17.3343 1.26466 17.2713 1.2401C17.2083 1.21554 17.1741 1.22394 17.1953 1.25882C17.2165 1.2937 17.0146 1.44418 16.7467 1.59339C16.4787 1.74251 16.1037 1.96444 15.9133 2.0866C15.7229 2.20869 15.5314 2.28621 15.4877 2.25877C15.4441 2.23133 15.4305 2.24525 15.4575 2.28965C15.508 2.37269 14.6636 3.00959 14.5508 2.97367C14.5161 2.96271 14.4963 2.98071 14.5065 3.01367C14.5315 3.09407 12.9869 4.60475 12.9319 4.55371C12.9081 4.53171 12.8799 4.57467 12.8691 4.64924C12.8365 4.87516 12.2603 5.52566 12.1921 5.41358C12.1539 5.35062 12.1362 5.37238 12.1427 5.47478C12.1482 5.56222 11.9523 5.94447 11.7073 6.32432C11.2048 7.10315 10.6422 8.24974 10.3678 9.05384C10.2664 9.35089 10.1542 9.5669 10.1183 9.53385C10.0826 9.50089 10.0761 9.51441 10.1039 9.56402C10.1317 9.61354 10.1042 9.82954 10.0428 10.044C9.88472 10.5961 9.70244 11.5509 9.64772 12.1139C9.43639 14.288 9.12805 15.8389 8.70121 16.8756C8.27334 17.9149 7.44077 19.3083 7.30038 19.2201C7.25195 19.1897 7.24376 19.2092 7.27998 19.2687C7.31691 19.3295 7.24998 19.4661 7.10739 19.621C6.97928 19.7602 6.77645 20.0088 6.65677 20.1734C6.53701 20.3379 6.40662 20.4522 6.36709 20.4274C6.32756 20.4026 6.30489 20.4169 6.31678 20.4593C6.3504 20.579 5.19137 21.7603 5.09791 21.7016C5.05019 21.6716 5.03815 21.6876 5.06948 21.7392C5.12673 21.8333 4.5121 22.4495 4.39619 22.4142C4.36013 22.4033 4.3395 22.4229 4.35029 22.458C4.38706 22.5772 3.94085 23.0462 3.84676 22.9871C3.79259 22.953 3.77621 22.9642 3.80668 23.0143C3.8351 23.061 3.63038 23.3717 3.35181 23.7047C1.63146 25.7616 0.688802 27.804 0.393534 30.1144C0.285977 30.9555 0.278261 32.7496 0.379834 33.2897C0.428022 33.5465 0.422746 33.6977 0.362983 33.7685C0.314874 33.8253 0.30889 33.8446 0.349519 33.8114C0.392667 33.7761 0.49613 34.0508 0.597702 34.4705C0.881711 35.6435 1.4176 36.9496 1.92287 37.7002C2.03601 37.8682 2.10759 38.0401 2.082 38.0822C2.05641 38.1242 2.06845 38.1488 2.10877 38.1367C2.14908 38.1246 2.33427 38.3127 2.52041 38.5547C2.70655 38.7967 3.1489 39.2827 3.50338 39.6347L4.14801 40.2747L4.12699 42.0348C4.09242 44.933 4.40493 47.3454 5.16759 50.0675C5.20877 50.2145 5.19712 50.2447 5.11822 50.1952C5.04925 50.1519 5.0339 50.1614 5.07193 50.224C5.10326 50.2755 5.15783 50.2994 5.19318 50.2773C5.22861 50.255 5.27885 50.3174 5.30483 50.4159C5.37452 50.6803 5.36507 50.7301 5.25578 50.6738C5.20169 50.646 5.21176 50.6709 5.2783 50.7291C5.34475 50.7874 5.51703 51.141 5.66104 51.5151C5.80506 51.8891 6.02482 52.4242 6.14946 52.7042C6.2741 52.9842 6.353 53.2542 6.32489 53.3042C6.29678 53.3542 6.30237 53.3689 6.33717 53.3369C6.41709 53.2634 7.0281 54.4569 6.96432 54.5618C6.93842 54.6043 6.96416 54.6292 7.02156 54.6171C7.08069 54.6047 7.12069 54.658 7.114 54.7405C7.10747 54.8204 7.12306 54.8647 7.14849 54.8388C7.22195 54.7641 7.6484 55.5128 7.58848 55.6112C7.55572 55.665 7.57053 55.6773 7.62604 55.6424C7.67848 55.6095 7.74005 55.6448 7.77044 55.7253C7.80092 55.806 7.78398 55.8789 7.73052 55.897C7.67942 55.9144 7.63761 55.9687 7.63761 56.0178C7.63761 56.0799 7.66643 56.0779 7.7321 56.0112C7.78407 55.9584 7.85083 55.9152 7.88052 55.9152C7.95697 55.9152 8.215 56.3299 8.215 56.4527C8.215 56.5091 8.22996 56.54 8.24831 56.5214C8.3113 56.4574 9.2208 57.5967 9.17143 57.6779C9.14419 57.7226 9.15411 57.7493 9.1934 57.7372C9.31316 57.7003 9.93157 58.3132 9.87252 58.4102C9.83756 58.4677 9.85378 58.4775 9.91763 58.4373C9.97252 58.4029 10.04 58.4079 10.0676 58.4484C10.0953 58.4889 10.3305 58.6969 10.5903 58.9104C10.8501 59.1239 11.0509 59.3384 11.0365 59.387C11.022 59.4355 11.0356 59.4495 11.0665 59.4181C11.1516 59.3317 11.4294 59.5102 11.3677 59.6117C11.3356 59.6644 11.35 59.6774 11.4032 59.644C11.4522 59.6132 11.5906 59.6582 11.7107 59.7441C11.8307 59.8299 12.2039 60.0591 12.5401 60.2534C12.8763 60.4476 13.1331 60.6251 13.1109 60.6476C13.0887 60.6702 13.1225 60.6887 13.1861 60.6887C13.3935 60.6887 13.9337 60.9756 13.883 61.0588C13.8558 61.1035 13.8717 61.1161 13.9182 61.0869C13.9648 61.0577 14.3097 61.1595 14.6848 61.3132C16.4428 62.0333 18.9067 62.6034 21.0904 62.7953C21.5948 62.8396 22.1668 62.8935 22.3617 62.9152C22.7994 62.9639 26.4787 62.9631 27.1253 62.9143C27.9903 62.849 28.5253 62.7907 29.1272 62.6962C29.4553 62.6448 29.8532 62.601 30.0115 62.599C30.1697 62.597 30.2866 62.5746 30.2712 62.5493C30.2557 62.5239 30.4806 62.4564 30.7708 62.3992C31.9945 62.158 34.4384 61.1835 35.1985 60.6335C35.3265 60.5409 35.4723 60.4911 35.5226 60.5226C35.5747 60.5553 35.5929 60.5453 35.565 60.4994C35.4991 60.3911 36.1947 59.8902 36.3103 59.9628C36.3633 59.9961 36.3802 59.9851 36.3507 59.9367C36.3228 59.8909 36.5656 59.6118 36.8902 59.3167C37.2148 59.0215 37.7699 58.4145 38.1238 57.9676C38.5233 57.4631 38.8141 57.1641 38.891 57.1786C38.9978 57.1987 38.9989 57.1911 38.8986 57.1227C38.7987 57.0546 38.8061 57.0109 38.9504 56.8125C39.0428 56.6854 39.2639 56.2914 39.4417 55.9369C39.7048 55.4123 39.7978 55.2935 39.9411 55.2991C40.196 55.3089 41.0281 55.2097 41.8888 55.0668C43.9625 54.7223 45.5258 54.1161 46.554 53.2578C46.7597 53.0861 46.9643 52.9685 47.0086 52.9963C47.053 53.0242 47.0797 53.0156 47.0678 52.9772C47.0357 52.8736 47.5743 52.236 47.6523 52.2849C47.6892 52.308 47.7096 52.2793 47.6977 52.221C47.6858 52.1627 47.7229 52.125 47.7803 52.1371C47.8377 52.1492 47.8632 52.1239 47.837 52.0808C47.8108 52.0379 47.9173 51.8324 48.0736 51.6243C48.6925 50.8006 49.2545 49.3762 49.4501 48.1355C49.608 47.134 49.512 45.3367 49.2482 44.3548C49.1299 43.9148 49.029 43.4772 49.0239 43.3824C49.0187 43.2877 48.9968 43.2213 48.975 43.235C48.9532 43.2487 48.805 42.9746 48.6456 42.6259C48.4863 42.2773 48.3889 42.0128 48.4293 42.0381C48.4697 42.0635 48.5028 42.0461 48.5028 41.9995C48.5028 41.9529 48.4585 41.9145 48.4043 41.9141C48.3503 41.9137 48.1649 41.6911 47.9926 41.4193C47.6101 40.8162 46.8223 39.825 46.3889 39.4017C46.2126 39.2296 46.0901 39.053 46.1167 39.0093C46.1432 38.9657 46.1288 38.9527 46.0846 38.9805C46.0404 39.0082 45.9437 38.963 45.8698 38.88C45.7657 38.7631 45.7277 38.533 45.7018 37.8618C45.6835 37.3849 45.6508 36.8866 45.6292 36.7546C45.6076 36.6226 45.5688 36.3526 45.543 36.1546C45.4923 35.7665 45.271 34.8716 45.098 34.3546L44.9908 34.0346L45.446 33.5334C46.3747 32.5107 46.9478 31.4373 47.3362 29.9927C47.5895 29.0506 47.5885 27.3068 47.334 26.3543C47.1077 25.5073 46.5538 24.4004 46.0254 23.7395C45.7546 23.4008 45.6324 23.189 45.6921 23.1618C45.7459 23.1373 45.7356 23.1262 45.668 23.1361C45.603 23.1455 45.3018 22.952 44.9988 22.706C44.6957 22.46 44.297 22.1693 44.1129 22.0601C43.9287 21.9508 43.8047 21.8315 43.8373 21.7949C43.8699 21.7584 43.8563 21.7519 43.8071 21.7804C43.7579 21.809 43.4781 21.722 43.1853 21.5872C41.5564 20.8367 39.2516 20.8144 37.5027 21.5321C36.9527 21.7579 36.1254 22.2309 35.7685 22.5236L35.5142 22.7322L35.5597 22.0632C35.6086 21.3424 35.6401 21.1619 36.1313 18.788C36.3096 17.9267 36.4756 17.0267 36.5002 16.788C36.852 13.3775 36.6063 11.0747 35.6239 8.57743C35.2844 7.71436 34.5327 6.26568 34.2732 5.97431C34.2043 5.89703 34.1712 5.83375 34.1996 5.83375C34.2279 5.83375 34.179 5.76047 34.0908 5.67087C34.0026 5.58118 33.9521 5.4723 33.9786 5.42886C34.005 5.38534 33.9959 5.35966 33.9584 5.37174C33.9209 5.38382 33.6796 5.14173 33.4222 4.83372C32.5285 3.76425 31.7521 3.05271 30.6398 2.28349C30.2659 2.02492 29.9697 1.77923 29.9816 1.73755C29.9935 1.69587 29.9701 1.68251 29.9296 1.70795C29.8184 1.77771 29.5992 1.66891 29.6576 1.57291C29.6858 1.52635 29.6713 1.51243 29.6249 1.54155C29.5061 1.61611 29.2813 1.51371 29.3426 1.4129C29.3707 1.36666 29.3575 1.3517 29.3132 1.37946C29.2688 1.4073 29.0242 1.32802 28.7695 1.20338C27.9043 0.779846 26.221 0.25511 25.275 0.114066C24.8341 0.0483844 21.943 -0.0354578 21.8892 0.0159037ZM24.7772 1.51763C25.1159 1.56387 25.8006 1.71075 26.2986 1.84412C29.7225 2.76054 32.459 5.06909 34.015 8.35382C34.9023 10.227 35.2727 12.0083 35.2741 14.4099C35.2749 15.7827 35.1345 16.8794 34.6748 19.0917C34.2776 21.0037 34.1515 22.5453 34.3181 23.4511C34.4012 23.9029 34.399 23.9127 34.1189 24.3312C33.5623 25.1627 33.3626 25.7158 32.9547 27.5544C32.8864 27.8624 32.6591 28.4564 32.4497 28.8744C32.2402 29.2924 32.0095 29.8184 31.9369 30.0432L31.805 30.452L31.1967 30.4943C29.7761 30.5933 28.9543 30.1892 28.1466 28.9944L27.8763 28.5944L28.8787 27.5531C29.9913 26.3975 31.1371 24.9408 31.6496 24.0307C32.432 22.6414 33.0542 20.7866 33.326 19.0341C33.5627 17.5075 33.5577 15.0837 33.315 13.714C33.0347 12.1317 32.2571 10.0507 31.6905 9.36649C31.5244 9.16593 31.4206 9.11384 31.187 9.11384C30.8205 9.11384 30.6782 9.26273 30.2307 10.1139C29.2346 12.0086 28.0585 13.4597 26.5364 14.6722C24.81 16.0474 23.4878 16.6965 19.8695 17.9447C17.8908 18.6272 16.7687 19.1124 16.0069 19.6145C14.5399 20.5817 13.5953 21.597 12.8074 23.0535C12.1031 24.3556 11.4519 26.6071 11.6029 27.2182C11.6745 27.5083 11.9542 27.7544 12.2123 27.7544C12.4897 27.7544 12.8132 27.3708 12.8721 26.972C13.1491 25.0957 13.7851 23.679 15.1018 22.0044L15.251 21.8148L15.3475 22.3245C15.5002 23.1308 15.9482 24.4147 16.3713 25.2585L16.7602 26.0343L16.6861 26.5543C16.586 27.2571 16.2668 28.2083 15.9732 28.6786C15.6033 29.2712 14.8206 30.0186 14.3182 30.2589C14.0733 30.376 13.2052 30.6494 12.3891 30.8663C10.5008 31.3682 9.69307 31.6682 8.88026 32.1699C7.26431 33.1671 6.21245 34.3302 5.35334 36.0697C5.06169 36.6603 4.56682 38.1307 4.56682 38.4068C4.56682 38.7048 4.37824 38.6372 3.97148 38.193C3.03001 37.1651 2.33782 35.8439 1.96058 34.3542C1.75555 33.5445 1.7109 33.1932 1.67484 32.1065C1.59343 29.6498 2.05712 28.039 3.48748 25.8094C4.04132 24.9461 4.64005 24.2441 6.20717 22.6208C9.47647 19.2345 10.4015 17.4499 10.8243 13.714C11.1167 11.1304 11.3979 9.96531 12.0796 8.51383C13.0302 6.49009 14.8137 4.44155 16.5744 3.35152C18.2277 2.32797 19.8832 1.70619 21.5349 1.48875C22.0584 1.41978 24.1999 1.4389 24.7772 1.51763ZM32.4502 3.9737C32.5481 4.10058 32.5454 4.10338 32.4205 4.00394C32.2893 3.89937 32.2476 3.83369 32.3124 3.83369C32.3287 3.83369 32.3908 3.89665 32.4502 3.9737ZM31.4902 11.9267C31.9769 13.1648 32.2039 14.5647 32.2039 16.3279C32.2039 20.2451 30.9821 23.414 28.3936 26.2097C27.2922 27.3993 26.3757 28.0541 25.2829 28.4316C23.3853 29.0875 21.3599 28.7412 19.7066 27.4784C18.5539 26.598 17.5016 24.9573 16.8897 23.0863C16.6315 22.2965 16.4117 21.0923 16.4994 20.9481C16.5909 20.7976 17.64 20.2318 18.3914 19.9277C18.8229 19.7529 19.7953 19.3941 20.5523 19.1301C23.5025 18.1013 24.9183 17.4505 26.4167 16.4344C28.1502 15.2587 29.8975 13.3939 30.8731 11.6782C31.0204 11.4191 31.1653 11.2312 31.1951 11.2605C31.2249 11.2899 31.3577 11.5897 31.4902 11.9267ZM38.4095 21.0888C38.4663 21.1119 38.5343 21.1091 38.5604 21.0825C38.5865 21.0559 38.5401 21.0371 38.4571 21.0405C38.3654 21.0443 38.3467 21.0633 38.4095 21.0888ZM5.43294 21.7844C5.43294 21.801 5.37089 21.864 5.29515 21.9244C5.17027 22.0239 5.16751 22.0211 5.26539 21.8942C5.3683 21.7609 5.43294 21.7186 5.43294 21.7844ZM41.8888 22.6353C45.1022 23.5618 46.7612 26.4485 45.9491 29.7008C45.5609 31.2556 44.8073 32.4191 43.7907 33.0327C43.1227 33.4359 42.7655 33.5601 40.314 34.2414C39.2097 34.5483 37.8574 34.9484 37.3089 35.1304L36.3115 35.4615L35.9558 35.3234C35.0898 34.9874 34.0874 34.123 33.588 33.2816C33.2163 32.6552 33.0561 32.1353 33.0099 31.4054L32.9701 30.7761L33.5315 29.6453C33.9917 28.7184 34.1159 28.3846 34.22 27.7944C34.2898 27.3984 34.4161 26.8043 34.5006 26.4743C34.9809 24.598 36.7564 23.0195 38.9492 22.519C39.6871 22.3506 41.0945 22.4063 41.8888 22.6353ZM4.64556 22.5845C4.64556 22.601 4.58351 22.6641 4.50777 22.7245C4.38289 22.8239 4.38013 22.8211 4.478 22.6942C4.58091 22.5609 4.64556 22.5186 4.64556 22.5845ZM45.8701 23.2508C45.8274 23.3648 45.8364 23.374 45.9142 23.2956C45.968 23.2413 45.9922 23.1767 45.9679 23.1522C45.9437 23.1275 45.8997 23.1719 45.8701 23.2508ZM19.4086 28.9134C20.007 29.3135 20.9007 29.7071 21.6996 29.9222C22.1773 30.0508 22.5607 30.0902 23.3459 30.0913C24.5953 30.0932 25.2695 29.9332 26.6675 29.3033C26.7189 29.2802 26.8568 29.417 26.9743 29.6079C27.3048 30.1446 28.2581 31.0476 28.7603 31.2998C29.0072 31.4238 29.2288 31.5576 29.2528 31.5971C29.3819 31.8093 28.3681 33.3207 27.5985 34.0634C26.2451 35.3696 24.7596 35.8791 22.871 35.6845C20.1779 35.4071 17.6831 33.9106 16.161 31.6597C15.9337 31.3234 15.7477 31.0169 15.7477 30.9784C15.7477 30.9399 15.928 30.7298 16.1484 30.5114C16.8502 29.8162 17.5562 28.683 17.7912 27.8744L17.8843 27.5544L18.4104 28.0761C18.6998 28.363 19.149 28.7398 19.4086 28.9134ZM0.524554 31.0545C0.502744 31.1095 0.484871 31.0645 0.484871 30.9545C0.484871 30.8445 0.502744 30.7995 0.524554 30.8545C0.546444 30.9095 0.546444 30.9995 0.524554 31.0545ZM0 31.5145C0 31.5585 0.0375586 31.5945 0.0833843 31.5945C0.12921 31.5945 0.144878 31.5585 0.118107 31.5145C0.0913364 31.4705 0.0538565 31.4345 0.0347231 31.4345C0.0155897 31.4345 0 31.4705 0 31.5145ZM14.7726 31.8545C15.2186 32.7373 16.4875 34.1851 17.4835 34.9477C18.16 35.4656 19.3636 36.1145 20.2349 36.4309C21.3487 36.8354 22.09 36.9736 23.3459 37.0112C24.4215 37.0434 24.5972 37.0282 25.3144 36.8419C26.3168 36.5813 27.042 36.2086 27.8783 35.5241C28.8317 34.7437 29.8189 33.5169 30.368 32.4299L30.6686 31.8352L31.1881 31.8348L31.7077 31.8345L31.8794 32.4945C32.199 33.7231 33.0577 34.9487 34.2011 35.8081L34.6629 36.1551L34.3585 36.2821C30.9416 37.7074 28.3087 39.2879 26.2948 41.1226C24.1071 43.1155 22.2797 45.9814 21.5418 48.5765C21.2142 49.7284 20.9348 51.2154 20.8789 52.1048L20.8263 52.9403L19.6036 52.4419C18.9312 52.1677 18.1584 51.8228 17.8862 51.6755C17.311 51.3639 16.7461 50.7663 16.4869 50.195C16.3872 49.975 15.8247 48.013 15.2372 45.8349C14.6496 43.6568 14.1101 41.7372 14.0382 41.5689C13.8842 41.2085 13.6681 41.0348 13.3737 41.0348C13.1232 41.0348 12.8343 41.361 12.8343 41.6439C12.8343 41.8789 13.3412 43.881 13.8143 45.5149C14.0118 46.1969 14.3665 47.5141 14.6026 48.4421C15.1272 50.5045 15.2701 50.9017 15.7021 51.4978C16.2675 52.2783 16.9243 52.7191 18.5184 53.3878C20.4993 54.2188 25.0939 55.565 28.7001 56.371C29.0679 56.4532 29.061 56.351 28.8121 58.0352C28.6446 59.1683 28.3715 60.2978 28.0913 61.0168L27.9125 61.4753L27.2434 61.5274C26.8753 61.5561 25.7415 61.5829 24.7238 61.587C21.1003 61.6017 18.5123 61.2148 15.7432 60.2443C12.6911 59.1745 10.5635 57.5266 8.83357 54.8923C6.59055 51.4767 5.30412 46.508 5.4557 41.8465C5.50892 40.2107 5.60223 39.4386 5.8686 38.4292C6.60945 35.6213 8.23531 33.7049 10.7216 32.7092C10.947 32.6189 11.807 32.3701 12.6325 32.1563C13.4581 31.9424 14.2221 31.7308 14.3304 31.686C14.6187 31.5668 14.6293 31.5708 14.7726 31.8545ZM46.4653 31.8559C46.3875 31.9343 46.3786 31.9251 46.4212 31.8111C46.4509 31.7322 46.4949 31.6878 46.5191 31.7124C46.5434 31.737 46.5192 31.8015 46.4653 31.8559ZM0.163696 32.3611C0.167476 32.4543 0.186137 32.4733 0.211255 32.4095C0.23401 32.3518 0.231176 32.2827 0.205035 32.2562C0.178894 32.2296 0.160311 32.2768 0.163696 32.3611ZM45.7469 32.9806C45.7469 32.9949 45.6495 33.0939 45.5304 33.2006L45.3139 33.3945L45.5047 33.1745C45.6832 32.9689 45.7469 32.9178 45.7469 32.9806ZM0.762422 34.3296C0.737305 34.3934 0.718644 34.3744 0.714864 34.2812C0.711478 34.1969 0.730061 34.1497 0.756203 34.1762C0.782344 34.2028 0.785178 34.2718 0.762422 34.3296ZM43.8838 34.9746C44.3783 36.3013 44.5548 39.115 44.2546 40.8868C44.0193 42.2753 43.6363 43.2263 42.8122 44.4671C42.3215 45.2059 41.1447 46.4138 40.4823 46.8584L39.9814 47.1947L39.3657 46.6063C38.3766 45.6607 37.1733 44.9326 35.8259 44.4641C35.1831 44.2407 34.9664 44.2034 34.2854 44.1995C33.5504 44.1952 33.4692 44.2107 33.1677 44.4131C32.7114 44.7193 32.4308 45.2355 32.418 45.7923C32.4124 46.0357 32.3845 46.2349 32.3561 46.2349C32.3276 46.2349 31.8694 46.1449 31.3378 46.0349C30.0001 45.7581 29.0754 45.7602 28.5203 46.0412C27.5749 46.5199 26.8509 47.6773 26.7862 48.8135C26.666 50.9223 27.9311 52.7869 30.2723 53.9518C30.6852 54.1572 31.0229 54.3375 31.0229 54.3526C31.0229 54.4073 30.1862 54.8538 29.822 54.9935C29.4634 55.131 29.418 55.1312 28.7197 54.9956C27.286 54.7175 24.0849 53.9084 22.5168 53.4278L22.0026 53.2702L22.0589 52.5548C22.3119 49.3375 23.6924 45.9998 25.7652 43.5937C27.1356 42.0029 29.0195 40.4811 30.9939 39.3701C34.1703 37.5825 36.3586 36.7163 40.9382 35.4339C41.8725 35.1723 42.8494 34.8887 43.1092 34.8037C43.369 34.7187 43.6211 34.6459 43.6693 34.6418C43.7176 34.6379 43.8141 34.7876 43.8838 34.9746ZM46.6578 41.8398C47.2839 42.792 47.6559 43.6023 47.9306 44.6122C48.1214 45.3139 48.1436 45.5314 48.1459 46.7149C48.1479 47.7654 48.118 48.1493 47.9994 48.595C47.4254 50.7522 46.2214 52.2054 44.369 52.9769C43.648 53.2773 42.1976 53.6569 41.2588 53.791C40.8474 53.8498 40.5038 53.8917 40.4953 53.8841C40.4867 53.8765 40.5653 53.5713 40.6699 53.2058C41.0879 51.7447 41.0931 50.0864 40.6836 48.81L40.5005 48.2394L41.1355 47.8645C42.376 47.1322 44.0882 45.151 44.7369 43.6972C45.1958 42.6691 45.5895 41.3244 45.5895 40.7857V40.5234L45.872 40.7991C46.0275 40.9507 46.381 41.419 46.6578 41.8398ZM4.30879 42.8948C4.29139 43.0378 4.27706 42.9208 4.27706 42.6348C4.27706 42.3488 4.29139 42.2317 4.30879 42.3748C4.32627 42.5178 4.32627 42.7518 4.30879 42.8948ZM35.2798 45.6723C36.6097 46.1251 37.9577 46.9422 38.6325 47.7046C39.5648 48.7583 39.923 50.2554 39.6495 51.9551C39.4861 52.9701 39.2357 53.8462 39.0722 53.9751C38.9152 54.0989 37.9041 54.1057 36.4519 53.9928C33.7487 53.7826 31.904 53.372 30.564 52.682C29.6396 52.2061 28.7026 51.2585 28.3373 50.43C28.1924 50.1014 27.9348 49.1859 27.9756 49.1444C27.9878 49.132 28.3507 49.3069 28.782 49.533C30.3154 50.3366 32.3284 51.115 32.8735 51.115C33.1778 51.115 33.5425 50.7844 33.5425 50.5085C33.5425 50.1318 33.2413 49.9345 32.0296 49.5176C31.3924 49.2983 30.3294 48.8439 29.6675 48.5078C29.0055 48.1718 28.4503 47.8841 28.4336 47.8684C28.3481 47.7882 28.7141 47.4025 29.0015 47.27C29.6052 46.9915 29.8224 47.0248 33.7 47.992C35.3802 48.411 35.8802 48.4666 36.1285 48.2617C36.2583 48.1546 36.3154 48.0206 36.3213 47.8099C36.3345 47.3396 36.1009 47.1728 34.9706 46.8453C34.4352 46.6902 33.9302 46.5019 33.8486 46.4267C33.6492 46.2435 33.654 45.8016 33.8575 45.5949C34.0781 45.3707 34.4537 45.3911 35.2798 45.6723ZM5.17177 49.29C5.14665 49.3538 5.12799 49.3348 5.12421 49.2416C5.12082 49.1573 5.1394 49.1101 5.16554 49.1367C5.19169 49.1632 5.19452 49.2323 5.17177 49.29ZM47.1642 52.4994C47.1642 52.5128 47.0314 52.6477 46.8689 52.7994L46.5737 53.0751L46.845 52.7751C47.0976 52.4959 47.1642 52.4383 47.1642 52.4994ZM45.1958 54.2351C45.0948 54.3014 45.0977 54.3129 45.2154 54.3139C45.2912 54.3146 45.3532 54.2791 45.3532 54.2351C45.3532 54.1375 45.3443 54.1375 45.1958 54.2351ZM33.5819 54.9897C34.5532 55.1588 35.5673 55.2582 36.9873 55.3236C37.6478 55.354 38.1881 55.4032 38.1881 55.433C38.1881 55.5524 37.2285 56.949 36.7975 57.4571C35.5797 58.8923 33.9426 59.9709 31.9596 60.6445C31.039 60.9572 29.8039 61.2702 29.4769 61.2736L29.3089 61.2753L29.4899 60.8153C29.8229 59.9692 30.1631 58.0926 30.2552 56.5952C30.2746 56.2786 30.2827 56.2709 31.007 55.8752C31.4096 55.6552 31.941 55.3225 32.1877 55.136C32.4346 54.9495 32.6898 54.8125 32.7549 54.8316C32.8199 54.8507 33.1921 54.9218 33.5819 54.9897ZM8.23578 56.7027C8.20854 56.7475 8.2246 56.8082 8.27145 56.8377C8.39255 56.9137 8.47066 56.8096 8.36956 56.7069C8.31303 56.6494 8.26901 56.6481 8.23578 56.7027ZM38.0306 57.8655C38.0306 57.882 37.9685 57.9451 37.8928 58.0055C37.7679 58.1049 37.7652 58.1021 37.863 57.9752C37.9659 57.8419 38.0306 57.7996 38.0306 57.8655ZM37.7156 58.2613C37.7156 58.2756 37.6182 58.3746 37.4991 58.4813L37.2826 58.6753L37.4734 58.4552C37.6518 58.2496 37.7156 58.1985 37.7156 58.2613ZM10.561 58.6153C10.6589 58.7421 10.6561 58.7449 10.5312 58.6455C10.4555 58.5851 10.3934 58.522 10.3934 58.5055C10.3934 58.4396 10.4581 58.482 10.561 58.6153ZM36.9282 59.0613C36.9282 59.0757 36.8308 59.1746 36.7117 59.2814L36.4952 59.4753L36.686 59.2553C36.8645 59.0497 36.9282 58.9985 36.9282 59.0613ZM31.213 62.4864C31.179 62.5422 31.19 62.5587 31.2402 62.5272C31.2865 62.4982 31.3423 62.5196 31.3643 62.5749C31.3928 62.6468 31.4059 62.6483 31.4103 62.5801C31.4193 62.4424 31.28 62.3762 31.213 62.4864ZM20.9444 62.9068C20.9444 62.9241 20.9993 62.9597 21.0666 62.9859C21.1367 63.0132 21.1682 62.9998 21.1407 62.9545C21.0945 62.8784 20.9444 62.842 20.9444 62.9068Z" fill="#008ABD"/>
<path d="M21.5107 8.5348C21.0136 8.5348 20.2878 8.62613 19.6075 9.10834C18.2226 10.0901 17.8365 10.6546 17.3136 11.1617C16.8644 11.5973 16.9268 12.268 16.6095 12.937C16.5295 13.1056 16.4284 13.2365 16.3147 13.3299C16.201 13.4233 16.0661 13.469 15.9742 13.4012C15.7461 13.2329 15.7911 12.232 15.8809 11.0794C15.9559 10.1177 16.9677 9.91848 17.6949 9.50545C18.0901 9.28097 18.3771 8.90563 18.5365 8.5604C18.6052 8.41148 18.4711 8.26084 18.3574 8.14461C18.1306 7.91279 17.8351 7.84297 17.6983 7.8658C17.2677 7.93763 18.8279 8.1197 19.5789 7.82152C19.8738 7.569 20.1924 7.3822 20.5772 7.19886C20.7821 7.06119 21.0068 6.83288 21.2383 6.59766" stroke="#008ABD" stroke-width="10" stroke-linecap="round"/>
<path d="M25.1383 2.8662C25.0226 2.8515 24.9069 2.8368 24.377 2.82922C23.8472 2.82165 22.9068 2.82165 22.3934 2.83635C21.8208 2.85275 21.4877 2.99894 21.0278 3.13993C20.4987 3.30213 19.8222 3.45954 19.5201 3.59317C19.2488 3.71321 19.0602 3.93439 18.8552 4.03885C18.5617 4.18843 18.1702 4.48318 17.869 4.75068C17.4288 5.14167 17.3364 5.62532 17.1305 5.91664C16.9483 6.17457 16.9839 6.51711 16.8383 7.19865C16.6487 8.0864 16.9681 8.66774 17.1586 9.09404C17.3313 9.48055 17.9177 9.68114 18.6071 9.82146C19.1492 9.9318 20.0922 10.0647 20.8732 10.1404C21.6543 10.2161 22.2475 10.2161 22.6688 10.2014C23.3216 10.1573 23.7337 10.0682 24.1342 9.8836C24.361 9.75776 24.6359 9.56666 24.9191 9.36977" stroke="#008ABD" stroke-width="5" stroke-linecap="round"/>
<path d="M28.5579 3.9375C28.4851 3.9963 28.4264 4.55668 28.5281 4.95357C28.632 5.35911 28.8779 5.59903 28.9961 5.80772C29.1022 5.99508 29.1129 6.31175 29.1642 6.59394C29.2602 7.12191 29.0401 7.36569 28.931 7.63385C28.8448 7.84562 28.792 8.03475 28.7335 8.25013C28.6795 8.44881 28.4711 8.64324 28.3827 8.87376C28.313 9.0557 28.237 9.23747 28.1055 9.45262C27.8913 9.80302 27.8275 9.99473 27.6453 10.2544C27.4861 10.4815 27.3751 10.6629 27.2067 10.8413C27.0438 11.014 26.8928 11.2126 26.5719 11.5162C26.1888 11.8785 25.987 12.0884 25.7966 12.1855C25.5863 12.2926 25.2575 12.5926 24.9202 12.8309C24.5663 13.0809 24.0729 13.3062 23.7875 13.4695C23.5345 13.6142 23.3417 13.7223 23.1297 13.8704C22.8479 14.0673 22.0597 14.4769 21.5155 14.717C21.1318 14.8862 20.4946 15.1914 19.6976 15.3923C19.1252 15.5365 18.8558 15.7562 18.5268 15.9491C18.2313 16.1223 17.6309 16.231 17.1169 16.3651C16.7399 16.4634 16.228 16.7059 15.7793 16.8108C15.5646 16.861 15.3336 16.9295 15.0995 16.9816C14.8793 17.0307 14.7049 17.1816 14.4566 17.2562C14.2655 17.3137 14.0912 17.4044 13.872 17.4863C13.6473 17.5703 13.4774 17.6716 13.2873 17.7979C13.159 17.8832 13.0241 18.0128 12.9291 18.1832C12.8495 18.3262 12.8627 18.4734 12.8627 18.5258C12.8627 18.8141 12.9066 17.5282 12.6882 16.3843C12.6167 16.0092 12.5414 15.8613 12.4978 15.7575C12.4769 15.708 12.4252 15.6831 12.3811 15.6974C12.1545 15.7707 12.0017 16.1553 11.8112 16.4538C11.6566 16.696 11.5045 16.958 11.3434 17.2776C11.2895 17.3846 11.241 17.5522 11.0812 17.8995C10.8117 18.4852 10.5251 19.0801 10.423 19.5104C10.3684 19.7404 10.3199 19.8837 10.3633 19.9953C10.4118 20.1199 11.0749 19.6058 11.9287 19.079C12.7998 18.5416 13.4011 18.5492 13.8187 18.3338C14.0041 18.2382 14.249 18.0004 14.5278 17.873C14.585 17.8468 14.6444 17.8213 14.6453 17.8282C14.6768 18.0761 14.121 18.1759 13.8356 18.3694C13.5941 18.5332 13.3897 18.681 13.2141 18.8077C12.9867 18.9719 12.6304 19.2895 12.3307 19.6009C11.6618 20.2959 11.4458 21.0116 11.3287 21.2424C11.0425 21.8065 10.5549 22.6152 10.3283 22.9716C10.169 23.222 9.65136 23.8438 9.04547 24.7705C8.44627 25.6871 8.40583 25.9419 8.24559 26.2013C8.10719 26.4254 8.02573 26.6105 7.98934 26.7067C7.94614 26.8209 8.25589 26.3637 8.82539 25.4813C9.35921 24.6541 9.3984 24.2661 9.64676 23.9391C9.68737 23.8856 9.74913 23.9667 9.78595 24.0485C10.0525 24.6402 9.85259 25.4964 9.79406 25.7635C9.72767 26.0664 9.58954 26.2982 9.56017 26.5653C9.51677 26.7134 9.47249 26.8479 9.45057 27.084C9.44311 27.2613 9.44311 27.5553 9.48695 27.8582" stroke="#008ABD" stroke-width="5" stroke-linecap="round"/>
<path d="M9.11001 20.9453C8.89659 21.1835 8.46489 21.8186 8.34106 22.1415C8.18845 22.5393 7.98056 22.6506 7.83526 22.771C7.60743 22.9598 7.46394 23.0771 7.38823 23.2085C7.3032 23.356 7.17335 23.4491 7.04403 23.5802C6.87903 23.7474 6.80719 23.9517 6.71566 24.0997C6.58562 24.3099 6.3022 24.5961 6.18822 24.7886C6.08192 24.9683 5.94638 25.0783 5.35615 25.9231C5.19246 26.1574 4.96804 26.4542 4.69907 26.8696C4.46663 27.2285 4.2564 27.5605 4.13806 27.7411C4.00437 27.9451 3.95482 28.1727 3.83132 28.5877C3.80192 28.6865 3.79338 28.752 3.70798 29.1049C3.62257 29.4577 3.46274 30.0965 3.36975 30.4526C3.22791 30.9958 3.13728 31.3215 3.04558 31.6715C2.95908 32.0017 2.84636 32.393 2.79792 32.7748C2.71243 33.4489 2.87832 33.805 2.93725 33.9636C2.99033 34.1065 3.08174 34.5457 3.17408 34.8221C3.24433 35.0324 3.44789 35.3246 3.53459 35.5109C3.58802 35.5982 3.64227 35.6753 3.68521 35.7461C3.70685 35.7845 3.72816 35.8278 3.75011 35.8725" stroke="#008ABD" stroke-width="5" stroke-linecap="round"/>
<path d="M6.9464 27.375C6.90378 27.3967 6.75396 27.5485 6.3418 28.0974C6.04329 28.4949 5.62063 29.1768 5.37427 29.5442C5.02026 30.0722 4.88058 30.2614 4.77273 30.4252C4.60095 30.6863 4.49312 30.8079 4.40142 31.0048C4.32402 31.1709 4.22351 31.2787 4.20736 31.6635C4.19259 32.0156 4.20187 32.6871 4.19655 33.0599C4.19044 33.4872 4.15893 33.5752 4.13213 33.646C4.07046 33.8091 3.89061 33.9029 3.64845 34.1432C3.50692 34.2837 3.42759 34.4823 3.33573 34.6302C3.22649 34.8062 3.16864 35.4298 3.21142 35.8001C3.24422 36.0841 3.34074 36.1886 3.37286 36.2814C3.38737 36.3233 3.4263 36.3418 3.45875 36.3421C3.58807 36.2877 3.69559 36.2765 3.78148 36.2983C3.82474 36.3093 3.86736 36.3201 3.91128 36.3313" stroke="#008ABD" stroke-width="5" stroke-linecap="round"/>
<path d="M9.33612 28.9811C9.33612 29.0027 9.17629 29.2737 8.84356 29.7865C8.51376 30.2947 8.26026 30.5447 8.1797 30.6045C7.8002 30.8866 7.34585 31.4409 7.22703 31.5669C7.0804 31.7224 6.92545 31.8674 6.74286 32.0807C6.73531 32.0895 6.95581 31.9134 7.68827 31.4239C8.23386 31.0593 9.19857 30.5663 9.85758 30.2553C10.5166 29.9443 10.8576 29.8577 11.1025 29.8022C11.6574 29.6766 11.8533 29.6051 12.0209 29.5009C12.191 29.3952 12.7109 28.9627 13.0595 28.7354C13.278 28.5928 13.4684 28.4785 13.6299 28.3148C13.8225 28.1194 13.8882 27.9319 13.98 27.8005C14.068 27.6746 14.1465 27.4838 14.2651 27.314C14.3517 27.1901 14.3731 26.9812 14.3999 26.7025C14.455 26.1297 14.3195 25.9963 14.2496 25.8649C14.182 25.7378 14.1045 25.6026 14.0451 25.4712C13.9814 25.3305 13.9211 25.1223 13.8622 24.9463C13.8188 24.8167 13.7603 24.684 13.722 24.5472C13.6787 24.3922 13.6525 24.2575 13.6252 24.0172C13.5876 23.8527 13.5446 23.6998 13.48 23.5086C13.4691 23.459 13.4691 23.4157 13.4368 23.3711" stroke="#008ABD" stroke-width="5" stroke-linecap="round"/>
<path d="M31.1665 4.85156C31.1758 5.1361 31.3057 5.53297 31.5025 5.89592C31.7335 6.32186 32.0639 6.83706 32.1622 7.00343C32.2346 7.12589 32.3167 7.29295 32.3634 7.48269C32.4004 7.63285 32.4938 8.05078 32.6387 8.62527C32.7589 9.10164 32.766 9.32693 32.766 9.41759C32.766 9.48687 32.6826 8.99791 32.3897 8.3634C32.2142 7.98342 31.8467 7.55953 31.6703 7.31762C31.4773 7.05287 31.4474 6.99958 31.4053 6.99459C31.234 6.97428 31.4656 7.47286 31.7211 8.08399C31.8541 8.40196 32.1986 8.86191 32.3791 9.13733C32.682 9.59927 32.8586 9.85865 33.0179 10.158C33.2176 10.533 33.2054 10.7146 33.2475 10.8999C33.2948 11.1083 33.3457 11.2374 33.4111 11.4463C33.4774 11.6581 33.5977 12.1099 33.6543 12.3539C33.7274 12.6687 33.8221 12.947 33.8696 13.2187C33.9029 13.4099 33.963 13.5753 34.0096 13.6279C34.0285 13.6493 34.0747 13.5582 34.1262 13.3361C34.1777 13.114 34.2425 12.7377 34.2805 12.2004C34.3185 11.6631 34.3278 10.9763 34.3233 10.5237C34.3188 10.0711 34.3003 9.87348 34.2445 9.63527C34.043 8.77588 33.8609 8.62527 33.7764 8.45406C33.7426 8.38557 33.6922 8.32077 33.6501 8.30609C33.6248 8.29727 33.6358 8.41372 33.7655 8.9607C33.8951 9.50768 34.1544 10.5144 34.288 11.066C34.4366 11.6798 34.4308 11.8171 34.4448 12.1474C34.456 12.4116 34.4496 12.8728 34.4449 13.1527C34.4359 13.699 34.3845 13.9648 34.3328 14.1312C34.3003 14.2493 34.2627 14.4395 34.2346 14.813C34.2251 15.0642 34.2251 15.4405 34.2251 15.8283" stroke="#008ABD" stroke-width="3" stroke-linecap="round"/>
<path d="M34.0652 16.7656C34.0908 16.9227 34.1429 17.6022 34.0656 18.1847C33.9855 18.7882 33.9363 19.5265 33.678 19.9992C33.2561 20.7715 33.2636 21.367 33.1851 21.8808C33.1203 22.3053 32.9528 22.7087 32.7971 23.1176C32.5961 23.6453 32.4604 23.9463 32.2922 24.2624C32.1022 24.6195 31.7115 25.1555 31.3476 25.4206C31.087 25.6105 30.6753 25.9179 30.4151 26.3275C30.1943 26.675 30.2077 27.0244 30.0912 27.3405C29.9625 27.6895 29.6391 28.0236 29.2635 28.4321C29.1011 28.6086 28.9648 28.7616 28.8871 28.919C28.8502 28.9939 28.8607 29.0765 28.8992 29.1558C29.0652 29.4983 29.5319 29.5769 29.9983 29.6175C30.3631 29.6493 30.6458 29.2628 31.1495 28.8701C32.2197 28.036 32.4837 27.5027 32.6794 27.1061C32.8586 26.7431 32.9513 26.2131 33.0033 25.0572C33.1843 24.554 33.391 24.1862 33.5727 23.8701C33.5991 23.7908 33.5991 23.7127 33.7545 23.6322" stroke="#008ABD" stroke-width="3" stroke-linecap="round"/>
<path d="M32.5118 26.7109C32.4085 26.9469 32.2539 27.4702 32.1366 27.9588C31.9853 28.5892 31.8655 28.9193 31.5937 29.5629C31.5284 29.7093 31.4771 29.7875 31.4507 29.9319C31.4243 30.0763 31.4243 30.2847 31.4243 30.4994" stroke="#008ABD" stroke-width="3" stroke-linecap="round"/>
<path d="M14.4686 33.7356C13.7965 34.6425 13.1244 35.5495 12.2269 36.8009C11.3293 38.0524 10.2267 39.6208 9.63767 40.5035C9.04864 41.3862 9.00664 41.5356 8.99025 41.6659C8.97386 41.7962 8.98436 41.9029 9.02128 41.9525C9.05819 42.0021 9.1212 41.9915 9.36368 41.7459C9.60617 41.5003 10.0262 41.0202 10.3109 40.6501C10.5955 40.2801 10.732 40.0347 10.8969 39.5615C11.0617 39.0883 11.2507 38.3948 11.3586 37.9735C11.4985 37.4269 11.6456 37.0361 11.884 36.6055C12.1717 36.0855 12.4211 35.7409 12.4687 35.4777C12.5751 34.8891 12.8132 34.7922 13.1519 34.5502C13.3335 34.4205 13.5133 34.2859 13.6776 34.1457C13.865 33.986 13.885 33.8332 13.901 33.6769C13.9154 33.5375 13.9804 33.4129 14.0598 33.2888C14.0804 33.2566 14.1179 33.2403 14.1341 33.2026C14.1504 33.1649 14.1504 33.1116 14.1293 33.0788C14.1083 33.0459 14.0663 33.0353 14.0237 33.0404C13.9357 33.0511 13.7383 33.153 13.3526 33.2873C12.8405 33.4657 12.4224 33.5199 12.2266 33.5468C11.9104 33.5901 11.6587 33.6489 11.3882 33.6978C11.1089 33.7482 10.7473 33.8429 10.444 33.9399C10.2148 34.0133 10.0778 34.1663 9.91341 34.3114C9.66547 34.5304 9.57944 34.7799 9.44117 34.9743C9.29596 35.1783 8.99773 35.6394 8.75715 35.9873C8.53205 36.3128 8.35938 36.5906 8.14203 37.0158C8.04355 37.2084 8.00934 37.3776 7.94522 37.5181C7.8789 37.6633 7.82859 37.8839 7.67521 38.0891C7.61798 38.1656 7.58451 38.2295 7.56335 38.2407C7.22611 38.4185 7.72167 37.2722 7.83861 36.9055C7.90001 36.713 7.97624 36.5602 8.08253 36.3875C8.22647 36.1537 8.37975 35.9669 8.40632 35.9344C8.42639 35.9098 8.09653 36.4684 7.62477 37.2544C7.24939 37.8798 7.29843 38.0999 7.22397 38.7968C7.1319 39.6585 7.20265 40.2662 7.18674 40.3845C7.15055 40.6536 7.08586 41.3403 7.2122 41.9717C7.27429 42.2821 7.44354 42.8315 7.52453 43.1546C7.60552 43.4778 7.61602 43.5525 7.62143 43.8311C7.63616 44.5896 7.63734 45.1698 7.68475 45.4112C7.76054 45.7969 7.87059 46.1501 7.92342 46.3975C8.02246 46.8612 8.15667 47.2598 8.23098 47.4704C8.24999 47.5243 8.08444 46.7926 7.83018 45.9257C7.68321 45.4247 7.53201 45.033 7.41554 44.6078C7.24851 43.9981 6.82174 43.5338 6.6674 43.2104C6.50457 42.8693 6.34441 42.2223 6.23749 41.7129C6.08234 40.9738 6.25849 40.7421 6.2849 40.4995C6.29138 40.4399 6.29031 40.3865 6.30606 40.311C6.32182 40.2355 6.35332 40.1394 6.3748 40.3461C6.39628 40.5527 6.40678 41.0648 6.43319 41.3873C6.4596 41.7099 6.50161 41.8272 6.75953 42.784C7.01744 43.7407 7.49 45.5332 7.75969 46.5207C8.02938 47.5081 8.08189 47.6361 8.11944 47.7608C8.27205 48.2673 8.42175 48.6831 8.56511 49.0868C8.67138 49.386 8.72979 49.7177 8.77752 49.8746C8.85685 50.1352 9.17466 50.4717 9.2967 50.6341C9.36747 50.7282 9.2609 50.259 8.99757 49.7342C8.79601 49.3326 8.4192 48.676 8.1196 47.9031C7.82 47.1301 7.59947 46.2659 7.42811 45.6873C7.17451 44.831 6.98021 44.4924 6.89557 44.3526C6.75293 44.1169 6.61935 43.9644 6.57162 43.8133C6.55776 43.7694 6.5347 43.7168 6.51863 43.876C6.46509 44.4066 6.50225 44.9001 6.53407 45.1258C6.59448 45.5543 6.68172 46.0079 6.79915 46.4735C6.83005 46.596 6.99962 47.1699 7.21697 48.0049C7.30998 48.3622 7.35094 48.4681 7.3826 48.5969C7.42544 48.7712 7.67775 49.1341 8.04848 49.5703C8.19984 49.7484 8.31419 49.8037 8.4733 49.7567C8.87818 49.637 9.19534 49.2247 9.45469 48.8968C9.58364 48.7338 9.68254 48.5583 9.77864 48.3636C9.87474 48.169 9.95875 47.9556 10.1596 47.1841C10.3603 46.4127 10.6754 45.0896 10.8377 44.2426C11 43.3957 11 43.0649 10.9475 42.6705C10.8343 41.8205 10.6607 41.3128 10.6237 41.2106C10.5912 41.1211 10.5548 41.0431 10.4965 40.9786C10.4684 40.9474 10.4488 40.9141 10.438 42.5461C10.4272 44.1781 10.4272 47.4751 10.4114 49.1629C10.3957 50.8507 10.3642 50.8293 10.3427 50.7863C10.2166 50.5339 10.2789 50.226 10.2206 49.9733C10.1302 49.581 9.99312 49.2256 9.78119 48.8475C9.70136 48.7051 9.57053 48.4839 9.40585 47.9844C9.24117 47.4848 9.04164 46.7166 8.91786 46.3902C8.79407 46.0638 8.75206 46.2025 8.70417 46.4447C8.65628 46.6869 8.60377 47.0283 8.57672 47.4496C8.54967 47.8709 8.54967 48.3617 8.57068 48.6839C8.61399 49.3484 8.71897 49.5347 8.73536 49.8416C8.74703 50.0602 8.55031 50.2461 8.47569 50.3812C8.45901 50.4114 8.42302 50.4297 8.38054 50.4354C8.18261 50.4617 8.04116 50.2473 7.85564 50.0698C7.80616 50.0225 7.76558 49.9783 7.74919 49.9724C7.61407 49.923 7.95524 50.3217 8.16686 51.0789C8.3011 51.5593 8.5694 51.8077 8.7772 52.2769C8.86906 52.4843 8.8889 52.671 8.97354 52.8115C9.02438 52.8959 9.10115 52.941 9.32184 53.1442C9.89953 53.6762 10.395 53.9863 10.4585 54.0617C10.5761 54.2012 10.7448 54.3097 11.0993 54.5623C11.5288 54.8685 12.1233 55.2253 12.3674 55.3711C12.6477 55.5386 13.1187 55.7207 13.3387 55.7599C13.4346 55.777 12.8075 55.4756 12.0503 55.1852C11.4549 54.9569 11.1177 54.7523 10.8483 54.6398C10.4449 54.4713 10.1732 54.2886 9.97801 54.2298C9.38098 54.0498 9.2714 53.944 9.2025 53.9168C9.14667 53.8948 9.1858 54.1363 9.31754 54.4637C9.51866 54.9635 9.89543 55.3433 10.1338 55.5695C10.3663 55.7901 10.543 55.8616 10.7077 55.9426C10.8383 56.0069 11.2195 56.344 11.5349 56.573C11.7491 56.7285 12.0278 56.853 12.3242 56.9716C12.9557 57.2244 13.2262 57.2629 13.5763 57.3866C13.7728 57.456 13.927 57.4783 14.123 57.5324C14.3691 57.6004 14.5844 57.6509 14.7384 57.6888C14.9506 57.7409 15.1884 57.7479 15.3908 57.8018C15.4872 57.8274 15.5712 57.8883 15.5352 57.8883C15.2158 57.8883 14.7257 57.8456 14.0708 57.7116C13.6661 57.6287 13.1219 57.4815 12.8248 57.3994C12.4929 57.3076 12.4323 57.2526 12.395 57.2469C12.3262 57.2365 12.5055 57.4563 12.8374 57.7297C13.0843 57.933 13.5368 58.2058 13.8008 58.3702C14.1324 58.5767 14.277 58.6102 14.5405 58.6744C15.0815 58.8062 15.5072 58.9763 15.7868 59.1158C16.6244 59.5338 16.9176 59.4829 17.1777 59.5477C17.5632 59.6438 18.0205 59.7849 18.3599 59.8871C18.8565 60.0366 19.1661 60.0862 19.6158 60.1887C20.6836 60.4321 20.917 60.4749 21.0974 60.5286C21.3737 60.6107 21.7017 60.6469 21.9722 60.7064C22.2453 60.7665 22.4973 60.7982 22.7464 60.8679C22.9622 60.9282 23.1763 60.9919 23.4297 61.0564C24.1634 61.2432 24.4594 61.0459 24.8359 61.0622C25.066 61.0722 25.2976 61.1319 25.9749 61.1485C26.2446 61.1552 26.475 61.0892 26.6453 61.0195C26.8866 60.9208 27.0166 60.4652 27.0752 60.2762C27.1437 60.055 27.1866 59.8612 27.2607 59.721C27.3624 59.5287 27.3985 59.2799 27.4518 59.053C27.5151 58.7838 27.5792 58.4819 27.6637 58.1697C27.7488 57.8553 27.717 57.5329 27.7067 57.4791C27.6914 57.3993 27.4112 57.4356 26.9466 57.3982C26.6487 57.3743 26.23 57.2862 25.8613 57.2477C25.4927 57.2093 25.1881 57.2093 24.9262 57.2306C24.6643 57.2519 24.4543 57.2946 24.1256 57.3166C23.7969 57.3386 23.3558 57.3386 22.9921 57.3226C22.6284 57.3066 22.3553 57.2746 21.6214 57.2528C20.8874 57.2309 19.7007 57.2203 19.1157 57.2468C18.5307 57.2733 18.5832 57.3373 18.6785 57.4076C18.7738 57.4779 18.9103 57.5526 19.7945 57.8152C20.6786 58.0777 22.3063 58.5259 23.2184 58.7567C24.2694 59.0228 24.4709 58.9982 24.5555 59.0251C24.7366 59.0825 24.9056 59.1059 25.1068 59.0741C25.4152 59.0253 25.7005 58.9126 26.1452 58.5582C26.7009 58.1154 27.0045 57.7402 27.2179 57.3989C27.4053 57.0992 27.6734 57.0159 27.8386 56.9346C27.8725 56.9179 27.9178 56.9396 27.908 56.9611C27.87 57.0439 27.6127 57.0583 26.8594 57.0158C26.2623 56.982 25.2346 56.8452 23.4285 56.8061C21.6225 56.7669 19.0707 56.8096 17.4306 56.7729C15.7905 56.7362 15.1394 56.6189 14.6465 56.5051C14.1535 56.3912 13.8385 56.2845 13.3402 56.1496C12.8418 56.0146 12.1697 55.8545 11.7973 55.7561C11.1731 55.5911 10.7575 55.4316 10.5392 55.3021C10.4966 55.2768 10.4806 55.2376 10.4856 55.1998C10.5141 54.9812 10.9456 54.957 11.4989 54.9246C11.9153 54.9003 12.6089 54.9136 14.1473 55.0523C15.6858 55.191 18.0485 55.4685 19.4338 55.6114C20.819 55.7543 21.155 55.7543 21.4016 55.7756C21.7988 55.81 22.1463 55.905 22.6429 55.9373C22.9395 55.9566 23.3285 55.9483 23.6441 55.9696C23.9598 55.991 24.1908 56.0336 24.2783 56.0556C24.3659 56.0776 24.3028 56.0776 23.4303 55.8482C22.5577 55.6188 20.8775 55.16 19.9385 54.913C18.9994 54.666 18.8524 54.6446 18.5876 54.5749C17.9403 54.4046 17.4923 54.235 17.1448 54.0958C16.8625 53.9827 16.3563 53.8072 15.8656 53.5911C15.3749 53.3749 14.9128 53.1295 14.5698 52.9657C14.2267 52.802 14.0167 52.7273 13.7667 52.6515C12.8808 52.3827 12.6662 52.3057 12.5174 52.2357C12.3452 52.1546 12.1468 52.0263 11.649 51.7138C11.3365 51.5177 11.0757 51.3577 10.9207 51.196C10.8889 51.1628 10.9045 51.11 10.9098 51.072C10.915 51.034 10.9255 51.002 10.9782 50.9642C11.2616 50.7606 11.6663 50.872 12.2227 51.0167C12.3923 51.0608 12.5663 51.1507 13.01 51.3012C13.4538 51.4517 14.1574 51.6758 14.5356 51.8072C14.9138 51.9387 14.9453 51.9707 14.9772 52.0245C15.0092 52.0784 15.0407 52.153 15.0517 52.1595C15.2137 52.2549 14.7047 51.4152 14.5007 51.013C14.4112 50.8364 14.3629 50.508 14.3675 49.8186C14.3725 49.0765 14.9236 48.6423 15.0727 48.4209C15.2049 48.2246 15.4321 47.878 15.5925 47.6394C15.7327 47.4308 15.9629 47.23 16.5663 46.6603C16.8323 46.4091 17.098 46.3027 17.294 46.2701C17.5901 46.2208 17.5652 47.0215 17.6713 47.6767C17.7999 48.471 17.7036 49.0174 17.7407 49.1948C17.7795 49.3806 17.7781 49.8658 17.7676 50.4905C17.7546 51.26 17.6298 52.014 17.5927 52.0947C17.5755 52.1322 17.5661 52.1647 17.5555 52.0478C17.5448 51.9309 17.5343 51.6642 17.6077 51.26C17.681 50.8559 17.8385 50.3224 18.0824 49.7328C18.3264 49.1432 18.6519 48.5137 18.8563 48.1413C19.1186 47.6638 19.3256 47.318 19.5216 46.85C19.6728 46.489 19.7294 46.2597 19.8035 46.1576C19.8656 46.072 20.0358 45.9367 20.2797 45.8447C20.361 45.8141 20.3766 45.9128 20.3873 46.2874C20.398 46.662 20.4085 47.3342 20.4349 47.9419C20.4613 48.5495 20.5033 49.0724 20.5302 49.3684C20.562 49.7183 20.5994 49.8367 20.6417 49.9551C20.6774 50.0548 20.7897 50.4481 20.917 51.099C21.0197 51.624 20.9498 51.9063 20.9181 51.9655C20.8445 52.1031 20.6109 52.0787 20.3782 52.1275C20.0793 52.1902 19.8468 52.101 19.7833 52.0418C19.7248 51.9873 19.6559 51.9393 19.6081 51.8695C19.5119 51.7287 19.5493 51.509 19.6182 51.3253C19.6498 51.2411 19.6556 50.9926 19.6398 50.6534C19.6302 50.4475 19.5496 50.355 19.5337 49.4636C19.5183 48.6043 19.5283 46.9184 19.5283 46.1139C19.5283 45.3095 19.5283 45.4375 19.523 45.5408C19.5139 45.7193 19.3389 45.9238 19.011 46.1658C18.6829 46.408 18.3101 46.5921 18.0345 46.7806C17.8893 46.88 17.6317 47.1191 17.2872 47.5013C16.9324 47.8949 16.6974 48.2624 16.4749 48.4939C16.3822 48.5905 16.3155 48.6294 16.2673 48.5447C16.2191 48.46 16.1876 48.2466 16.1661 47.011C16.1446 45.7754 16.1341 43.5241 16.1445 42.2736C16.1548 41.0231 16.1863 40.8417 16.2183 40.6949C16.2739 40.4395 16.3142 40.2888 16.3405 40.2615C16.3617 40.2395 16.4193 40.3515 16.7141 41.457C17.0089 42.5625 17.5445 44.6964 17.8204 45.8171C18.0963 46.9378 18.0963 46.9804 18.1225 47.0078C18.1488 47.0351 18.2013 47.0457 18.2493 47.0406C18.2974 47.0354 18.3394 47.0141 18.3768 46.9657C18.5602 46.7287 18.5418 46.2833 18.394 45.8942C18.3026 45.6537 18.2662 45.3127 18.2029 44.867C18.1223 44.2997 18.0221 43.8784 17.9852 43.6634C17.9162 43.2612 17.7892 43.0058 17.6414 42.5128C17.536 42.1616 17.4096 41.5931 17.3077 41.2165C17.2059 40.8398 17.1429 40.6691 17.0579 40.3731C16.8546 39.6647 16.7598 39.1788 16.7545 39.0713C16.7398 38.7705 16.8126 38.4245 16.8602 38.3222C16.8924 38.2528 17.0137 38.2515 17.4767 38.1553C17.8772 38.0721 18.6118 37.9098 18.9275 37.7793C19.2431 37.6488 19.1171 37.5528 19.0102 37.482C18.6931 37.272 18.2478 37.2922 17.7847 37.3781C17.5278 37.4257 17.0385 37.1008 16.7763 36.8992C16.5082 36.6931 16.1984 36.4095 15.8753 35.8555C15.7073 35.5676 15.5193 35.2992 15.3655 34.9497C15.2644 34.7201 15.2641 34.4802 15.2904 34.3347C15.3003 34.2794 15.3691 34.2853 15.4119 34.2906C15.4547 34.2959 15.4862 34.3066 15.513 34.3388C15.5397 34.3709 15.5607 34.4243 15.7133 34.6758C15.8659 34.9274 16.1494 35.3755 16.4162 35.7184C16.8844 36.32 17.247 36.5589 17.3793 36.6396C17.5704 36.756 17.8188 36.9353 18.2274 37.1889C18.5333 37.3788 18.7741 37.5716 19.5358 37.9751C19.7974 38.1137 20.1307 38.2072 20.8848 38.4703C21.4102 38.6535 22.2586 38.8293 22.7754 38.9444C23.2922 39.0595 23.4602 39.0809 23.7778 39.1559C24.0954 39.2309 24.5574 39.3589 24.7009 39.4836C24.8445 39.6082 24.6554 39.7256 24.18 39.8874C23.7046 40.0492 22.9485 40.252 22.328 40.3937C21.7074 40.5355 21.2454 40.6102 20.1988 40.6167C19.1521 40.6231 17.5349 40.5591 16.3395 40.4461C15.1442 40.3331 14.4196 40.1731 13.852 40.0266C13.2845 39.8801 12.8959 39.7521 12.5645 39.6061C12.2331 39.4601 11.9705 39.3001 11.6725 39.0896C11.0367 38.6405 10.6296 38.2525 10.4655 38.0642C10.331 37.9097 10.1942 37.7995 10.1148 37.6383C9.91971 37.2422 10.0555 36.7762 10.0615 36.6027C10.0753 36.2079 9.43114 37.2689 9.21428 37.7677C9.0762 38.0852 8.98691 38.5758 8.9169 38.9352C8.80401 39.5147 8.82525 39.9202 8.89383 40.2269C8.95109 40.483 9.17466 40.6219 9.37546 40.7402C9.61813 40.8832 10.0113 40.8705 10.7234 40.7156C11.2238 40.6068 11.9712 40.294 12.4867 40.0657C13.2771 39.7158 13.6189 39.3948 13.8043 39.196C13.8931 39.1007 13.9371 38.9865 14.0482 38.6381C14.1593 38.2897 14.3273 37.7028 14.4663 37.3205C14.6698 36.7611 14.8396 36.5705 14.8714 36.5486C14.8905 36.5354 14.8823 36.6546 14.7982 37.1947C14.7142 37.7348 14.5462 38.7271 14.4649 39.5317C14.3836 40.3364 14.3941 40.9232 14.41 41.2895C14.4315 41.7848 14.5526 42.1505 14.6956 42.6076C14.7643 42.827 14.7862 43.0326 14.7971 43.4625C14.8081 43.8923 14.7976 44.5432 14.5822 45.6414C14.3667 46.7396 13.9467 48.2653 13.7145 49.1847C13.4824 50.1041 13.4509 50.3709 13.3717 50.679C13.2924 50.9871 13.1664 51.3286 13.0857 51.5151C13.0051 51.7017 12.9736 51.723 12.9153 50.0055C12.8571 48.288 12.7731 44.8309 12.7193 43.0127C12.6655 41.1945 12.6445 41.1198 12.6337 41.06C12.6229 41.0001 12.6229 40.9575 12.6229 41.9865C12.6229 43.0155 12.6229 45.1174 12.6912 46.531C12.7594 47.9446 12.8959 48.6061 13.003 49.0429C13.1588 49.6786 13.3223 49.9551 13.4336 50.0791C13.4749 50.1252 13.5133 50.107 14.4274 49.376C15.3414 48.6449 17.1372 47.1938 18.4245 46.0568C19.7119 44.9199 20.4365 44.141 20.9095 43.665C21.3825 43.1891 21.5821 43.0397 21.8214 42.84C22.0607 42.6404 22.3337 42.395 22.8892 41.9965C23.4446 41.598 24.2742 41.0538 24.7173 40.7522C25.2018 40.4223 25.3294 40.2571 25.4518 40.1008C25.4941 40.0467 25.2149 40.1369 24.7407 40.3672C24.3764 40.5442 23.7415 40.8003 23.1439 41.1031C22.5463 41.4059 22.0002 41.7367 21.6716 41.9498C21.2375 42.2313 20.9517 42.4642 20.5916 42.6849C20.3251 42.8482 19.9445 42.9498 19.4524 43.1215C19.2042 43.2081 18.9918 43.3786 18.8729 43.3168C18.754 43.255 18.7435 42.9776 18.7539 42.7974C18.7687 42.5393 19.1117 42.1667 19.6253 41.6767C19.842 41.47 20.0234 41.4108 20.3305 41.3136C20.6376 41.2165 21.0786 41.0991 21.4109 41.0493C21.948 40.9688 22.3585 41.1068 22.6712 41.2732C22.9329 41.4125 22.9119 41.7425 22.9226 41.9999C22.9403 42.4277 22.8594 42.8518 22.759 43.1584C22.7099 43.3083 22.6271 43.4329 22.4895 43.7229C22.3518 44.0129 22.1523 44.4611 22.0285 44.7666C21.8468 45.2152 21.767 45.4821 21.6349 45.7292C21.329 46.3013 21.1627 46.5918 20.9768 46.8458C20.8545 47.013 20.7588 47.1534 20.7272 47.2072C20.7117 47.2335 20.6745 47.2397 20.7108 47.1385C20.7471 47.0373 20.8521 46.8239 21.2737 46.2019C21.6954 45.5798 22.4304 44.5555 22.8931 43.9478C23.3558 43.3401 23.5238 43.18 23.9937 42.8255C24.4636 42.471 25.2301 41.9268 25.6828 41.5931C26.2612 41.1668 26.475 40.9788 26.6656 40.8498C26.9671 40.6458 27.1751 40.4188 27.3189 40.2298C27.4972 39.9957 27.6002 39.6642 27.6956 39.4165C27.7544 39.2635 27.8644 38.7407 28.0606 38.0621C28.1911 37.6105 28.2367 37.3258 28.3425 36.9757C28.4379 36.66 28.5651 36.4955 28.946 36.2102C29.2196 36.0053 29.6235 35.7532 29.8699 35.5574C29.9862 35.4651 30.1034 35.3529 30.1883 35.1966C30.2823 35.0236 30.3579 34.7605 30.3848 34.5394C30.4207 34.2442 30.4534 33.8559 30.4803 33.4567C30.4922 33.2796 30.5597 33.1543 30.6022 32.9711C30.6123 32.9275 30.6233 32.8956 30.6603 32.9378C30.9015 33.2136 30.9619 33.561 31.1317 33.9705C31.5193 34.9055 31.6836 34.9746 31.848 35.1896C31.9473 35.3195 32.013 35.4166 32.0394 35.4811C32.2553 36.0082 33.5296 35.9129 33.5406 35.9072C33.8231 35.7617 32.7064 36.3209 32.2318 36.5317C31.8644 36.6949 31.3361 37.2263 31.0752 37.3619C30.8613 37.4731 30.7093 37.5502 30.5446 37.6422C30.4215 37.7109 30.1276 37.9052 29.0946 38.2717C28.8871 38.3454 28.8216 38.3482 28.3848 38.3644C27.9481 38.3805 27.1395 38.4019 26.6757 38.4075C25.924 38.4167 25.6076 38.2732 25.4476 38.2032C25.4148 38.1888 25.3842 38.1762 25.3784 38.1387C25.3629 38.0372 25.7304 37.7685 26.2445 37.4506C26.6506 37.1995 26.9944 37.0562 27.1598 36.9584C27.2213 36.9221 26.9457 36.9786 26.3165 37.1829C25.9749 37.2939 25.5719 37.3659 25.2298 37.4312C24.8877 37.4966 24.6147 37.5392 24.1695 37.5399C23.7243 37.5405 23.1153 37.4978 22.7542 37.4865C22.2988 37.4723 22.0123 37.5185 21.6734 37.5079C21.2062 37.4932 20.8559 37.2819 20.4896 37.217C20.1693 37.1604 19.9012 37.0665 19.6829 36.9692C19.6142 36.9475 19.5092 36.9262 19.2766 36.8672C19.0439 36.8082 18.6869 36.7122 18.2872 36.5809" stroke="#008ABD" stroke-opacity="0.4" stroke-width="3" stroke-linecap="round"/>
<path d="M38.5285 38.7611C38.0716 38.8938 37.7274 39.0063 36.9261 39.2447C36.2367 39.4497 34.9607 39.7815 34.2506 39.958C33.4374 40.1601 33.2108 40.1898 32.9698 40.2956C32.4916 40.5057 32.1677 40.6135 31.7332 40.8316C31.4298 40.9838 31.2433 41.1167 31.1112 41.1783C30.9748 41.242 30.7389 41.384 30.4853 41.5019C30.2921 41.5917 30.0571 41.7307 29.6417 41.936C28.9066 42.2994 28.4298 42.624 28.3095 42.7352C27.9788 43.0408 27.8252 43.1154 27.8085 43.1712C27.7939 43.22 28.0104 43.2163 28.3986 43.1665C29.0486 43.0832 29.5055 42.8706 29.6916 42.7428C29.9588 42.5593 30.339 42.2465 30.7399 41.9842C31.0129 41.8056 31.209 41.8208 31.3465 41.826C31.5873 41.835 31.7253 42.2328 31.781 42.4339C31.8566 42.7071 31.8143 43.1151 31.7703 43.3327C31.7331 43.5163 31.7154 43.7402 31.6442 43.9301C31.5341 44.2237 31.3422 44.3766 31.2429 44.5499C31.1586 44.6972 30.9795 44.7678 30.8747 44.8628C30.8537 44.8819 30.8905 44.9239 30.9235 44.9521C31.0536 45.0631 31.2525 45.0472 31.4617 45.0531C31.5063 45.0543 31.5387 45.0365 31.5337 45.0087C31.5003 44.821 31.3092 44.7685 31.1772 44.7015C30.9752 44.599 30.454 44.5119 30.0953 44.428C29.6507 44.324 29.0021 44.4329 28.8364 44.4722C28.6577 44.5147 28.4964 44.6787 28.3256 44.7513C28.1224 44.8376 27.9577 44.8241 27.7871 44.8908C27.6126 44.959 27.419 45.0579 27.2049 45.1921C27.0415 45.2944 26.9462 45.4264 26.8254 45.4994C26.6865 45.5834 26.5401 45.7058 26.2326 45.9119C25.993 46.0727 25.6288 46.3744 25.3039 46.6489C25.1297 46.7961 25.0453 47.0229 24.9133 47.185C24.8753 47.2316 24.8475 47.3016 24.9177 47.1976C25.405 46.4758 25.5273 46.1654 25.6542 45.9081C25.7543 45.7053 25.8458 45.2844 26.0495 44.9424C26.166 44.7469 26.2532 44.5682 26.2699 44.3949C26.2848 44.2397 26.3521 44.0989 26.396 44.0649C26.6794 43.8452 26.4405 44.8891 26.2933 45.5719C26.1879 46.0607 25.9394 46.8185 25.7727 47.3165C25.6061 47.8144 25.5082 48.0244 25.4196 48.2598C25.2379 48.743 25.1439 49.1881 25.089 49.4727C25.0301 49.7778 25.0011 50.1602 24.935 50.3172C24.9194 50.3543 24.8805 50.384 24.7712 50.2629C24.4404 49.8963 24.1885 49.3375 24.0401 48.9525C23.9416 48.6969 23.8802 48.5095 23.8304 48.3033C23.8108 48.222 23.8248 48.0981 23.8248 48.0852C23.8248 47.6933 23.5729 49.0099 23.386 49.3893C23.1829 49.8016 23.0343 49.9927 22.6835 50.483C22.3595 50.9357 22.3413 51.198 22.2865 51.4169C22.2412 51.5982 22.1659 51.8465 22.138 52.0198C22.1317 52.0591 22.1217 52.0923 22.1651 52.1094C22.5446 52.259 23.1846 51.7822 23.4561 51.7021C23.6273 51.6516 23.8235 51.9805 23.9892 52.1758C24.1345 52.3471 24.0886 52.7164 24.1158 53.0122C24.1413 53.2898 24.593 53.2319 24.7583 53.2597C25.0846 53.3146 25.549 53.4101 25.7361 53.4495C26.1055 53.5272 26.4497 53.6004 26.6648 53.6615C26.8794 53.7225 27.055 53.7679 27.2144 53.8012C27.3764 53.8351 27.6583 53.8684 27.8738 53.924C27.9438 53.942 28.2181 54.0017 28.6569 54.1188C29.2611 54.2799 29.6799 54.3373 30.0096 54.3152C30.1235 54.3076 30.1217 54.2489 30.0836 54.193C29.9892 54.0543 29.4993 53.7813 28.7916 53.3966C28.4789 53.2266 28.2471 53.1334 27.9989 52.9938C27.4766 52.6999 27.1335 52.4066 26.9581 52.2505C26.5663 51.9018 26.1332 51.5691 25.9684 51.3624C25.7884 51.1368 25.6822 50.8657 25.6656 50.7201C25.6473 50.5601 25.5833 50.3853 25.583 49.7397C25.5828 49.3873 25.6598 49.1238 25.7805 48.2135C25.8506 47.6847 25.8029 46.785 25.8138 46.2962C25.8287 45.6266 25.9341 45.3614 26.006 45.1264C26.0706 44.9151 26.0884 44.7578 26.1105 44.6181C26.1409 44.4258 26.3297 44.2888 26.4235 44.1269C26.4925 44.0077 26.6264 43.9204 26.7366 43.7306C26.9401 43.3798 27.5931 43.1171 27.9115 42.9044C28.0893 42.7857 28.2854 42.6585 28.6025 42.5306C29.1016 42.3292 29.5817 42.201 29.8397 42.0616C30.1356 41.9018 30.4494 41.6546 30.8238 41.2748C31.0992 40.9953 31.3732 40.6048 31.5936 40.4197C31.721 40.3127 31.8683 40.0916 32.0058 39.8449C32.0613 39.7454 32.3939 39.611 33.1376 39.3328C33.6131 39.1549 34.3165 38.9882 34.7133 38.8749C35.3636 38.689 35.7019 38.3042 36.1367 38.0975C36.3753 37.9842 36.5828 37.9461 37.0624 37.7967C37.4795 37.6669 38.2384 37.3931 38.6579 37.2399C39.2843 37.011 39.5387 36.8746 39.7093 36.824C39.8543 36.781 40.0985 36.7292 40.445 36.6011C40.6325 36.5317 40.8567 36.5061 41.0883 36.4277C41.2258 36.3812 41.4066 36.3165 41.572 36.2545C41.8316 36.1572 42.1979 36.1483 42.4723 36.0762C42.5817 36.0474 42.7451 36.015 42.8564 36.0201C42.9677 36.0251 43.0221 36.0693 43.0664 36.1308C43.2589 36.3976 43.2535 36.7278 43.3963 37.2851C43.4429 37.4672 43.4955 37.6433 43.5285 38.1426C43.5534 38.5196 43.5397 39.1504 43.5288 39.5136C43.5098 40.1491 43.3208 40.5901 43.2268 40.9704C43.1133 41.4298 43.024 41.7846 42.9301 42.1375C42.8291 42.5168 42.7926 42.6904 42.7158 42.9029C42.6527 43.0776 42.4853 43.2156 42.3151 43.4332C42.1581 43.6337 41.8926 43.7402 41.7434 43.8857C41.5751 44.0499 41.3756 44.1756 41.1777 44.3712C41.0457 44.5017 40.9246 44.6225 40.8038 44.6955C40.662 44.7812 40.4855 44.8904 40.3149 45.0469C40.1663 45.1831 40.0015 45.3259 39.8534 45.4545C39.7873 45.5118 39.7266 45.5607 39.6936 45.6386C39.6757 45.681 39.6824 45.7386 39.7042 45.7837C39.7259 45.8287 39.7694 45.8619 39.7973 45.8955C39.8252 45.9292 39.836 45.9624 39.7981 45.9297C39.7602 45.897 39.6732 45.7976 39.4271 45.575C38.7888 44.9977 38.3419 44.6235 38.2926 44.5566C38.1782 44.4015 37.9041 44.1227 37.6829 43.9202C37.5498 43.7984 37.3648 43.6524 37.1721 43.5182C36.9595 43.3702 36.7601 43.239 36.6169 43.1829C36.4474 43.1165 36.2109 43.0153 35.9252 42.9541C35.6513 42.8955 35.4961 42.8371 35.1676 42.7867C34.5613 42.6936 34.2671 42.6133 33.7991 42.5522C33.4327 42.5043 32.9573 42.557 32.8969 42.6461C32.7922 42.8008 32.7921 42.9476 32.7593 43.1096C32.7443 43.1839 32.7262 43.2936 32.7479 43.4109C32.7562 43.4557 32.8132 43.4507 32.8628 43.4231C33.0896 43.2968 33.4811 43.0836 34.295 42.882C34.5901 42.8088 34.7036 42.5805 35.0051 42.4686C35.4573 42.3008 35.9221 41.9889 36.4005 41.6432C36.5503 41.535 36.8228 41.2533 37.316 40.8299C37.8018 40.4129 38.2414 40.2022 38.5753 40.0685C38.9954 39.9004 39.3844 39.8555 39.6366 39.7724C39.9277 39.6765 40.1206 39.3647 40.4926 39.2256C41.4366 38.8724 41.7258 38.7953 41.8687 38.7112C42.115 38.5663 42.2536 38.3706 42.303 38.3149C42.3278 38.287 42.3198 38.2372 42.3307 38.1868C42.3541 38.0786 41.8636 38.4 41.0016 39.0413C40.4954 39.418 40.2877 39.7754 40.1558 40.2203C39.9789 40.8172 40.0892 41.3722 40.0563 41.7561C39.9895 42.5332 39.9462 42.7788 39.8916 43.0257C39.859 43.173 39.6831 43.2384 39.5189 43.2719C39.2937 43.3178 38.97 43.2611 38.5973 43.1945C38.2148 43.1261 37.9035 42.9047 37.6621 42.6654C37.4237 42.4289 37.3529 42.1564 37.3199 41.9561C37.2802 41.7146 37.3196 41.5196 37.3905 41.3696C37.5118 41.1127 37.7802 40.917 38.4563 40.6614C39.01 40.4521 40.0464 40.2511 40.6276 40.1203C41.4682 39.9311 41.6704 39.8893 41.9615 39.9163C42.1851 39.937 42.2427 40.2564 42.2811 40.5341C42.3465 41.007 42.2981 41.3843 42.2053 41.5679C42.1342 41.674 42.0146 41.8067 41.904 41.8971C41.7934 41.9876 41.6954 42.0318 41.5616 42.0774" stroke="#008ABD" stroke-opacity="0.4" stroke-width="3" stroke-linecap="round"/>
<path d="M45.6463 40.8203C45.6306 40.8751 45.7078 41.0957 45.9718 41.4864C46.0612 41.6188 46.2359 41.8766 46.4302 42.2711C46.5107 42.4344 46.5168 42.5405 46.5209 43.1013C46.525 43.662 46.5173 44.6788 46.5056 45.2377C46.4939 45.7967 46.4785 45.8671 46.4668 46.0442C46.455 46.2212 46.4473 46.5028 46.3933 46.8277C46.3393 47.1526 46.2392 47.5124 46.1838 47.7212C46.1163 47.9758 46.0897 48.0879 46.0508 48.2061C46.018 48.3061 45.9502 48.6934 45.7913 49.3398C45.7143 49.6534 45.594 49.9237 45.4423 50.1899C45.2905 50.456 45.0981 50.7063 44.9489 50.8743C44.7161 51.1366 44.535 51.2637 44.4148 51.3703C44.1587 51.5971 43.8273 51.7382 43.6106 51.8091C42.9882 52.0126 42.8322 51.9989 42.5103 52.0148C42.2155 52.0294 42.0162 52.0857 41.8756 52.1371C41.7511 52.1826 41.8054 52.417 41.6969 52.5948C41.5437 52.8458 41.4326 52.9858 41.2151 53.152C41.1697 53.1866 41.1448 53.1996 41.1367 53.1646C41.1096 53.0468 41.1751 52.7595 41.2218 52.1817C41.2525 51.8003 41.2376 51.2363 41.2261 50.8327C41.208 50.2017 41.1676 49.8749 41.1753 49.7053C41.1864 49.4607 41.2605 49.1961 41.3112 48.9585C41.3914 48.5831 41.5637 48.4685 41.6997 48.3103C41.7667 48.2324 41.8513 48.1599 41.9676 48.0851C42.1056 47.9964 42.4247 47.7662 42.8327 47.4939C43.2055 47.2451 43.4993 47.0303 43.663 46.8961C43.7367 46.8356 44.0342 46.5819 44.4345 46.2069C44.7368 45.9236 44.8373 45.5538 44.8919 45.344C44.9885 44.9727 44.9852 44.6446 45.0628 44.4984C45.1011 44.4262 45.1408 44.3678 45.164 44.3126C45.1751 44.2862 45.2026 44.273 45.2106 44.7108C45.2187 45.1485 45.211 46.0401 45.1762 46.605C45.1415 47.1699 45.0799 47.3811 45.0135 47.5681C44.9472 47.7551 44.8779 47.9115 44.7614 48.1016C44.5027 48.5237 44.2243 48.8302 44.0612 49.0076C43.7787 49.315 43.5786 49.7223 43.5045 49.9836C43.4836 50.0569 43.4312 50.1408 43.3959 50.2281C43.3605 50.3155 43.3374 50.4015 43.6257 50.3598C43.9141 50.3181 44.5145 50.146 44.9392 50.0105C45.364 49.8749 45.5949 49.781 45.8063 49.6584C46.0176 49.5357 46.2024 49.3871 46.3899 49.205C46.5774 49.0229 46.7622 48.8117 46.9035 48.6169C47.0449 48.422 47.1373 48.25 47.2734 47.825C47.4095 47.4001 47.5865 46.7274 47.6816 46.3614C47.8031 45.8933 47.8156 45.7823 47.8619 45.5892C47.8859 45.489 47.9467 45.3267 47.9744 45.5237C48.0022 45.7206 48.0022 46.2838 47.9868 46.7225C47.9714 47.1612 47.9406 47.4584 47.8978 47.721C47.855 47.9836 47.8011 48.2026 47.5963 48.6243C47.3915 49.0461 47.0374 49.664 46.7396 50.1152C46.4417 50.5665 46.2108 50.8324 46.0302 51.0046C45.6198 51.396 45.4527 51.4377 45.2853 51.509C45.1723 51.5801 45.0713 51.6512 45.0168 51.6633C45.0008 51.652 45.0085 51.605 45.0165 51.5567" stroke="#008ABD" stroke-opacity="0.4" stroke-width="3" stroke-linecap="round"/>
</svg>
