<svg width="67" height="83" viewBox="0 0 67 83" fill="none" xmlns="http://www.w3.org/2000/svg">
<path d="M6.07207 49.5C3.0707 44.5849 1.48828 38.935 1.50007 33.176C1.50007 15.68 15.8281 1.5 33.5001 1.5C51.1721 1.5 65.5001 15.68 65.5001 33.176C65.5119 38.935 63.9294 44.5849 60.9281 49.5" stroke="#008ABD" stroke-width="3" stroke-linecap="round"/>
<path d="M45.4995 69.5L44.9795 72.088C44.4195 74.916 44.1355 76.328 43.4995 77.448C42.5195 79.1742 40.9327 80.4744 39.0475 81.096C37.8275 81.5 36.3795 81.5 33.4995 81.5C30.6195 81.5 29.1715 81.5 27.9515 81.1C26.0657 80.4775 24.4788 79.1757 23.4995 77.448C22.8635 76.328 22.5795 74.916 22.0195 72.088L21.4995 69.5M15.0315 61.892C14.6635 60.788 14.4795 60.232 14.4995 59.784C14.5221 59.3208 14.6785 58.874 14.9497 58.4978C15.2209 58.1216 15.5952 57.832 16.0275 57.664C16.4435 57.5 17.0275 57.5 18.1875 57.5H48.8115C49.9755 57.5 50.5555 57.5 50.9715 57.66C51.4044 57.8282 51.7792 58.1184 52.0504 58.4955C52.3216 58.8725 52.4776 59.3201 52.4995 59.784C52.5195 60.232 52.3355 60.784 51.9675 61.892C51.2875 63.936 50.9475 64.96 50.4235 65.788C49.3275 67.5184 47.6095 68.7626 45.6235 69.264C44.6715 69.5 43.5995 69.5 41.4515 69.5H25.5475C23.3995 69.5 22.3235 69.5 21.3755 69.26C19.3902 68.7595 17.6723 67.5169 16.5755 65.788C16.0515 64.96 15.7115 63.936 15.0315 61.892Z" stroke="#008ABD" stroke-width="3"/>
<path d="M18.5 32.5L27.5 41.5V57.5M48.5 32.5L39.5 41.5V57.5M18.5 35.5C19.2956 35.5 20.0587 35.1839 20.6213 34.6213C21.1839 34.0587 21.5 33.2956 21.5 32.5C21.5 31.7044 21.1839 30.9413 20.6213 30.3787C20.0587 29.8161 19.2956 29.5 18.5 29.5C17.7044 29.5 16.9413 29.8161 16.3787 30.3787C15.8161 30.9413 15.5 31.7044 15.5 32.5C15.5 33.2956 15.8161 34.0587 16.3787 34.6213C16.9413 35.1839 17.7044 35.5 18.5 35.5ZM48.5 35.5C47.7044 35.5 46.9413 35.1839 46.3787 34.6213C45.8161 34.0587 45.5 33.2956 45.5 32.5C45.5 31.7044 45.8161 30.9413 46.3787 30.3787C46.9413 29.8161 47.7044 29.5 48.5 29.5C49.2956 29.5 50.0587 29.8161 50.6213 30.3787C51.1839 30.9413 51.5 31.7044 51.5 32.5C51.5 33.2956 51.1839 34.0587 50.6213 34.6213C50.0587 35.1839 49.2956 35.5 48.5 35.5Z" stroke="#008ABD" stroke-width="3" stroke-linecap="round" stroke-linejoin="round"/>
</svg>
