<svg width="80" height="80" viewBox="0 0 80 80" fill="none" xmlns="http://www.w3.org/2000/svg">
<path d="M56.872 72.1234C52.7014 72.1234 49.1311 70.6366 46.1611 67.6631C43.1912 64.6896 41.7062 61.1151 41.7062 56.9395C41.7062 52.7639 43.1912 49.1894 46.1611 46.2159C49.1311 43.2424 52.7014 41.7556 56.872 41.7556C61.0427 41.7556 64.613 43.2424 67.5829 46.2159C70.5529 49.1894 72.0379 52.7639 72.0379 56.9395C72.0379 58.3946 71.8483 59.7713 71.4692 61.0695C71.09 62.3677 70.5529 63.585 69.8578 64.7212L78.8626 73.6418C79.2417 73.9581 79.5261 74.3541 79.7156 74.8299C79.9052 75.3056 80 75.7953 80 76.2989C80 76.8025 79.9052 77.277 79.7156 77.7224C79.5261 78.1678 79.2417 78.579 78.8626 78.9561C78.5466 79.2724 78.1523 79.5255 77.6796 79.7153C77.2069 79.9051 76.7166 80 76.2085 80C75.7005 80 75.2265 79.9051 74.7867 79.7153C74.3469 79.5255 73.9362 79.2724 73.5545 78.9561L64.5498 70.0356C63.4123 70.7315 62.1965 71.2541 60.9024 71.6033C59.6082 71.9526 58.2648 72.1259 56.872 72.1234ZM15.1659 72.1234C10.9953 72.1234 7.42496 70.6366 4.45498 67.6631C1.48499 64.6896 0 61.1151 0 56.9395C0 52.7639 1.48499 49.1894 4.45498 46.2159C7.42496 43.2424 10.9953 41.7556 15.1659 41.7556C19.3365 41.7556 22.9068 43.2424 25.8768 46.2159C28.8468 49.1894 30.3318 52.7639 30.3318 56.9395C30.3318 61.1151 28.8468 64.6896 25.8768 67.6631C22.9068 70.6366 19.3365 72.1234 15.1659 72.1234ZM56.872 64.5314C58.9573 64.5314 60.7431 63.7887 62.2294 62.3032C63.7156 60.8177 64.4575 59.0298 64.455 56.9395C64.4524 54.8492 63.7106 53.0626 62.2294 51.5796C60.7482 50.0966 58.9624 49.3526 56.872 49.3476C54.7817 49.3425 52.9972 50.0865 51.5185 51.5796C50.0398 53.0727 49.2967 54.8593 49.2891 56.9395C49.2815 59.0197 50.0246 60.8076 51.5185 62.3032C53.0123 63.7988 54.7968 64.5416 56.872 64.5314ZM15.1659 30.3677C10.9953 30.3677 7.42496 28.881 4.45498 25.9075C1.48499 22.934 0 19.3594 0 15.1839C0 11.0083 1.48499 7.43377 4.45498 4.46026C7.42496 1.48675 10.9953 0 15.1659 0C19.3365 0 22.9068 1.48675 25.8768 4.46026C28.8468 7.43377 30.3318 11.0083 30.3318 15.1839C30.3318 19.3594 28.8468 22.934 25.8768 25.9075C22.9068 28.881 19.3365 30.3677 15.1659 30.3677ZM56.872 30.3677C52.7014 30.3677 49.1311 28.881 46.1611 25.9075C43.1912 22.934 41.7062 19.3594 41.7062 15.1839C41.7062 11.0083 43.1912 7.43377 46.1611 4.46026C49.1311 1.48675 52.7014 0 56.872 0C61.0427 0 64.613 1.48675 67.5829 4.46026C70.5529 7.43377 72.0379 11.0083 72.0379 15.1839C72.0379 19.3594 70.5529 22.934 67.5829 25.9075C64.613 28.881 61.0427 30.3677 56.872 30.3677Z" fill="#008ABD"/>
</svg>
