<svg width="80" height="80" viewBox="0 0 80 80" fill="none" xmlns="http://www.w3.org/2000/svg">
<path d="M53.3333 80L26.6667 70.6667L6 78.6667C4.51852 79.2593 3.14815 79.0933 1.88889 78.1689C0.629629 77.2444 0 76.003 0 74.4445V12.2222C0 11.2593 0.278518 10.4074 0.835555 9.66667C1.39259 8.92593 2.15111 8.37037 3.11111 8L26.6667 0L53.3333 9.33333L74 1.33333C75.4815 0.740741 76.8519 0.908149 78.1111 1.83556C79.3704 2.76296 80 4.00296 80 5.55556V67.7778C80 68.7407 79.723 69.5926 79.1689 70.3333C78.6148 71.0741 77.8548 71.6296 76.8889 72L53.3333 80ZM48.8889 69.1111V17.1111L31.1111 10.8889V62.8889L48.8889 69.1111ZM57.7778 69.1111L71.1111 64.6667V12L57.7778 17.1111V69.1111ZM8.88889 68L22.2222 62.8889V10.8889L8.88889 15.3333V68Z" fill="#008ABD"/>
</svg>
