<svg width="80" height="80" viewBox="0 0 80 80" fill="none" xmlns="http://www.w3.org/2000/svg">
<path d="M35.825 14.9969H48.35L62.0859 1.23368C62.474 0.842766 62.9357 0.532492 63.4445 0.320753C63.9533 0.109014 64.499 0 65.0501 0C65.6013 0 66.147 0.109014 66.6557 0.320753C67.1645 0.532492 67.6263 0.842766 68.0144 1.23368L78.7859 12.0357C79.5635 12.8171 80 13.8742 80 14.976C80 16.0778 79.5635 17.1349 78.7859 17.9163L69.2251 27.5089H35.825V35.8502C35.825 36.9563 35.3851 38.0171 34.6021 38.7993C33.8192 39.5814 32.7572 40.0209 31.65 40.0209C30.5427 40.0209 29.4807 39.5814 28.6978 38.7993C27.9148 38.0171 27.4749 36.9563 27.4749 35.8502V23.3382C27.4749 21.1259 28.3547 19.0043 29.9206 17.44C31.4865 15.8757 33.6104 14.9969 35.825 14.9969ZM10.7749 35.8502V52.5328L1.21407 62.0837C0.436464 62.8651 0 63.9222 0 65.024C0 66.1258 0.436464 67.1829 1.21407 67.9643L11.9856 78.7663C12.3737 79.1572 12.8355 79.4675 13.3443 79.6793C13.853 79.891 14.3987 80 14.9499 80C15.501 80 16.0467 79.891 16.5555 79.6793C17.0643 79.4675 17.526 79.1572 17.9141 78.7663L35.825 60.8742H52.5251C53.6323 60.8742 54.6943 60.4348 55.4772 59.6526C56.2602 58.8705 56.7001 57.8096 56.7001 56.7035V52.5328H60.8751C61.9824 52.5328 63.0443 52.0934 63.8273 51.3113C64.6103 50.5291 65.0501 49.4683 65.0501 48.3622V44.1915H69.2251C70.3324 44.1915 71.3944 43.7521 72.1773 42.97C72.9603 42.1878 73.4002 41.127 73.4002 40.0209V35.8502H44.175V40.0209C44.175 42.2331 43.2953 44.3548 41.7293 45.9191C40.1634 47.4834 38.0395 48.3622 35.825 48.3622H27.4749C25.2604 48.3622 23.1365 47.4834 21.5706 45.9191C20.0046 44.3548 19.1249 42.2331 19.1249 40.0209V27.5089L10.7749 35.8502Z" fill="#008ABD"/>
</svg>
