<svg width="69" height="80" viewBox="0 0 69 80" fill="none" xmlns="http://www.w3.org/2000/svg">
<path d="M34.2857 0L0 11.4286V45.7143C0 64.6518 15.3482 80 34.2857 80C53.2232 80 68.5714 64.6518 68.5714 45.7143V11.4286L34.2857 0ZM62.1429 45.7143C62.1429 61.0982 49.6696 73.5714 34.2857 73.5714C18.9018 73.5714 6.42857 61.0982 6.42857 45.7143V16.25L34.2857 6.42857L62.1429 16.25V45.7143Z" fill="#008ABD"/>
<path d="M22.3585 36.6948C22.0606 36.3955 21.7065 36.158 21.3166 35.996C20.9266 35.8339 20.5085 35.7505 20.0862 35.7505C19.6639 35.7505 19.2458 35.8339 18.8559 35.996C18.4659 36.158 18.1118 36.3955 17.8139 36.6948C17.5146 36.9927 17.2771 37.3468 17.1151 37.7367C16.953 38.1267 16.8696 38.5448 16.8696 38.9671C16.8696 39.3894 16.953 39.8075 17.1151 40.1974C17.2771 40.5874 17.5146 40.9415 17.8139 41.2394L29.3675 52.793L29.555 52.9805C29.8368 53.2628 30.1715 53.4868 30.5399 53.6396C30.9084 53.7924 31.3034 53.8711 31.7023 53.8711C32.1012 53.8711 32.4962 53.7924 32.8646 53.6396C33.2331 53.4868 33.5678 53.2628 33.8496 52.9805L53.805 33.0251C54.0873 32.7433 54.3113 32.4086 54.4641 32.0401C54.6169 31.6717 54.6956 31.2767 54.6956 30.8778C54.6956 30.4789 54.6169 30.0839 54.4641 29.7154C54.3113 29.347 54.0873 29.0123 53.805 28.7305L53.555 28.4805C53.2732 28.1981 52.9384 27.9742 52.57 27.8213C52.2015 27.6685 51.8065 27.5898 51.4076 27.5898C51.0087 27.5898 50.6138 27.6685 50.2453 27.8213C49.8768 27.9742 49.5421 28.1981 49.2603 28.4805L31.6978 46.034L22.3585 36.6948Z" fill="#008ABD"/>
</svg>
