<svg width="78" height="80" viewBox="0 0 78 80" fill="none" xmlns="http://www.w3.org/2000/svg">
<path fill-rule="evenodd" clip-rule="evenodd" d="M70.8359 32.72C69.6023 20 62.1207 0 38.9997 0C15.8785 0 8.39687 20 7.16327 32.72C2.83552 34.371 -0.0191173 38.5473 9.63954e-05 43.2V48.8C9.63954e-05 54.9856 4.98895 60 11.1428 60C17.2967 60 22.2856 54.9855 22.2856 48.8V43.2C22.2655 38.6477 19.5158 34.5572 15.3213 32.84C16.1172 25.4799 20.0173 8.00006 38.9997 8.00006C57.9821 8.00006 61.8422 25.4799 62.6382 32.84C58.4522 34.5609 55.7164 38.6542 55.7138 43.2V48.8C55.7223 50.9075 56.3201 52.97 57.4389 54.7524C58.5577 56.5347 60.1525 57.965 62.0412 58.88C60.3698 62.04 56.1117 66.32 45.6454 67.5999C43.5533 64.4068 39.5056 63.1479 35.9848 64.5956C32.4642 66.0431 30.4546 69.7925 31.1888 73.544C31.9231 77.2955 35.1957 80 38.9997 80C40.4736 79.9917 41.9163 79.5722 43.167 78.7883C44.4177 78.0043 45.4273 76.8867 46.0832 75.56C63.1554 73.5999 68.6075 64.76 70.3186 59.5599C74.948 58.0526 78.0616 53.691 77.9991 48.8V43.2C78.0183 38.5473 75.1637 34.371 70.8359 32.72ZM14.3265 48.8C14.3265 50.5672 12.9011 51.9999 11.1428 51.9999C9.38442 51.9999 7.95924 50.5674 7.95924 48.8V43.2C7.95603 42.7777 8.036 42.3589 8.19455 41.9679C8.3531 41.5768 8.58709 41.2211 8.88303 40.9214C9.17898 40.6216 9.53102 40.3837 9.91887 40.2214C10.3067 40.059 10.7227 39.9754 11.1428 39.9754C11.563 39.9754 11.979 40.059 12.3668 40.2214C12.7547 40.3837 13.1067 40.6216 13.4027 40.9214C13.6986 41.2211 13.9326 41.5768 14.0911 41.9679C14.2497 42.3589 14.3297 42.7777 14.3265 43.2V48.8ZM63.6727 43.2C63.6727 41.4326 65.0981 39.9999 66.8564 39.9999C68.6148 39.9999 70.0401 41.4326 70.0401 43.2V48.8C70.0401 50.5672 68.6148 51.9999 66.8564 51.9999C65.0981 51.9999 63.6727 50.5674 63.6727 48.8V43.2Z" fill="#008ABD"/>
</svg>
