<svg width="79" height="79" viewBox="0 0 79 79" fill="none" xmlns="http://www.w3.org/2000/svg">
<path fill-rule="evenodd" clip-rule="evenodd" d="M24.599 4.26213C23.6851 4.58322 23.2463 4.97482 22.5271 6.11176C22.2938 6.48068 22.0574 6.78395 22.0018 6.78573C21.9463 6.7875 21.9204 6.82052 21.9442 6.85917C22.0005 6.95021 19.9098 10.1516 19.8124 10.1237C19.7716 10.1121 19.7591 10.1361 19.7844 10.177C19.8313 10.2531 18.6282 12.2069 18.5056 12.2536C18.4686 12.2678 18.4383 12.3119 18.4383 12.3518C18.4383 12.3916 18.3459 12.5638 18.2328 12.7346C18.0792 12.9666 18.0093 13.0198 17.9556 12.945C17.9045 12.874 17.8969 12.886 17.9296 12.9866C17.9609 13.0831 17.7409 13.5008 17.2388 14.2981C16.6073 15.3011 16.4753 15.4669 16.315 15.4595C16.2121 15.4548 16.1454 15.4794 16.167 15.5141C16.1884 15.5488 16.2569 15.5576 16.3192 15.5337C16.3814 15.5098 16.4313 15.52 16.43 15.5563C16.4259 15.6679 16.2187 15.9046 16.1828 15.8387C16.1643 15.8046 16.16 15.8209 16.1733 15.8749C16.1865 15.9289 16.0922 16.1441 15.9636 16.3531C15.7939 16.6289 15.694 16.7216 15.5989 16.6913C15.4961 16.6583 15.4909 16.6657 15.5748 16.7255C15.66 16.7863 15.5118 17.0777 14.8355 18.1792C13.4752 20.3949 12.9541 21.2466 12.8835 21.37C12.4246 22.1721 12.2256 22.493 12.1741 22.5144C12.14 22.5286 12.1121 22.5708 12.1121 22.6083C12.1121 22.669 9.12492 27.844 8.97193 28.0484C8.93814 28.0936 8.79226 28.354 8.64776 28.627C8.50326 28.9 8.02 29.7657 7.57385 30.5507C6.44424 32.538 5.89649 33.6045 5.75376 34.0943C5.57493 34.7079 5.59283 35.7637 5.79218 36.3554C6.3252 37.9376 7.99508 39.0766 9.56621 38.9293C10.6364 38.829 11.2544 38.5291 12.035 37.731C12.5026 37.2528 12.7978 36.8293 13.5741 35.523C14.1023 34.634 14.9914 33.1429 15.5498 32.2094C17.9503 28.196 22.0913 20.85 24.7041 15.9696C25.2271 14.9928 27.3691 11.0568 27.9791 9.95206C28.6544 8.72864 28.8215 8.33425 28.9312 7.70457C29.1632 6.37206 28.3743 4.99658 27.0278 4.3861C26.2931 4.05298 25.3337 4.00399 24.599 4.26213ZM26.7422 5.4074C27.4468 5.74284 27.8439 6.33294 27.9088 7.14077C27.9309 7.4158 27.9067 7.7416 27.8512 7.91572C27.7616 8.19762 27.1101 9.42166 23.8419 15.4481C22.5741 17.7859 22.5065 17.8929 22.347 17.8102C22.2551 17.7626 21.4683 17.2988 20.5984 16.7795C19.7286 16.2603 18.7644 15.69 18.4558 15.5124C18.0914 15.3025 17.9138 15.157 17.9494 15.0972C17.9795 15.0467 18.0636 14.9185 18.1363 14.8124C18.2091 14.7063 18.8396 13.7169 19.5374 12.6137C21.5279 9.46687 23.7554 6.08098 24.0209 5.79854C24.3341 5.46541 24.7357 5.26197 25.2441 5.1788C25.809 5.08638 26.1902 5.14455 26.7422 5.4074ZM22.4965 5.61886C22.4747 5.65427 22.5058 5.6832 22.5657 5.6832C22.6257 5.6832 22.6568 5.65427 22.6349 5.61886C22.6131 5.58353 22.5819 5.55459 22.5657 5.55459C22.5495 5.55459 22.5184 5.58353 22.4965 5.61886ZM55.6856 6.49156C55.2365 6.55606 54.9567 6.70704 54.6101 7.07195C54.0488 7.66291 54.0423 7.69377 54.0423 9.75918C54.0423 11.3664 54.0598 11.6428 54.1753 11.8538C54.3679 12.2058 54.8851 12.6198 55.265 12.7262L55.5941 12.8183L55.5398 13.256C55.51 13.4968 55.46 13.7566 55.4289 13.8335C55.3977 13.9105 55.0696 14.1769 54.6997 14.4255C53.6852 15.1077 53.1508 15.8164 52.8778 16.8422C52.7184 17.4406 52.7199 34.7168 52.8793 35.3157C53.1874 36.4731 54.1166 37.3614 55.357 37.6845C56.0515 37.8654 66.9687 37.8611 67.5871 37.6797C68.8694 37.3035 69.8056 36.2765 70.0446 34.9839C70.1557 34.3826 70.1593 17.838 70.0483 17.1269C69.9566 16.5382 69.5586 15.6797 69.1645 15.2198C69.011 15.0408 68.592 14.6826 68.2335 14.4237C67.8749 14.1648 67.5469 13.8883 67.5045 13.8092C67.4622 13.7301 67.4275 13.4768 67.4275 13.2464V12.8275L67.7698 12.6968C68.1319 12.5585 68.6138 12.0895 68.7509 11.7417C68.8018 11.6126 68.8289 10.8476 68.8224 9.72678C68.8132 8.15913 68.7931 7.87823 68.671 7.6052C68.5011 7.22532 68.1925 6.90801 67.7757 6.68474C67.4689 6.52042 67.4146 6.51856 61.7493 6.48038C58.6051 6.45916 55.8764 6.46417 55.6856 6.49156ZM67.4903 6.45592C67.5459 6.47822 67.6125 6.47544 67.6381 6.44982C67.6637 6.42421 67.6182 6.406 67.5369 6.40932C67.447 6.41303 67.4287 6.43131 67.4903 6.45592ZM21.2783 7.536C21.334 7.55829 21.4005 7.55552 21.4262 7.5299C21.4518 7.50429 21.4063 7.48608 21.3249 7.4894C21.2351 7.4931 21.2168 7.51139 21.2783 7.536ZM67.3879 7.65056C67.757 7.94095 67.8133 8.20279 67.8133 9.63135C67.8133 11.153 67.7844 11.3486 67.5207 11.6122C67.3326 11.8003 67.291 11.8078 66.5466 11.7869L65.7688 11.765L65.7639 10.2777C65.7584 8.65203 65.7472 8.60921 65.302 8.52018C65.1333 8.48639 65.0162 8.51601 64.8788 8.62719C64.6902 8.77971 64.6886 8.79236 64.6649 10.2923L64.641 11.8036H63.9127H63.1844V10.3482C63.1844 8.99264 63.1734 8.87884 63.0244 8.68952C62.8427 8.45838 62.54 8.42428 62.2972 8.60759C62.1534 8.71606 62.1413 8.82947 62.1191 10.2638L62.0953 11.8036H61.3669H60.6385V10.4511C60.6385 8.92205 60.5712 8.62132 60.2088 8.53036C60.0543 8.49156 59.9383 8.51802 59.7955 8.62456L59.597 8.77261L59.5584 10.2688L59.5198 11.765L58.7676 11.7871L58.0154 11.8092L58.0049 11.4014C57.9992 11.1771 57.9905 10.5173 57.9856 9.93524C57.9778 8.98446 57.9612 8.86172 57.8226 8.72817C57.5758 8.49048 57.3692 8.46479 57.142 8.64346L56.9387 8.80339L56.9177 10.2843L56.8968 11.765L56.2189 11.7873C55.5573 11.8092 55.5353 11.8042 55.3124 11.5811L55.0838 11.3526V9.71745V8.08236L55.3833 7.7828L55.6828 7.48331H61.429H67.1753L67.3879 7.65056ZM37.2432 8.07442C37.2963 8.09586 37.3831 8.09586 37.4361 8.07442C37.4892 8.05305 37.4457 8.03553 37.3396 8.03553C37.2336 8.03553 37.1902 8.05305 37.2432 8.07442ZM36.6763 8.2875C36.0508 8.42992 35.5301 8.70271 35.0365 9.14655C34.6695 9.47644 34.5879 9.51455 34.1913 9.54124C33.1768 9.60944 32.3191 9.96147 31.6687 10.5766C31.4492 10.7842 31.2502 10.9345 31.2264 10.9108C31.2026 10.887 31.1865 10.9132 31.1906 10.9691C31.2019 11.1249 30.6569 12.2167 30.4982 12.356C30.4209 12.4238 30.2362 12.5397 30.0877 12.6134C29.9392 12.6871 29.7421 12.8164 29.6498 12.9008C29.549 12.9929 29.4411 13.0306 29.3798 12.9951C29.3236 12.9627 29.3024 12.9635 29.3327 12.9971C29.363 13.0307 29.2366 13.2532 29.0517 13.4916C28.867 13.7301 28.6643 14.0294 28.6014 14.1566C28.4051 14.5542 28.2361 15.3782 28.2361 15.9381C28.2361 16.448 28.2199 16.4967 27.9175 16.8975C27.0356 18.0663 26.8762 19.5001 27.4696 20.9243C27.6054 21.2502 27.6162 21.4003 27.5719 22.3515C27.5253 23.3519 27.5335 23.4462 27.7123 23.9545C27.8167 24.2515 27.9312 24.561 27.9666 24.6422C28.0105 24.7431 28.0041 24.7733 27.946 24.7374C27.8993 24.7085 27.8359 24.7257 27.8051 24.7754C27.7664 24.8382 27.8003 24.8527 27.9153 24.8225C28.0388 24.7902 28.1223 24.8361 28.2392 25.0003C28.3259 25.1221 28.6184 25.3649 28.8893 25.5401L29.3818 25.8586L29.4741 26.411C29.6223 27.299 29.8204 27.7294 30.3331 28.2775C30.8619 28.8427 31.3412 29.107 32.1321 29.2695C32.6308 29.3719 32.6959 29.409 32.9808 29.7534C33.5374 30.4261 33.977 30.8177 34.408 31.0249C35.2237 31.417 35.6715 31.4722 36.7293 31.3112C37.3121 31.2226 37.3173 31.2233 37.848 31.4742C38.1412 31.6128 38.4659 31.7584 38.5695 31.7979C38.8315 31.8976 39.7147 31.8861 40.0398 31.7787C40.1884 31.7297 40.7091 31.6637 41.1971 31.6322C42.4029 31.5542 42.7811 31.4008 43.5795 30.6656C43.9224 30.3498 44.2818 30.0769 44.3781 30.0591C44.4743 30.0414 44.7765 29.9857 45.0496 29.9356C45.3227 29.8854 45.7062 29.7633 45.9017 29.6642C46.7055 29.2569 47.5475 28.2599 47.7889 27.4299C47.8956 27.0628 47.9613 26.9827 48.4449 26.6299C49.0657 26.1768 49.4384 25.7041 49.7329 24.996C49.9155 24.5569 49.9438 24.3766 49.9601 23.5472C49.9774 22.6653 49.9945 22.5695 50.2082 22.1586C50.561 21.4803 50.6863 20.9605 50.6863 20.1765C50.6863 19.3854 50.5535 18.7801 50.2494 18.1863C50.0559 17.8083 50.0438 17.7253 50.0607 16.8823C50.086 15.6235 49.8434 14.8923 49.1321 14.083C48.9473 13.8729 48.8372 13.7259 48.8873 13.7565C48.9374 13.787 49.0035 13.7714 49.0342 13.7217C49.0691 13.6653 49.0566 13.652 49.001 13.6864C48.9511 13.7172 48.9114 13.697 48.9108 13.6404C48.9098 13.5641 48.8925 13.5665 48.8395 13.6501C48.7826 13.74 48.706 13.7086 48.43 13.4825C48.137 13.2424 48.0654 13.1216 47.9063 12.6004C47.805 12.2683 47.7253 11.9544 47.7293 11.9031C47.7332 11.8517 47.7092 11.817 47.6758 11.8259C47.6425 11.8349 47.5086 11.6962 47.3783 11.5176C47.0805 11.1097 46.518 10.6635 45.9949 10.4203C45.7225 10.2937 45.6235 10.2128 45.6896 10.1708C45.7602 10.126 45.7618 10.1084 45.6955 10.1075C45.645 10.1069 45.5855 10.1357 45.5634 10.1715C45.5412 10.2073 45.3051 10.2037 45.0388 10.1634C44.5879 10.0951 44.5182 10.0557 44.0268 9.59224C43.7366 9.31851 43.4152 9.05621 43.3125 9.00938C43.2098 8.96263 43.1258 8.90029 43.1258 8.87082C43.1258 8.84143 42.8638 8.73951 42.5435 8.64447C41.895 8.4519 41.0123 8.4526 40.0243 8.64632C39.6257 8.72455 39.4666 8.72709 39.3299 8.65766C38.5128 8.24268 37.4959 8.1008 36.6763 8.2875ZM38.7669 8.25479C38.7407 8.29722 38.756 8.33194 38.8009 8.33194C38.8458 8.33194 38.8826 8.29722 38.8826 8.25479C38.8826 8.21236 38.8673 8.17764 38.8486 8.17764C38.8298 8.17764 38.7931 8.21236 38.7669 8.25479ZM68.9766 9.22555C68.9803 9.31543 68.9986 9.33371 69.0232 9.27222C69.0455 9.21652 69.0427 9.14994 69.0171 9.12433C68.9915 9.09872 68.9733 9.14423 68.9766 9.22555ZM38.6786 9.57357C39.2874 9.8317 39.7926 9.86164 40.387 9.67486C40.5992 9.6082 41.0374 9.55196 41.3609 9.54988C42.1561 9.54463 42.6663 9.77971 43.3962 10.4874C43.9294 11.0044 44.2735 11.1849 44.7285 11.186C45.0523 11.1868 45.7605 11.4859 46.1029 11.7666C46.5207 12.109 46.7662 12.5233 46.9776 13.2432C47.1491 13.8268 47.2102 13.9041 47.9418 14.4632C48.8497 15.157 49.1327 15.8102 49.0257 16.9649C48.9363 17.9285 48.956 18.1123 49.1832 18.4402C49.4533 18.8299 49.6839 19.5908 49.6815 20.0847C49.6788 20.6541 49.5615 21.0956 49.2388 21.7511C48.9623 22.3127 48.9567 22.3422 48.9742 23.1338C49.0052 24.5232 48.7033 25.1691 47.692 25.8777C47.3115 26.1444 47.0493 26.3876 47.0004 26.5195C46.9571 26.6363 46.8433 26.9519 46.7475 27.2209C46.4169 28.1503 45.5721 28.8443 44.6237 28.9659C43.7251 29.0811 43.7527 29.0674 43.1534 29.6987C42.3815 30.512 42.0314 30.6663 41.1073 30.6008C40.5936 30.5643 40.36 30.5818 40.1038 30.6759C39.5087 30.8945 38.9983 30.8548 38.3324 30.5383C37.5303 30.1569 37.3698 30.1329 36.632 30.2834C35.8544 30.442 35.4559 30.3976 34.8083 30.0805C34.4018 29.8814 34.2516 29.7477 33.8992 29.2713C33.4406 28.6511 33.2207 28.501 32.5369 28.3415C31.3262 28.059 30.6723 27.377 30.4677 26.1832C30.3439 25.4607 30.2419 25.2914 29.7026 24.9131C28.7621 24.2534 28.3631 23.1927 28.6309 22.0644C28.7655 21.4969 28.7235 21.131 28.4584 20.5646C28.2759 20.1746 28.2023 19.8925 28.176 19.4824C28.1281 18.736 28.2863 18.2272 28.8141 17.4294L29.2391 16.7873V16.1114C29.2391 14.8829 29.6817 14.1198 30.7654 13.4792C31.4221 13.0911 31.5806 12.9048 31.8296 12.2279C31.9214 11.9783 32.1226 11.6901 32.3995 11.4112C32.9161 10.891 33.4862 10.6464 34.182 10.6464C34.7495 10.6464 35.0827 10.5135 35.5516 10.0999C36.5145 9.2507 37.5184 9.08167 38.6786 9.57357ZM53.8555 10.3056C53.8592 10.3955 53.8775 10.4138 53.9021 10.3523C53.9244 10.2966 53.9216 10.23 53.896 10.2044C53.8704 10.1788 53.8522 10.2243 53.8555 10.3056ZM38.034 10.9578C36.1216 11.1019 34.0181 12.0536 32.4949 13.4638C30.4268 15.3786 29.3532 18.3818 29.7376 21.1772C30.3476 25.6124 33.6978 28.8142 38.1638 29.2303C40.7535 29.4715 43.2491 28.5765 45.2371 26.6933C47.161 24.8708 48.1556 22.613 48.1454 20.0912C48.1376 18.1288 47.6721 16.5188 46.6639 14.9667C46.234 14.3048 44.846 12.9256 44.1648 12.4833C42.2743 11.2559 40.3692 10.7818 38.034 10.9578ZM53.8142 11.104C53.7897 11.1435 53.805 11.1975 53.8482 11.2242C53.8913 11.2508 53.9266 11.2185 53.9266 11.1524C53.9266 11.0169 53.8803 10.997 53.8142 11.104ZM30.2774 11.8859C30.2494 11.9311 30.2431 11.9848 30.2633 12.005C30.2835 12.0252 30.3206 11.9882 30.3458 11.9227C30.3979 11.7867 30.3535 11.7628 30.2774 11.8859ZM40.6887 12.0854C43.7739 12.6648 46.3456 15.2097 46.9914 18.3227C47.1726 19.1961 47.1839 20.6452 47.0165 21.5281C46.42 24.6724 43.9129 27.3117 40.7832 28.0903C38.2252 28.7267 35.2711 27.9349 33.3106 26.0872C30.6879 23.6154 29.932 19.6057 31.4977 16.4711C32.2782 14.9086 33.8684 13.3635 35.4195 12.6603C36.9936 11.9467 38.8638 11.7427 40.6887 12.0854ZM54.9295 12.8358C54.9295 12.8864 54.9989 12.9277 55.0838 12.9277C55.1686 12.9277 55.2381 12.9045 55.2381 12.8761C55.2381 12.8477 55.1686 12.8064 55.0838 12.7842C54.9932 12.7605 54.9295 12.7819 54.9295 12.8358ZM66.3721 13.4218C66.4408 14.314 66.5914 14.5587 67.4101 15.1093C68.7074 15.9816 69.1248 16.7084 69.1248 18.095V18.5927H61.4394H53.7538L53.7854 17.8712C53.8124 17.2544 53.8523 17.0781 54.0606 16.6561C54.3401 16.0898 54.8137 15.5951 55.5823 15.0662C56.3595 14.5314 56.5657 14.2025 56.6107 13.4266L56.6466 12.8065H61.4856H66.3246L66.3721 13.4218ZM67.5818 12.8837C67.5123 12.9286 67.5028 12.9589 67.558 12.9597C67.6085 12.9603 67.6713 12.9261 67.6976 12.8837C67.7567 12.7879 67.73 12.7879 67.5818 12.8837ZM18.8411 16.8837C21.6467 18.5489 21.9871 18.7589 21.9871 18.825C21.9871 18.9023 19.0454 24.16 17.0668 27.619C15.7659 29.8933 13.1819 34.2454 12.0968 35.9897C11.1832 37.4582 10.4857 37.9304 9.33476 37.859C7.81355 37.7647 6.74096 36.7682 6.65092 35.3654C6.59993 34.5701 6.72406 34.1733 7.41246 32.9307C7.74836 32.3244 8.02324 31.8216 8.02324 31.8133C8.02324 31.805 8.70408 30.6062 9.5362 29.1493C12.3007 24.3092 17.2576 16.0468 17.3969 16.0468C17.4156 16.0468 18.0655 16.4234 18.8411 16.8837ZM36.1327 16.1998C35.2944 16.3771 34.4028 17.0931 34.0405 17.8801C33.7709 18.4657 33.7096 19.5068 33.9048 20.1824C34.3194 21.6165 35.348 22.8777 37.3259 24.3768C38.2559 25.0816 38.7464 25.3328 39.073 25.2716C39.5932 25.174 40.9769 24.2018 42.0175 23.2027C43.0077 22.2521 43.6731 21.2045 43.9722 20.1248C44.1604 19.4456 44.1687 19.0394 44.007 18.4155C43.7546 17.4412 43.3105 16.8789 42.4619 16.4596C41.9507 16.2069 41.8142 16.1732 41.2867 16.1688C40.7661 16.1644 40.6261 16.1951 40.1913 16.4092C39.917 16.5442 39.5452 16.781 39.3648 16.9354L39.0369 17.216L38.6319 16.8614C38.4092 16.6663 38.0463 16.4391 37.8258 16.3565C37.3478 16.1774 36.5762 16.106 36.1327 16.1998ZM37.5572 17.3272C37.8035 17.45 38.1127 17.7041 38.3554 17.983C38.6914 18.3693 38.7907 18.4384 39.0099 18.4384C39.1631 18.4384 39.3233 18.3795 39.4034 18.2938C40.0312 17.6213 40.1888 17.4785 40.4616 17.3349C40.9434 17.0813 41.6676 17.1019 42.1454 17.3828C43.7661 18.3355 43.2835 20.7163 41.0553 22.761C40.3688 23.3909 39.1902 24.2244 38.9852 24.2248C38.7816 24.2253 37.7241 23.4847 36.9011 22.7652C35.6643 21.684 34.973 20.6597 34.781 19.6241C34.5853 18.5682 35.1201 17.5808 36.0712 17.242C36.5605 17.0677 37.0982 17.0985 37.5572 17.3272ZM69.1248 26.1147V32.6337H61.4485H53.7723V26.1147V19.5956H61.4485H69.1248V26.1147ZM17.1062 19.7559C16.7356 19.8443 16.276 20.0783 16.1118 20.2625C16.0416 20.3413 15.3758 21.4212 14.6322 22.6623C13.0888 25.2389 13.0296 25.3996 13.35 26.1444C13.6698 26.8877 14.3959 27.3041 15.2051 27.2082C15.8102 27.1366 16.063 26.93 16.5729 26.0906C16.8226 25.6795 17.464 24.6245 17.9984 23.7461C19.1166 21.9078 19.1979 21.7063 19.0635 21.1056C18.8512 20.1571 17.9708 19.55 17.1062 19.7559ZM17.6994 20.8611C17.8872 20.9395 17.9839 21.0464 18.0508 21.2492C18.1397 21.5184 18.1267 21.5583 17.7137 22.2877C17.4775 22.7049 17.2218 23.1234 17.1455 23.2177L17.0067 23.3889L16.4904 23.1423C16.2064 23.0067 15.9372 22.8513 15.8922 22.7971C15.8315 22.7239 15.9321 22.5026 16.2828 21.9378C17.0258 20.7409 17.1627 20.6369 17.6994 20.8611ZM59.5505 21.1606C59.1839 21.4071 59.1049 21.7098 59.0998 22.888L59.0955 23.9045L57.9781 23.9295L56.8607 23.9545L56.6087 24.2068L56.3567 24.459V26.1608V27.8624L56.6449 28.1265L56.9331 28.3905H58.0528H59.1727V29.4978C59.1727 30.5231 59.1857 30.6244 59.3489 30.8671C59.6071 31.2511 59.8813 31.3128 61.3506 31.3179C63.4194 31.3248 63.5118 31.2483 63.5565 29.4899L63.5846 28.3905H64.5879C66.306 28.3905 66.3479 28.3378 66.3463 26.1799C66.3451 24.5309 66.3192 24.4004 65.9371 24.1162C65.7454 23.9736 65.5922 23.9515 64.6449 23.9293L63.5701 23.9043V22.7876C63.5701 20.9943 63.5578 20.9843 61.3481 20.9843C59.8768 20.9843 59.8017 20.9916 59.5505 21.1606ZM62.5228 22.1845C62.5501 22.293 62.5659 22.9023 62.5582 23.5384C62.5483 24.35 62.5717 24.7228 62.6364 24.7877C62.6974 24.849 63.1653 24.8933 64.0173 24.9189L65.306 24.9574L65.3272 26.1725L65.3485 27.3876H64.0791C63.0279 27.3876 62.7888 27.4084 62.6884 27.5088C62.5879 27.6094 62.5672 27.8503 62.5672 28.9206C62.5672 29.8216 62.5393 30.2392 62.4746 30.3038C62.3772 30.4012 60.4568 30.4402 60.2205 30.3496C60.1155 30.3093 60.0984 30.1103 60.0984 28.9269C60.0984 27.9109 60.0732 27.5346 60.002 27.4886C59.949 27.4543 59.3327 27.4088 58.6326 27.3876L57.3597 27.349L57.3384 26.1339L57.3172 24.9189H58.5667C59.6212 24.9189 59.8383 24.8989 59.9573 24.7912C60.0837 24.6768 60.0984 24.5238 60.0984 23.3254V21.9872H61.2859H62.4733L62.5228 22.1845ZM27.3164 22.5722C27.3201 22.6621 27.3384 22.6804 27.363 22.6189C27.3853 22.5632 27.3826 22.4966 27.3569 22.471C27.3313 22.4454 27.3131 22.4909 27.3164 22.5722ZM27.2332 22.9084C27.2332 22.9484 27.2621 22.9989 27.2975 23.0208C27.3329 23.0426 27.3618 23.01 27.3618 22.9482C27.3618 22.8864 27.3329 22.8358 27.2975 22.8358C27.2621 22.8358 27.2332 22.8685 27.2332 22.9084ZM11.3663 23.5654C11.3663 23.6272 11.3959 23.6595 11.4319 23.6372C11.4679 23.6149 11.4775 23.5644 11.453 23.5249C11.3907 23.4239 11.3663 23.4353 11.3663 23.5654ZM15.8564 23.8892C16.152 24.0443 16.4063 24.1811 16.4214 24.1933C16.4684 24.2309 15.5691 25.717 15.3637 25.9411C15.1116 26.2159 14.7581 26.2251 14.4764 25.9641C14.1365 25.649 14.1916 25.3169 14.7373 24.3939C14.9931 23.9613 15.2286 23.6073 15.2606 23.6073C15.2926 23.6073 15.5607 23.7342 15.8564 23.8892ZM10.5691 24.9189C10.4996 24.9638 10.4901 24.9941 10.5453 24.9948C10.5958 24.9955 10.6586 24.9613 10.6849 24.9189C10.744 24.823 10.7173 24.823 10.5691 24.9189ZM9.95195 26.0035C9.95195 26.0484 9.98667 26.0637 10.0291 26.0375C10.0715 26.0113 10.1062 25.9746 10.1062 25.9558C10.1062 25.9371 10.0715 25.9218 10.0291 25.9218C9.98667 25.9218 9.95195 25.9586 9.95195 26.0035ZM32.0164 29.423C32.0164 29.4393 32.0859 29.4708 32.1708 29.493C32.2557 29.5152 32.3058 29.5019 32.2819 29.4634C32.2404 29.3962 32.0164 29.3621 32.0164 29.423ZM32.9808 30.0878C32.9545 30.1302 32.9892 30.1649 33.0579 30.1649C33.1266 30.1649 33.1613 30.1302 33.1351 30.0878C33.1088 30.0454 33.0741 30.0106 33.0579 30.0106C33.0417 30.0106 33.007 30.0454 32.9808 30.0878ZM33.5594 30.6921C33.5594 30.7275 33.6099 30.7564 33.6717 30.7564C33.7335 30.7564 33.7661 30.7275 33.7443 30.6921C33.7225 30.6568 33.6719 30.6278 33.632 30.6278C33.592 30.6278 33.5594 30.6568 33.5594 30.6921ZM34.5623 31.3607C34.5623 31.4244 34.597 31.4765 34.6395 31.4765C34.6819 31.4765 34.7166 31.4244 34.7166 31.3607C34.7166 31.2971 34.6819 31.245 34.6395 31.245C34.597 31.245 34.5623 31.2971 34.5623 31.3607ZM34.7937 31.3525C34.7937 31.3692 34.8476 31.4035 34.9135 31.4288C34.9821 31.4551 35.0131 31.4421 34.9861 31.3985C34.9408 31.3251 34.7937 31.29 34.7937 31.3525ZM38.2654 31.8214C38.2654 31.8997 38.4907 32.0117 38.5277 31.9519C38.5523 31.9122 38.5033 31.8617 38.4189 31.8396C38.3345 31.8175 38.2654 31.8094 38.2654 31.8214ZM6.19737 32.206C6.19737 32.2678 6.22692 32.3001 6.26294 32.2778C6.29897 32.2555 6.30854 32.205 6.28408 32.1655C6.22175 32.0646 6.19737 32.0759 6.19737 32.206ZM69.1097 34.2358C69.0546 35.3329 68.5691 36.1244 67.6976 36.538L67.3118 36.721L61.4416 36.7218L55.5713 36.7226L55.1009 36.4875C54.5916 36.233 54.2556 35.9011 53.9894 35.3896C53.8591 35.1389 53.8125 34.8905 53.7872 34.3111L53.7543 33.5585L61.4489 33.5602L69.1435 33.562L69.1097 34.2358ZM14.6023 34.0417C14.4867 34.1912 14.4139 34.331 14.4517 34.331C14.4705 34.331 14.5428 34.2442 14.6123 34.1381C14.7424 33.9396 14.7352 33.8699 14.6023 34.0417ZM5.6328 36.549C5.63349 36.5808 5.66666 36.6585 5.70655 36.7216C5.76356 36.8117 5.77629 36.7994 5.76611 36.6637C5.75461 36.5108 5.62986 36.4034 5.6328 36.549ZM30.6585 39.3918C30.2034 39.5236 29.9269 39.6841 29.6527 39.9755C29.1878 40.4697 29.0645 40.8698 29.0801 41.8336L29.0909 42.5087H23.6958H18.3006L18.2696 41.6408C18.2344 40.6569 18.1109 40.3198 17.6317 39.8991C17.2018 39.5216 16.9017 39.4008 16.2966 39.3616C15.7839 39.3283 15.694 39.3461 15.2348 39.5721C14.3908 39.9877 14.0497 40.5931 13.9825 41.7951L13.9426 42.5087L12.8152 42.5095C12.0502 42.5101 11.5685 42.5466 11.3167 42.623C10.11 42.9891 9.26795 43.901 9.01768 45.1129C8.95712 45.4062 8.88885 45.5672 8.83808 45.5368C8.79303 45.5099 8.79989 45.5419 8.85343 45.608C8.93058 45.7033 8.94972 47.7587 8.94609 55.5557C8.94277 62.7176 8.96576 65.4983 9.0308 65.8075C9.22336 66.7227 9.93799 67.6901 10.762 68.1513C10.9742 68.27 11.4053 68.4336 11.72 68.5147C12.2709 68.6568 12.7197 68.6624 23.678 68.6647C36.2525 68.6673 35.4649 68.6974 36.4452 68.1774C37.3858 67.6785 38.1566 66.6564 38.3422 65.662C38.4463 65.1039 38.4473 45.884 38.3431 45.2475C38.1958 44.3468 37.6275 43.5001 36.8306 42.994C36.219 42.6054 35.7562 42.5087 34.5097 42.5087H33.4051L33.4021 42.0265C33.3977 41.2983 33.3368 40.9669 33.126 40.5257C32.9182 40.0905 32.6368 39.8148 32.1429 39.5629C31.7306 39.3526 31.0608 39.2754 30.6585 39.3918ZM32.5564 39.5725C32.5564 39.6125 32.5908 39.6663 32.6327 39.6922C32.6764 39.7192 32.6894 39.6883 32.6631 39.6196C32.6118 39.486 32.5564 39.4616 32.5564 39.5725ZM59.2884 40.202C58.7031 40.2651 58.4596 40.3632 57.9701 40.7327C57.2064 41.3091 57.1909 41.3511 56.0127 46.0371C53.9817 54.1142 53.1532 57.3556 52.113 61.2943C51.2566 64.5366 50.2211 68.5533 50.1449 68.9286C50.0414 69.4381 50.0838 70.0086 50.2628 70.5157C50.3571 70.783 50.3611 70.8631 50.2828 70.9164C50.2089 70.9665 50.2134 70.9775 50.3009 70.9608C50.3648 70.9487 50.5711 71.1059 50.7594 71.3102C51.3522 71.9534 51.6633 72.0794 54.3895 72.781C55.132 72.972 56.2256 73.2546 56.8196 73.4089C64.3494 75.3644 63.8541 75.2518 64.4807 75.1509C64.7444 75.1085 65.1693 74.9622 65.425 74.8259C66.2439 74.3894 66.5774 73.8642 66.9667 72.3975C67.101 71.8917 67.3134 71.0961 67.4388 70.6293C67.5642 70.1626 67.6845 69.6939 67.7063 69.5878C67.728 69.4817 67.9864 68.4749 68.2804 67.3505C68.5744 66.2261 68.9188 64.9068 69.0457 64.4189C69.1726 63.9309 69.6199 62.2124 70.0398 60.6C70.4596 58.9876 70.9676 57.0261 71.1687 56.2411C71.3698 55.4561 71.7379 54.0327 71.9866 53.078C72.2354 52.1233 72.733 50.2139 73.0925 48.8349C73.8592 45.8929 73.8741 45.8137 73.7605 45.284C73.5723 44.4067 73.1283 43.7857 72.3633 43.33C71.9277 43.0706 69.5816 42.4605 62.4129 40.7427C59.9896 40.162 59.8624 40.1399 59.2884 40.202ZM33.1736 40.3145C33.1736 40.3806 33.2089 40.413 33.252 40.3863C33.2951 40.3596 33.3105 40.3056 33.286 40.2661C33.2199 40.1591 33.1736 40.179 33.1736 40.3145ZM16.7422 40.4901C17.2416 40.7531 17.2808 40.9326 17.2809 42.9599C17.2811 44.4045 17.2581 44.8094 17.1649 45.0044C16.8038 45.7607 15.6346 45.7968 15.18 45.0657C15.0174 44.8043 15.0033 44.6823 14.9785 43.3262C14.9454 41.5205 14.9898 41.1188 15.2578 40.8004C15.6337 40.3536 16.2416 40.2265 16.7422 40.4901ZM31.6524 40.4543C31.789 40.5125 31.9875 40.6541 32.0936 40.769L32.2864 40.9778L32.3095 42.8971C32.3344 44.9751 32.3076 45.1422 31.9085 45.4037C31.3963 45.7394 30.834 45.6825 30.4028 45.2516L30.1263 44.9752L30.1024 43.1826C30.0893 42.1967 30.0993 41.2786 30.1246 41.1423C30.2386 40.5295 31.0117 40.1813 31.6524 40.4543ZM61.3328 41.5072C62.0329 41.6775 63.1959 41.9605 63.9173 42.136C64.6386 42.3115 65.2569 42.4796 65.2911 42.5095C65.3255 42.5395 65.1796 43.2025 64.967 43.9828C64.7545 44.7633 64.1949 46.8772 63.7235 48.6806C63.2521 50.4839 62.6748 52.6884 62.4406 53.5795C62.2064 54.4706 61.4664 57.3173 60.7962 59.9057C58.067 70.4465 57.5363 72.4821 57.5104 72.5091C57.4297 72.5929 52.3288 71.2595 51.9015 71.0429C51.3805 70.7787 51.0211 70.0134 51.0953 69.326C51.1334 68.9738 51.997 65.5403 53.1933 60.9857C53.5894 59.4773 56.1916 49.3075 57.403 44.5335C57.6964 43.377 57.9841 42.3181 58.0424 42.1804C58.2872 41.601 58.9356 41.2016 59.6355 41.199C59.8732 41.1982 60.6199 41.3337 61.3328 41.5072ZM13.6551 42.0482C13.6551 42.0893 13.7072 42.123 13.7708 42.123C13.8344 42.123 13.8865 42.1093 13.8865 42.0926C13.8865 42.076 13.8344 42.0423 13.7708 42.0179C13.7072 41.9935 13.6551 42.0072 13.6551 42.0482ZM68.1846 42.0213C68.2402 42.0436 68.3068 42.0409 68.3324 42.0153C68.358 41.9896 68.3125 41.9714 68.2312 41.9748C68.1413 41.9785 68.123 41.9967 68.1846 42.0213ZM33.4912 42.1808C33.4843 42.3144 33.5222 42.3523 33.6558 42.3454C33.7788 42.3391 33.7914 42.3265 33.6991 42.3022C33.6275 42.2832 33.5534 42.2091 33.5345 42.1375C33.5102 42.0452 33.4975 42.0578 33.4912 42.1808ZM68.8637 43.363C70.2521 43.7057 71.5395 44.0571 71.7244 44.144C72.1165 44.3284 72.554 44.8078 72.681 45.1925C72.8319 45.6501 72.714 46.3958 72.1472 48.5648C71.8479 49.7105 71.1665 52.3316 70.6331 54.3896C70.0997 56.4475 69.3319 59.3984 68.9269 60.9472C68.5219 62.4959 67.9532 64.6831 67.6633 65.8075C66.1458 71.6924 65.8737 72.709 65.7207 73.0646C65.5098 73.555 65.0473 73.9553 64.5116 74.1109C64.0292 74.2512 64.2697 74.2966 60.7959 73.408C59.5459 73.0882 58.4998 72.8009 58.4712 72.7695C58.4426 72.738 58.885 70.9418 59.4542 68.7777C60.4469 65.0043 60.9791 62.9604 62.1763 58.3241C64.0334 51.1325 66.2596 42.7401 66.3103 42.7401C66.3262 42.7401 67.4753 43.0204 68.8637 43.363ZM60.1262 43.0767C59.5726 43.3399 59.1629 43.7354 58.9009 44.2597C58.7044 44.6527 58.6768 44.7922 58.6751 45.4018C58.6728 46.2151 58.845 46.6593 59.3637 47.178C59.8762 47.6904 60.3247 47.8636 61.1399 47.8636C61.9586 47.8636 62.361 47.7073 62.8725 47.1907C63.3889 46.6692 63.608 46.1362 63.608 45.4018C63.608 44.8834 63.5737 44.7146 63.3938 44.3476C63.1332 43.8163 62.6819 43.3504 62.1965 43.1118C61.6426 42.8396 60.6603 42.8229 60.1262 43.0767ZM46.501 43.3312C46.5541 43.3527 46.6409 43.3527 46.6939 43.3312C46.747 43.3099 46.7035 43.2924 46.5975 43.2924C46.4914 43.2924 46.448 43.3099 46.501 43.3312ZM47.2774 43.3329C47.333 43.3552 47.3996 43.3524 47.4252 43.3268C47.4508 43.3012 47.4053 43.283 47.324 43.2863C47.2341 43.29 47.2158 43.3083 47.2774 43.3329ZM14.0503 44.2113C14.0875 44.7782 14.1427 45.0305 14.2942 45.3271C15.1145 46.9329 17.2666 46.9887 18.0483 45.4244C18.2606 44.9995 18.284 44.8814 18.284 44.2322C18.284 43.7107 18.3106 43.5098 18.3804 43.505C18.4335 43.5014 20.855 43.4988 23.7615 43.4993L29.0462 43.5001L29.0981 44.2681C29.1384 44.8647 29.1932 45.1216 29.3438 45.4187C29.9779 46.6701 31.5935 46.9725 32.6148 46.0311C32.802 45.8585 33.0242 45.5821 33.1085 45.4167C33.2382 45.1625 33.3984 44.1979 33.4037 43.6385C33.405 43.5041 33.4783 43.4972 34.6202 43.524C35.7962 43.5517 35.8485 43.56 36.2495 43.7809C36.71 44.0346 36.9416 44.2988 37.2006 44.866C37.3568 45.2079 37.3778 45.3934 37.4031 46.6554L37.4315 48.0634H23.6917H9.95195L9.95272 46.6554C9.95342 45.336 9.96499 45.2227 10.1367 44.8539C10.354 44.3873 10.7572 43.9635 11.2077 43.7283C11.5482 43.5505 12.2538 43.4701 13.4236 43.4759L14.0022 43.4788L14.0503 44.2113ZM46.2391 43.51C45.6985 43.6249 45.1784 43.942 44.7221 44.4349C44.1579 45.0443 43.9313 45.7042 43.9953 46.551C44.0726 47.5736 44.3642 47.9923 45.826 49.1799C46.2291 49.5074 46.9004 50.0584 47.3179 50.4045C48.7019 51.5516 49.1919 51.8166 50.0839 51.9002C51.2073 52.0056 52.4106 51.3122 52.9494 50.2488C53.408 49.3438 53.3604 48.271 52.8261 47.4735C52.3928 46.8265 48.7587 43.9471 48.0328 43.6756C47.5306 43.4876 46.7035 43.4113 46.2391 43.51ZM61.8566 43.967C63.0953 44.6023 62.9785 46.4776 61.6733 46.9084C60.9069 47.1613 60.1008 46.8176 59.7424 46.0848C59.3806 45.3453 59.5988 44.537 60.2861 44.071C60.6004 43.8579 60.7246 43.8202 61.1132 43.8202C61.4109 43.8202 61.6703 43.8714 61.8566 43.967ZM47.9553 44.6986C48.3707 44.9254 49.452 45.7905 49.452 45.8961C49.452 45.9963 46.9954 48.5613 46.8736 48.5882C46.8154 48.6011 46.5646 48.4489 46.3162 48.2501C45.1964 47.3536 44.9252 46.9361 44.9945 46.2154C45.0662 45.4687 45.5713 44.8024 46.2601 44.546C46.7172 44.3758 47.4915 44.4456 47.9553 44.6986ZM68.1157 44.6709C67.2234 44.8188 66.4496 45.5044 66.1825 46.3836C65.6628 48.0946 67.0046 49.777 68.7273 49.5746C69.6685 49.4639 70.5139 48.8275 70.8289 47.9924C71.0666 47.3626 71.0138 46.4818 70.7044 45.9134C70.1955 44.9782 69.1854 44.4934 68.1157 44.6709ZM69.3418 45.8028C70.1716 46.276 70.3396 47.3765 69.6965 48.1277C69.179 48.7323 68.2786 48.8525 67.6412 48.4021C66.7812 47.7945 66.7789 46.4823 67.6368 45.8762C68.1881 45.4867 68.7454 45.4627 69.3418 45.8028ZM8.68232 45.8979C8.65786 45.9374 8.66743 45.9879 8.70346 46.0102C8.73949 46.0325 8.76903 46.0002 8.76903 45.9384C8.76903 45.8083 8.74466 45.797 8.68232 45.8979ZM51.0183 47.1183C52.002 47.905 52.1778 48.156 52.2158 48.8282C52.2879 50.1049 51.3449 51.013 50.0673 50.8971C49.7722 50.8704 49.4881 50.7853 49.2784 50.6607C48.8888 50.4293 47.6419 49.3627 47.6591 49.2755C47.6743 49.1982 50.17 46.5221 50.2278 46.5211C50.2513 46.5207 50.607 46.7894 51.0183 47.1183ZM43.8973 47.2488C43.8973 47.31 43.9287 47.3794 43.9672 47.4031C44.0057 47.427 44.019 47.3769 43.9968 47.292C43.9496 47.1118 43.8973 47.0891 43.8973 47.2488ZM8.68394 47.7322C8.64213 47.8421 8.65092 47.851 8.72714 47.7754C8.77991 47.723 8.8036 47.6607 8.77983 47.6371C8.75607 47.6133 8.71295 47.6561 8.68394 47.7322ZM59.0184 48.7478C58.3016 48.9848 57.6986 49.4915 57.3923 50.1138C57.2343 50.4349 57.2054 50.6068 57.2054 51.2265C57.2054 51.8323 57.2357 52.0209 57.3803 52.3143C57.9262 53.4223 59.2959 53.9698 60.441 53.5375C61.0156 53.3207 61.5746 52.7798 61.8533 52.1711C62.136 51.5535 62.1383 50.7503 61.8593 50.1407C61.4734 49.298 60.6955 48.7765 59.7351 48.7167C59.447 48.6987 59.1244 48.7127 59.0184 48.7478ZM28.601 48.8815C28.5754 48.9071 28.5088 48.9099 28.4531 48.8876C28.3916 48.8629 28.4099 48.8447 28.4997 48.841C28.5811 48.8376 28.6266 48.8559 28.601 48.8815ZM36.7787 48.8815C36.7531 48.9071 36.6865 48.9099 36.6309 48.8876C36.5693 48.8629 36.5876 48.8447 36.6775 48.841C36.7588 48.8376 36.8043 48.8559 36.7787 48.8815ZM8.64043 48.9846C8.64043 49.0246 8.67476 49.0784 8.71673 49.1043C8.76039 49.1313 8.77335 49.1004 8.74705 49.0318C8.69574 48.8981 8.64043 48.8737 8.64043 48.9846ZM37.3989 57.2646L37.3782 65.5375L37.1541 66.0228C36.8758 66.6257 36.2803 67.1916 35.6614 67.4415L35.2181 67.6205H23.7229C12.527 67.6205 12.2159 67.6166 11.7679 67.4698C11.1081 67.2536 10.5898 66.8027 10.2605 66.1586L9.99053 65.6302L9.97024 57.3091L9.94994 48.9879L23.6847 48.9898L37.4195 48.9916L37.3989 57.2646ZM60.5095 49.8894C61.2926 50.4411 61.3967 51.5541 60.7308 52.2558C59.7379 53.3018 58.0926 52.6359 58.0926 51.1879C58.0926 50.5143 58.4219 49.994 59.0189 49.7245C59.4313 49.5382 60.119 49.6144 60.5095 49.8894ZM46.9061 50.3733C46.9061 50.5596 46.9489 50.5783 47.0101 50.4189C47.034 50.3566 47.0204 50.2851 46.9798 50.26C46.9392 50.235 46.9061 50.286 46.9061 50.3733ZM66.6662 50.5373C65.8331 50.7031 65.0193 51.3989 64.7562 52.1706C64.3448 53.3768 64.9361 54.7338 66.1024 55.2606C66.6604 55.5125 67.4906 55.4929 68.0598 55.2145C68.6282 54.9364 69.2221 54.2924 69.3977 53.7637C69.5764 53.2259 69.5244 52.318 69.2887 51.8598C68.7996 50.9088 67.6677 50.338 66.6662 50.5373ZM21.8376 51.136C21.3238 51.4116 21.2928 51.5621 21.2928 53.7843V55.766L20.8106 55.8116C20.5454 55.8367 19.6848 55.8482 18.8982 55.837C17.6414 55.8193 17.4427 55.8332 17.2604 55.9525C16.8466 56.2231 16.7829 56.4677 16.754 57.8974C16.7199 59.5823 16.7669 59.9616 17.0495 60.2779L17.2681 60.5229L19.2611 60.5614L21.2542 60.6L21.2928 62.683C21.3458 65.5504 21.1935 65.3832 23.754 65.3832C25.2727 65.3832 25.5294 65.3657 25.7458 65.2474C26.1759 65.0123 26.1884 64.9463 26.2303 62.683L26.2688 60.6L28.2823 60.5614C30.4508 60.5198 30.4481 60.5204 30.6714 60.0887C30.7573 59.9227 30.782 59.5092 30.782 58.2432C30.782 56.4919 30.7273 56.1944 30.367 55.9877C30.2557 55.924 29.5739 55.8816 28.2361 55.8554L26.2688 55.8168L26.2303 53.6952C26.1881 51.3723 26.1797 51.3298 25.7179 51.1107C25.5243 51.0189 25.1267 50.995 23.7872 50.995C22.3009 50.995 22.0692 51.0118 21.8376 51.136ZM47.8012 51.0593C47.7794 51.0947 47.8105 51.1236 47.8704 51.1236C47.9304 51.1236 47.9614 51.0947 47.9396 51.0593C47.9178 51.024 47.8866 50.995 47.8704 50.995C47.8542 50.995 47.823 51.024 47.8012 51.0593ZM67.7165 51.5766C68.0871 51.7314 68.2583 51.8922 68.4476 52.263C68.7229 52.8026 68.6021 53.6073 68.176 54.0708C67.7793 54.5023 66.9724 54.6681 66.4786 54.4195C65.5108 53.932 65.2504 52.8049 65.9239 52.018C66.0678 51.8499 66.3001 51.6559 66.44 51.5869C66.7628 51.4278 67.3492 51.4231 67.7165 51.5766ZM25.2119 52.0134C25.2796 52.0811 25.3045 52.7016 25.3045 54.3234C25.3045 56.5275 25.3055 56.5417 25.476 56.661C25.6207 56.7625 25.9674 56.7812 27.7025 56.7812H29.7576L29.8063 57.1862C29.8694 57.7122 29.8623 58.9759 29.7939 59.3482L29.7405 59.6393L27.7234 59.6568C25.864 59.6728 25.6936 59.6857 25.5444 59.8208C25.2735 60.0661 25.2282 60.4446 25.2278 62.4709L25.2273 64.4189H23.7661H22.3048L22.281 62.3129C22.2598 60.4388 22.2419 60.1837 22.1181 59.9951C22.0416 59.8784 21.8918 59.7499 21.7852 59.7093C21.6786 59.6688 20.7257 59.6357 19.6676 59.6357H17.7439V58.2084V56.7812H19.8304H21.917L22.1063 56.5918L22.2957 56.4024V54.213C22.2957 53.0089 22.3188 52.0005 22.3472 51.9723C22.4442 51.8751 25.112 51.9135 25.2119 52.0134ZM8.66704 53.1971C8.64189 53.2626 8.63858 53.3334 8.65964 53.3545C8.68078 53.3755 8.7165 53.3219 8.7391 53.2354C8.78724 53.0516 8.73378 53.0232 8.66704 53.1971ZM46.7076 53.2353C46.4499 53.317 46.0977 53.4799 45.9249 53.5974C45.4631 53.9112 42.3201 56.6679 42.0068 57.0339C41.6653 57.4329 41.4283 58.0654 41.3729 58.7258C41.3008 59.5864 41.5524 60.2719 42.1671 60.8894C42.8291 61.5543 43.6596 61.8277 44.6302 61.7002C45.3107 61.6109 45.7715 61.348 46.7243 60.5058C47.1937 60.0908 47.9367 59.4389 48.3755 59.057C49.767 57.846 49.8303 57.7795 50.0884 57.2552C50.3181 56.7887 50.3392 56.6842 50.3392 56.0114C50.3392 55.3753 50.3114 55.2174 50.1318 54.8342C49.7609 54.0431 48.9979 53.4223 48.1019 53.1829C47.5872 53.0454 47.2684 53.0574 46.7076 53.2353ZM8.7077 53.9074C8.61181 54.0297 8.61451 54.0324 8.73686 53.9365C8.81116 53.8783 8.87187 53.8175 8.87187 53.8015C8.87187 53.738 8.80853 53.7789 8.7077 53.9074ZM48.3527 54.3246C49.2423 54.7476 49.616 55.9318 49.1488 56.8476C49.0056 57.1283 47.6705 58.4013 47.5194 58.4013C47.4683 58.4013 45.8372 56.5216 45.2508 55.7868L45.0998 55.5977L45.6365 55.1055C46.7448 54.0891 47.4381 53.8898 48.3527 54.3246ZM57.5488 54.5675C57.0636 54.7042 56.6936 54.9483 56.2884 55.399C54.887 56.9577 56.0126 59.4042 58.1311 59.4042C59.0935 59.4042 59.8577 58.9373 60.3048 58.076C60.4869 57.7254 60.5166 57.5767 60.5169 57.0126C60.5171 56.508 60.4795 56.2737 60.3533 55.9961C59.8651 54.9219 58.5921 54.2735 57.5488 54.5675ZM8.75615 54.621C8.78238 54.6634 8.8191 54.6982 8.83785 54.6982C8.8566 54.6982 8.87187 54.6634 8.87187 54.621C8.87187 54.5786 8.83507 54.5439 8.79017 54.5439C8.74527 54.5439 8.72992 54.5786 8.75615 54.621ZM8.7077 55.1373C8.64953 55.2091 8.64228 55.2436 8.69173 55.214C8.74111 55.1843 8.79835 55.2037 8.81887 55.257C8.83939 55.3103 8.85228 55.2758 8.84757 55.1803C8.83739 54.9725 8.84055 54.9735 8.7077 55.1373ZM58.7673 55.5883C58.9235 55.6536 59.1182 55.7664 59.2 55.839C59.4434 56.0551 59.632 56.5584 59.6339 56.9964C59.6391 58.2685 58.2709 58.9821 57.2477 58.2409C56.4758 57.6816 56.3499 56.7329 56.947 55.9738C57.3134 55.5081 58.1507 55.3307 58.7673 55.5883ZM46.0121 58.1026L46.837 59.057L46.2737 59.5779C45.3314 60.4493 44.9714 60.6653 44.4019 60.7016C43.3524 60.7684 42.5737 60.2049 42.3555 59.2206C42.2885 58.9186 42.2962 58.7585 42.3943 58.4105C42.506 58.0146 42.595 57.9014 43.4191 57.107L44.3216 56.2372L44.7544 56.6926C44.9925 56.9431 45.5584 57.5776 46.0121 58.1026ZM64.955 56.3417C64.4908 56.4728 64.1112 56.7144 63.7618 57.1012C63.2977 57.6149 63.1473 58.0276 63.1473 58.787C63.1473 59.5937 63.3136 60.0037 63.864 60.5541C64.5069 61.1969 65.5254 61.4169 66.3794 61.0973C66.9393 60.8878 67.5196 60.3564 67.7901 59.8056C68.0743 59.2268 68.0956 58.3311 67.8383 57.7705C67.3423 56.6898 66.0281 56.0385 64.955 56.3417ZM8.73262 56.974C8.73416 57.1013 8.75144 57.1441 8.77104 57.069C8.79064 56.9939 8.78932 56.8898 8.76819 56.8376C8.74705 56.7853 8.73108 56.8467 8.73262 56.974ZM66.0467 57.2559C66.4846 57.4044 66.7421 57.6336 66.9342 58.0465C67.2338 58.6898 67.1398 59.3226 66.6713 59.8163C66.1625 60.3523 65.5555 60.4584 64.8916 60.1276C64.2942 59.8299 64.0716 59.457 64.0716 58.7538C64.0716 58.1184 64.253 57.7448 64.6937 57.4724C65.1815 57.1709 65.5992 57.1041 66.0467 57.2559ZM8.70315 58.2997C8.75877 58.322 8.82535 58.3192 8.85097 58.2936C8.87658 58.268 8.83106 58.2498 8.74975 58.2531C8.65987 58.2568 8.64159 58.2751 8.70315 58.2997ZM70.2881 60.1435C70.2918 60.2334 70.3101 60.2517 70.3347 60.1902C70.357 60.1345 70.3542 60.0679 70.3286 60.0423C70.303 60.0167 70.2848 60.0622 70.2881 60.1435ZM8.64043 60.1289C8.64043 60.1455 8.69428 60.1799 8.76016 60.2052C8.82882 60.2315 8.85976 60.2185 8.83276 60.1748C8.78747 60.1015 8.64043 60.0664 8.64043 60.1289ZM55.7965 60.4677C55.24 60.6815 54.7735 61.0951 54.4727 61.6415C54.22 62.1005 54.1967 62.1952 54.1985 62.7602C54.201 63.5389 54.4081 64.0394 54.9298 64.5274C55.3414 64.9124 55.6967 65.0867 56.3001 65.1997C57.043 65.3388 57.9752 64.9715 58.5187 64.3254C59.0829 63.6549 59.224 62.587 58.8528 61.7958C58.4393 60.9143 57.5416 60.3255 56.6268 60.3357C56.3509 60.3388 55.9773 60.3982 55.7965 60.4677ZM57.2196 61.3379C57.5284 61.4545 57.8572 61.7838 58.0234 62.143C58.6398 63.4741 57.0409 64.899 55.8449 64.0845C54.9874 63.5005 54.8368 62.4896 55.4955 61.7394C55.6281 61.5884 55.8415 61.4191 55.9695 61.3633C56.2533 61.2396 56.9237 61.226 57.2196 61.3379ZM42.6587 61.5756C42.5628 61.6424 42.5634 61.6485 42.6629 61.6192C42.7265 61.6005 42.8394 61.6164 42.9136 61.6546C42.9878 61.6928 43.0486 61.7067 43.0486 61.6855C43.0486 61.584 42.7626 61.5033 42.6587 61.5756ZM45.4743 61.6005C45.3919 61.6628 45.3636 61.7149 45.4115 61.7162C45.4594 61.7176 45.5417 61.6666 45.5945 61.6029C45.7165 61.456 45.6667 61.455 45.4743 61.6005ZM63.5496 62.107C62.1398 62.4594 61.3577 63.9212 61.8273 65.3263C62.0095 65.8713 62.5915 66.5035 63.125 66.7356C63.6719 66.9737 64.5353 66.9825 65.0453 66.7553C66.6284 66.0501 67.0052 63.9864 65.7756 62.7568C65.2101 62.1913 64.2884 61.9223 63.5496 62.107ZM64.6888 63.0993C65.2855 63.3756 65.576 63.8329 65.576 64.496C65.576 65.1591 65.2855 65.6164 64.6888 65.8927C64.3086 66.0688 64.0858 66.0738 63.626 65.9172C63.0433 65.7187 62.568 65.0628 62.568 64.4574C62.568 63.3872 63.7189 62.6502 64.6888 63.0993ZM8.70315 63.3143C8.75877 63.3366 8.82535 63.3338 8.85097 63.3082C8.87658 63.2826 8.83106 63.2644 8.74975 63.2677C8.65987 63.2714 8.64159 63.2897 8.70315 63.3143ZM51.2649 63.7245C51.236 63.8158 51.2296 63.9078 51.2508 63.929C51.272 63.9503 51.3132 63.8929 51.3421 63.8017C51.371 63.7104 51.3774 63.6184 51.3562 63.5971C51.335 63.5759 51.2939 63.6333 51.2649 63.7245ZM8.75615 65.4218C8.72992 65.4642 8.74527 65.4989 8.79017 65.4989C8.83507 65.4989 8.87187 65.4642 8.87187 65.4218C8.87187 65.3794 8.8566 65.3446 8.83785 65.3446C8.8191 65.3446 8.78238 65.3794 8.75615 65.4218ZM8.79472 65.7304C8.79472 65.7728 8.83152 65.8075 8.87642 65.8075C8.92132 65.8075 8.93668 65.7728 8.91045 65.7304C8.88422 65.6879 8.84749 65.6532 8.82875 65.6532C8.81 65.6532 8.79472 65.6879 8.79472 65.7304ZM54.4126 66.1008C53.5714 66.4013 52.9587 67.0461 52.7633 67.8369C52.6386 68.3417 52.7111 69.0822 52.931 69.5492C53.7795 71.3517 56.3654 71.3456 57.2548 69.5389C57.4747 69.0921 57.5103 68.9394 57.512 68.4348C57.5137 67.9259 57.4806 67.7813 57.2594 67.3318C56.8524 66.5049 56.2122 66.0812 55.2389 65.9951C54.9401 65.9687 54.6945 66.0001 54.4126 66.1008ZM55.7485 67.0352C56.606 67.4246 56.879 68.6005 56.292 69.3759C55.9751 69.7945 55.6185 69.9732 55.1 69.9734C54.2071 69.9737 53.6155 69.3657 53.6197 68.4523C53.6248 67.3202 54.7406 66.5775 55.7485 67.0352ZM9.33476 67.0419C9.33476 67.0843 9.37156 67.119 9.41646 67.119C9.46136 67.119 9.47672 67.0843 9.45049 67.0419C9.42426 66.9995 9.38753 66.9648 9.36879 66.9648C9.35004 66.9648 9.33476 66.9995 9.33476 67.0419ZM9.90049 67.7782C9.90049 67.84 9.92942 67.8905 9.96484 67.8905C10.0002 67.8905 10.0291 67.8579 10.0291 67.8179C10.0291 67.778 10.0002 67.7274 9.96484 67.7056C9.92942 67.6838 9.90049 67.7164 9.90049 67.7782ZM62.0657 67.8035C60.9543 68.0941 60.1571 69.0857 60.1499 70.1868C60.1413 71.4829 61.1373 72.5491 62.4555 72.6549C63.4113 72.7317 64.2662 72.2325 64.7273 71.3285C64.967 70.8587 64.9971 70.7332 64.995 70.2128C64.9932 69.7733 64.9486 69.528 64.8171 69.2335C64.5974 68.7416 64.0333 68.1803 63.5403 67.963C63.1309 67.7825 62.4341 67.7072 62.0657 67.8035ZM50.1817 67.9729C50.1537 68.0181 50.1474 68.0717 50.1676 68.0919C50.1878 68.1121 50.2249 68.0751 50.25 68.0096C50.3022 67.8736 50.2578 67.8497 50.1817 67.9729ZM10.4943 68.2102C10.4914 68.3696 10.6644 68.4408 10.8076 68.339C10.8942 68.2774 10.8892 68.2704 10.7833 68.3044C10.7043 68.3297 10.6192 68.2936 10.5735 68.2152C10.5042 68.0963 10.4965 68.0958 10.4943 68.2102ZM63.1665 68.7814C64.2003 69.2134 64.4314 70.5993 63.5991 71.3766C63.3084 71.6481 63.0287 71.748 62.5583 71.748C61.6902 71.748 61.1014 71.1399 61.1014 70.2436C61.1014 69.1196 62.1682 68.3643 63.1665 68.7814ZM67.5401 70.673C67.5121 70.7183 67.5058 70.7719 67.526 70.7921C67.5462 70.8123 67.5833 70.7753 67.6084 70.7098C67.6606 70.5738 67.6162 70.5499 67.5401 70.673ZM51.2264 72.1466C51.2264 72.1819 51.259 72.2108 51.299 72.2108C51.3389 72.2108 51.3895 72.1819 51.4113 72.1466C51.4331 72.1112 51.4005 72.0822 51.3387 72.0822C51.2769 72.0822 51.2264 72.1112 51.2264 72.1466ZM55.6839 73.334C55.7784 73.4001 55.8965 73.4288 55.9467 73.3978C56.0093 73.3591 55.9911 73.3231 55.8888 73.2831C55.6187 73.1773 55.5018 73.2064 55.6839 73.334ZM57.9934 73.962C58.0225 74.0379 58.0562 74.0558 58.0733 74.0045C58.0942 73.9417 58.1609 73.9379 58.3013 73.9913C58.4104 74.0328 58.514 74.0524 58.5316 74.0349C58.5639 74.0025 58.122 73.831 58.0063 73.831C57.9715 73.831 57.9657 73.89 57.9934 73.962ZM60.0069 74.4237C60.0625 74.446 60.1291 74.4432 60.1547 74.4176C60.1803 74.392 60.1348 74.3738 60.0535 74.3771C59.9636 74.3808 59.9453 74.3991 60.0069 74.4237ZM62.3985 75.0409C62.4541 75.0632 62.5207 75.0604 62.5463 75.0348C62.5719 75.0092 62.5264 74.991 62.4451 74.9943C62.3552 74.998 62.3369 75.0163 62.3985 75.0409ZM62.6443 75.1342C62.6443 75.1862 62.6042 75.204 62.5552 75.1737C62.4978 75.1382 62.4873 75.1527 62.5254 75.2145C62.5675 75.2825 62.6085 75.2863 62.6672 75.2277C62.7126 75.1822 62.726 75.1213 62.697 75.0923C62.6681 75.0633 62.6443 75.0822 62.6443 75.1342Z" fill="#008ABD"/>
</svg>
