<svg width="79" height="79" viewBox="0 0 79 79" fill="none" xmlns="http://www.w3.org/2000/svg">
<path fill-rule="evenodd" clip-rule="evenodd" d="M39.2167 6.1305C38.7372 6.33911 38.6959 6.49549 38.7155 8.02782C38.7273 8.94364 38.7055 9.41772 38.65 9.45198C38.5923 9.4877 38.5914 9.5329 38.6471 9.59995C38.6959 9.65873 38.7212 10.1175 38.7116 10.772C38.7006 11.5318 38.7266 11.9213 38.8003 12.0993C38.9098 12.3635 39.223 12.5756 39.5038 12.5756C39.7661 12.5756 40.1058 12.3339 40.1923 12.0858C40.2406 11.9474 40.2717 10.848 40.2717 9.2814C40.2717 6.4104 40.2594 6.3331 39.7676 6.12757C39.4594 5.99881 39.5203 5.9985 39.2167 6.1305ZM20.9846 11.2595C20.9846 11.2994 21.0189 11.3533 21.0609 11.3792C21.1046 11.4062 21.1175 11.3753 21.0912 11.3066C21.0399 11.173 20.9846 11.1485 20.9846 11.2595ZM21.4027 11.4095C21.272 11.4892 21.1206 11.6619 21.0662 11.7933C20.9236 12.1374 20.9925 12.261 22.3536 14.1002C22.5337 14.3436 22.6651 14.5858 22.6457 14.6384C22.6262 14.6909 22.64 14.7256 22.6762 14.7155C22.7818 14.6861 23.0694 15.0556 23.0151 15.1507C22.9879 15.1983 22.9942 15.2114 23.0289 15.1799C23.0638 15.1483 23.3468 15.4673 23.658 15.8887C24.2666 16.7131 24.465 16.8959 24.7508 16.8959C25.0026 16.8959 25.3517 16.6766 25.4526 16.4552C25.5715 16.1941 25.5563 15.8512 25.4206 15.7386C25.357 15.6858 25.3049 15.5977 25.3049 15.5428C25.3049 15.4878 25.2741 15.4314 25.2365 15.4172C25.144 15.3824 24.6106 14.675 24.6106 14.5872C24.6106 14.5486 24.5834 14.5056 24.5502 14.4914C24.4972 14.4688 24.0001 13.8073 23.0454 12.4888C22.8846 12.2667 22.7713 12.0375 22.7937 11.9792C22.8161 11.9209 22.8036 11.8923 22.7659 11.9156C22.7282 11.9389 22.5938 11.8399 22.4672 11.6956C22.0633 11.2356 21.8027 11.1656 21.4027 11.4095ZM56.7815 11.3507C56.5688 11.4355 56.2414 11.7181 56.2414 11.8167C56.2414 11.8859 56.0644 12.1188 55.7996 12.398C55.7051 12.4976 55.6314 12.5988 55.6359 12.6229C55.6451 12.6724 55.4729 12.9178 54.5053 14.2343C53.3713 15.7768 53.2338 16.0138 53.3126 16.2886C53.4014 16.5984 53.5179 16.7311 53.806 16.8514C54.239 17.0321 54.4945 16.86 55.121 15.9659C55.3476 15.6426 55.58 15.3291 55.6374 15.269C55.6949 15.2091 55.8038 15.0634 55.8794 14.9454C55.9566 14.8247 56.0543 14.754 56.1024 14.7838C56.1532 14.8152 56.1664 14.8017 56.135 14.7507C56.0696 14.645 56.5053 14.0247 56.5907 14.1019C56.6244 14.1323 56.6291 14.1171 56.6012 14.0683C56.5732 14.0195 56.7339 13.7417 56.9581 13.4511C57.1823 13.1605 57.4268 12.8261 57.5013 12.7081C57.5759 12.5901 57.6614 12.5084 57.6914 12.5267C57.7213 12.5449 57.755 12.4048 57.7663 12.215C57.7901 11.8116 57.61 11.4494 57.3535 11.385C57.2589 11.3612 57.1349 11.3265 57.0779 11.3078C57.0209 11.289 56.8875 11.3083 56.7815 11.3507ZM37.9572 15.2037C37.5117 15.235 36.9435 15.2984 36.6946 15.3444C36.4458 15.3905 36.2138 15.4106 36.1792 15.3892C36.1446 15.3679 36.0974 15.3811 36.0742 15.4186C36.051 15.4561 35.8661 15.5089 35.6634 15.5357C35.1632 15.6021 33.3675 16.1498 32.5764 16.4772C29.4879 17.7558 26.6606 19.9677 24.7994 22.5617C24.4432 23.0581 24.1919 23.4545 23.4515 24.6879C23.3623 24.8364 22.8198 26.0134 22.7936 26.1151C22.7827 26.1575 22.6535 26.5047 22.5066 26.8866C22.0104 28.1757 21.5011 30.5098 21.4121 31.9022C21.339 33.0439 21.3668 34.5049 21.4808 35.5272C21.5796 36.4133 22.1245 38.6317 22.4127 39.3214C22.5506 39.6515 22.5583 39.7599 22.4385 39.6859C22.3828 39.6515 22.3704 39.6648 22.4053 39.7212C22.436 39.7709 22.4882 39.7947 22.5214 39.7742C22.6035 39.7235 22.9999 40.6571 22.9384 40.7565C22.9115 40.8001 22.9255 40.8134 22.9695 40.7862C23.0435 40.7405 23.2564 41.1242 23.2233 41.2435C23.2153 41.2725 23.2386 41.3174 23.275 41.3433C23.4111 41.4402 24.1468 42.7567 24.1039 42.8263C24.0792 42.8661 24.0935 42.8892 24.1356 42.8775C24.1778 42.8659 24.4067 43.1167 24.6443 43.4349C25.2563 44.2545 25.8263 44.8957 26.7648 45.8205C27.2136 46.2627 27.5712 46.6558 27.5596 46.6941C27.5479 46.7324 27.5694 46.7446 27.6072 46.7212C27.7369 46.6411 29.7024 48.869 29.7024 49.0962C29.7024 49.1259 29.7679 49.2207 29.8479 49.3066C30.0341 49.5064 30.7109 50.8663 30.7264 51.0714C30.7328 51.157 30.7627 51.2269 30.7927 51.2269C30.8228 51.2269 30.8742 51.3398 30.907 51.4777C30.9848 51.8048 30.9748 51.7733 31.078 52.0222C31.2729 52.4927 31.7082 54.4932 31.7082 54.9188C31.7082 54.9599 31.5751 55.0161 31.4124 55.0436C30.8472 55.1391 30.3579 55.5833 30.1778 56.1644C30.0418 56.6034 29.9961 57.7488 30.0947 58.2498C30.1441 58.5009 30.1869 58.7334 30.1899 58.7663C30.1959 58.8341 30.2224 58.8706 30.5501 59.2626L30.7861 59.5449L30.6107 59.6869C30.5142 59.765 30.3524 59.9986 30.2511 60.2057C30.0911 60.5331 30.0653 60.7042 30.0546 61.5115C30.0431 62.3754 30.0569 62.4715 30.2517 62.8834C30.3669 63.1269 30.438 63.3494 30.4097 63.3777C30.3813 63.406 30.3928 63.4178 30.4353 63.4038C30.4777 63.3898 30.6339 63.4702 30.7824 63.5823C31.1734 63.8777 31.6809 64.0232 32.3937 64.0443C32.9679 64.0613 33.0198 64.076 33.0211 64.2218C33.0233 64.488 33.2962 65.4347 33.5048 65.9C33.6415 66.205 33.6741 66.3506 33.6115 66.3761C33.5579 66.398 33.569 66.4155 33.6387 66.4191C33.7033 66.4224 33.8247 66.5554 33.9085 66.7145C33.9923 66.8736 34.0957 67.0444 34.1382 67.0939C34.1807 67.1435 34.4065 67.4071 34.6399 67.6798C35.1537 68.2799 35.8568 68.8048 36.6843 69.2059C37.9349 69.812 39.0693 69.9514 40.8117 69.7132C41.388 69.6344 42.0971 69.3807 42.5476 69.0923C42.6749 69.0109 42.97 68.8223 43.2033 68.6734C43.4367 68.5245 43.8457 68.182 44.1122 67.9123C44.3913 67.6298 44.6335 67.4446 44.6834 67.4755C44.7384 67.5094 44.7485 67.4941 44.7112 67.4337C44.6761 67.3769 44.7597 67.177 44.9179 66.9396C45.4585 66.1283 45.6517 65.6881 45.9033 64.6956C45.9885 64.3596 46.067 64.0758 46.0779 64.065C46.0887 64.0541 46.4009 64.0358 46.7717 64.0242C47.4592 64.0026 47.9508 63.8416 48.3358 63.5118C48.8143 63.1019 49.0364 62.2814 48.9564 61.2196C48.9001 60.4732 48.733 59.9898 48.4251 59.6819L48.2363 59.4931L48.4572 59.2815C48.8385 58.9162 48.9511 58.4849 48.9489 57.3988C48.9466 56.319 48.8653 55.9833 48.507 55.5752C48.234 55.2643 47.9367 55.0955 47.5316 55.0215L47.2428 54.9686L47.4091 54.12C47.8377 51.9337 48.4666 50.3278 49.4666 48.8663C49.9193 48.2045 50.0915 48.0151 52.0041 46.0751C53.8513 44.2016 54.8965 42.8447 55.7103 41.2644C55.8493 40.9943 55.9854 40.756 56.0126 40.7347C56.0398 40.7135 56.0827 40.6267 56.108 40.5419C56.1333 40.457 56.2727 40.0925 56.4178 39.7318C56.8003 38.7807 56.8027 38.7746 56.827 38.6903C57.3608 36.8358 57.5507 35.6392 57.606 33.7826C57.6639 31.8405 57.481 30.2452 56.9969 28.4681C55.9719 24.705 54.1723 21.8872 51.1918 19.378C50.8079 19.0549 50.4765 18.7722 50.4553 18.7497C50.4341 18.7272 50.0672 18.4786 49.6401 18.1971C48.2893 17.307 46.6195 16.4895 45.2478 16.0466C44.9507 15.9507 44.6736 15.8525 44.632 15.8284C44.5902 15.8043 44.5034 15.7785 44.4391 15.7712C44.3747 15.7638 44.1484 15.7158 43.9362 15.6645C43.4045 15.5359 42.004 15.2822 41.5832 15.2383C40.9093 15.168 38.7572 15.1475 37.9572 15.2037ZM41.9349 16.6282C44.4259 16.978 46.6151 17.7784 48.6809 19.0948C51.2123 20.7079 53.3397 23.0674 54.5931 25.6522C56.2904 29.1524 56.8046 33.0319 56.0521 36.6598C55.6208 38.7394 54.9554 40.3339 53.7925 42.0743C53.0549 43.1783 52.7273 43.5564 50.8423 45.4794C49.2064 47.1481 48.6617 47.8055 47.9896 48.9217C47.2255 50.1903 46.498 52.2242 46.2541 53.7728C46.1839 54.2184 46.1104 54.6612 46.0906 54.7569L46.0547 54.9309L39.4832 54.9112L32.9117 54.8915L32.7456 53.8885C32.1331 50.1918 30.9448 48.0716 27.9178 45.2744C27.0366 44.46 25.9212 43.1654 25.289 42.2229C24.6658 41.2939 23.7733 39.4828 23.4341 38.4589C21.983 34.0781 22.5115 28.9599 24.8384 24.8606C27.5107 20.1529 32.3934 17.0188 37.8415 16.5145C38.8283 16.4231 40.8796 16.4801 41.9349 16.6282ZM38.7864 23.4093C38.1534 23.6352 37.5818 24.246 37.1534 25.1541C36.7365 26.0379 36.6299 26.5288 36.5885 27.7545C36.5681 28.3591 36.538 28.8539 36.5216 28.8539C36.5052 28.8539 36.3268 28.7365 36.1251 28.5929C34.3783 27.3496 32.0522 27.1567 30.909 28.1604C30.4062 28.6018 30.281 28.9324 30.281 29.8182C30.281 30.5545 30.2943 30.617 30.5734 31.1882C31.0552 32.1738 32.1247 33.1713 33.2326 33.6681C33.5497 33.8103 33.6605 33.9442 33.4633 33.9471C33.2604 33.95 32.1585 34.6598 31.7049 35.0798C30.7951 35.9221 30.2473 36.9903 30.244 37.9284C30.2409 38.859 30.6315 39.4947 31.4558 39.9005C31.9015 40.1199 32.0596 40.1554 32.7051 40.1804C33.8506 40.2249 34.8094 39.9553 35.9555 39.2665C36.3063 39.0557 36.6002 38.8832 36.6087 38.8832C36.6173 38.8832 36.6085 39.2043 36.5892 39.5968C36.5011 41.3889 37.4481 43.395 38.6341 43.9288L38.9602 44.0756V47.9149C38.9602 50.0267 38.9818 51.8106 39.0081 51.8792C39.0778 52.061 39.4472 52.2288 39.662 52.1762C40.1034 52.0684 40.1174 52.0166 40.1174 50.4976V49.098L40.831 49.0071C42.1805 48.8354 43.3235 48.2978 44.2477 47.3999C44.9731 46.6951 45.581 45.6007 45.787 44.6285C45.9631 43.7969 45.9423 43.539 45.678 43.2747C45.4707 43.0673 45.408 43.0492 44.8984 43.0492C43.2194 43.0492 41.3399 44.236 40.4086 45.8844C40.2828 46.1071 40.1658 46.2894 40.1486 46.2894C40.1314 46.2894 40.1174 45.7903 40.1174 45.1801V44.0709L40.362 43.9695C40.7754 43.7983 41.4613 43.0572 41.7656 42.4529C42.2213 41.548 42.3843 40.8435 42.3891 39.7586C42.3918 39.1552 42.4207 38.8376 42.4704 38.8674C42.5129 38.8929 42.7038 39.0244 42.8947 39.1595C43.8378 39.8272 44.96 40.1947 46.0561 40.1947C47.1841 40.1947 47.9149 39.8621 48.3725 39.1404C48.8532 38.3825 48.8422 37.4721 48.34 36.4524C47.8701 35.4984 46.7605 34.4815 45.7239 34.0552C45.526 33.9737 45.364 33.8885 45.3638 33.8658C45.3637 33.8431 45.5979 33.7093 45.8842 33.5685C47.0274 33.0066 47.8355 32.2637 48.3255 31.3243C49.1486 29.7463 48.7122 28.2378 47.2707 27.678C46.7583 27.4791 45.7014 27.4707 44.9361 27.6595C44.2722 27.8233 43.4072 28.2138 42.8191 28.6152L42.3738 28.9192L42.335 27.8257C42.3038 26.943 42.2566 26.5985 42.09 26.038C41.492 24.0261 40.1192 22.9337 38.7864 23.4093ZM67.3085 27.3049C67.324 27.3298 67.1748 27.3518 66.9772 27.3537C66.7796 27.3555 66.0798 27.5011 65.4221 27.6771C64.7644 27.8532 64.1395 28.0152 64.0334 28.0371C63.9273 28.059 63.5036 28.1652 63.0918 28.2731C62.68 28.381 62.2486 28.4771 62.1332 28.4867C61.8178 28.5127 61.4104 28.933 61.4104 29.2321C61.4104 29.5626 61.6017 29.8316 61.9087 29.9329C62.1305 30.0061 62.4568 29.9428 64.4675 29.4359C65.7351 29.1163 66.9138 28.8172 67.087 28.7712C67.6129 28.6313 67.8346 28.0174 67.5087 27.6031C67.4097 27.4772 67.3842 27.3855 67.4342 27.3355C67.4842 27.2855 67.4708 27.2595 67.3953 27.2595C67.3321 27.2595 67.2931 27.2799 67.3085 27.3049ZM11.6642 27.366C11.5662 27.3847 11.4669 27.4494 11.4438 27.5098C11.4207 27.5701 11.3609 27.6195 11.3109 27.6195C11.2596 27.6195 11.227 27.7117 11.2358 27.8317C11.2444 27.9483 11.2542 28.1169 11.2576 28.2061C11.2647 28.3884 11.5912 28.7767 11.7375 28.7767C11.7899 28.7767 12.9544 29.0545 14.3254 29.3939C15.6964 29.7334 16.8904 30.0111 16.9786 30.0111C17.0668 30.0111 17.2405 29.9097 17.3646 29.7856C17.6296 29.5206 17.6697 29.0751 17.4534 28.8002C17.3274 28.6401 16.5117 28.3564 15.9314 28.2709C15.8041 28.2521 15.3007 28.1329 14.8127 28.006C14.3247 27.8791 13.8214 27.7545 13.6941 27.7291C13.5668 27.7036 13.107 27.5991 12.6725 27.4968C12.2379 27.3946 11.8734 27.3156 11.8624 27.3214C11.8514 27.3272 11.7623 27.3472 11.6642 27.366ZM13.0077 27.3752C12.9858 27.4106 13.0169 27.4395 13.0769 27.4395C13.1368 27.4395 13.1679 27.4106 13.1461 27.3752C13.1242 27.3398 13.0931 27.3109 13.0769 27.3109C13.0607 27.3109 13.0295 27.3398 13.0077 27.3752ZM40.5953 31.4177C41.1727 31.682 41.6581 32.1413 41.9319 32.6825C42.1251 33.0643 42.1554 33.2122 42.1584 33.7868C42.1615 34.3847 42.1368 34.5012 41.9082 34.9654C41.6278 35.5352 41.1781 35.9832 40.597 36.2722C40.2922 36.4236 40.1141 36.453 39.5002 36.453C38.8784 36.453 38.7088 36.4243 38.3816 36.2637C36.7375 35.4569 36.3038 33.3729 37.5061 32.0574C38.1221 31.3834 38.6684 31.1558 39.5789 31.1937C40.001 31.2113 40.2779 31.2723 40.5953 31.4177ZM17.7456 44.0534C16.8905 44.4785 16.1531 44.8029 16.107 44.7744C16.0604 44.7456 16.0452 44.7581 16.0727 44.8025C16.1012 44.8488 15.7562 45.0682 15.2552 45.3225C14.3275 45.7932 14.1228 45.9717 14.1201 46.3126C14.1163 46.7932 14.509 47.1451 14.967 47.0714C15.0868 47.0521 15.9265 46.6346 17.5901 45.767C20.0922 44.4621 20.0588 44.485 20.0588 44.0722C20.0588 43.9283 20.0231 43.7438 19.9793 43.6621C19.9024 43.5182 19.5259 43.2806 19.3749 43.2806C19.3339 43.2806 18.6008 43.6283 17.7456 44.0534ZM59.1903 43.4096C59.1361 43.4314 59.0275 43.5761 58.9489 43.7313C58.6948 44.2335 58.9021 44.5259 59.8674 45.0269C60.2281 45.2141 60.7662 45.4973 61.0632 45.6562C61.3602 45.8152 61.933 46.1165 62.3362 46.326C62.7393 46.5354 63.0806 46.7343 63.0948 46.7681C63.1089 46.8018 63.1801 46.8295 63.2529 46.8295C63.3257 46.8295 63.4184 46.8622 63.4587 46.9022C63.4989 46.9422 63.6772 47.0075 63.8547 47.0472C64.1189 47.1063 64.2197 47.0938 64.4092 46.9785C64.8231 46.7269 64.9246 46.3081 64.6548 45.9652C64.5723 45.8602 64.2511 45.6469 63.9412 45.4913C62.4344 44.7343 61.5928 44.2893 61.4894 44.1947C61.4268 44.1375 61.3574 44.0953 61.3352 44.101C61.3129 44.1067 60.9568 43.9418 60.5438 43.7346C59.8416 43.3821 59.4766 43.2945 59.1903 43.4096ZM47.3694 56.186C47.7225 56.3624 47.842 56.7318 47.8165 57.567C47.7977 58.1815 47.765 58.3523 47.632 58.5313C47.3164 58.9562 47.5071 58.9472 39.315 58.9243C35.1525 58.9127 31.6916 58.8756 31.624 58.8418C31.3991 58.7293 31.1691 58.2038 31.1316 57.7167C31.0773 57.0113 31.1867 56.5554 31.4713 56.3011L31.7107 56.0873L39.4436 56.0884C45.471 56.0893 47.219 56.1108 47.3694 56.186ZM29.8628 56.9037C29.8665 56.9936 29.8847 57.0119 29.9094 56.9504C29.9316 56.8947 29.9289 56.8281 29.9033 56.8025C29.8776 56.7769 29.8594 56.8224 29.8628 56.9037ZM47.409 60.254C47.7129 60.4418 47.8218 60.6958 47.8386 61.2562C47.8681 62.2357 47.8483 62.3357 47.5699 62.614L47.3076 62.8763H39.5426C30.9755 62.8763 31.4635 62.905 31.2182 62.3881C31.1266 62.195 31.099 61.9514 31.1152 61.4782C31.1398 60.7575 31.249 60.479 31.5967 60.2497C31.8178 60.1041 32.0314 60.1 39.4911 60.0995C47.0353 60.099 47.1623 60.1015 47.409 60.254ZM49.0788 61.4877C49.0788 61.5938 49.0963 61.6372 49.1177 61.5841C49.1391 61.5311 49.1391 61.4443 49.1177 61.3912C49.0963 61.3382 49.0788 61.3816 49.0788 61.4877ZM44.8588 64.3615C44.5791 65.6581 43.4606 67.1875 42.2617 67.9124C40.0666 69.2397 36.8755 68.7395 35.3754 66.8331C34.8397 66.1521 34.0998 64.6333 34.0998 64.2143C34.0998 64.1286 35.032 64.1107 39.5063 64.1107H44.9129L44.8588 64.3615Z" fill="#008ABD"/>
</svg>
