<svg width="79" height="79" viewBox="0 0 79 79" fill="none" xmlns="http://www.w3.org/2000/svg">
<path fill-rule="evenodd" clip-rule="evenodd" d="M18.3355 7.38093C18.3284 7.38733 18.0275 7.40901 17.6668 7.42907C17.3062 7.44921 16.959 7.4847 16.8954 7.50799C16.8317 7.53137 16.6408 7.59286 16.471 7.64462C16.3013 7.69647 15.9567 7.83796 15.7052 7.95908C15.2317 8.18713 15.075 8.23674 15.2752 8.09517C15.3781 8.02242 15.3781 8.01679 15.2752 8.04487C15.2116 8.06223 15.1595 8.11562 15.1595 8.16345C15.1595 8.21136 15.0033 8.36357 14.8124 8.50174C14.6214 8.63999 14.443 8.78465 14.416 8.82322C14.3889 8.86187 14.3228 8.86627 14.269 8.8331C14.2104 8.79684 14.1906 8.80386 14.2195 8.85061C14.2853 8.95715 13.7399 9.58182 13.6367 9.5181C13.5863 9.48693 13.5767 9.50367 13.6122 9.56099C13.6441 9.6126 13.6187 9.71344 13.5558 9.78503C13.3794 9.98546 13.0747 10.6295 12.8737 11.2267L12.6919 11.7667L12.6692 19.2843C12.6517 25.0305 12.6243 26.8291 12.5528 26.9175C12.479 27.0089 12.4796 27.021 12.5558 26.9752C12.6327 26.929 12.6522 28.7352 12.6522 35.9041C12.6522 41.7529 12.6804 45.0939 12.7331 45.4726C12.7776 45.7925 12.8971 46.2985 12.9985 46.5968C13.1646 47.0851 13.17 47.1395 13.0526 47.1405C12.9496 47.1414 12.9443 47.1557 13.0274 47.2083C13.1162 47.2645 13.1162 47.2814 13.0274 47.3167C12.9513 47.347 12.9577 47.3603 13.0508 47.3647C13.1215 47.368 13.1915 47.3343 13.2064 47.2898C13.2212 47.2453 13.3664 47.4177 13.5291 47.673C13.886 48.2332 14.7774 49.0889 15.3698 49.4399C15.9855 49.8047 16.7809 50.0616 17.5254 50.1362C17.879 50.1716 19.9128 50.1975 22.045 50.1936C24.1772 50.1898 25.9217 50.2147 25.9217 50.2491C25.9217 50.2834 25.9652 50.2843 26.0182 50.251C26.0712 50.2178 26.1866 50.1806 26.2746 50.1685C26.4314 50.1469 26.4346 50.1751 26.439 51.5745L26.4435 53.0026L23.2317 53.0089C19.8494 53.0156 19.8457 53.0158 19.0555 53.2087C17.7418 53.5295 16.4778 54.5165 15.8637 55.7011C15.4261 56.5452 15.2958 57.0759 15.2411 58.2359C15.2245 58.5894 15.1907 58.899 15.1659 58.9237C15.1412 58.9485 15.1215 59.0064 15.1221 59.0523C15.1228 59.1017 15.1485 59.0963 15.1847 59.0391C15.2185 58.9859 15.2443 59.2692 15.2421 59.6687C15.2398 60.0681 15.2091 60.377 15.1737 60.3552C15.1385 60.3334 15.1534 60.3858 15.207 60.4716C15.287 60.5995 15.2845 60.6525 15.1935 60.7646C15.1324 60.8398 15.12 60.8788 15.1662 60.8513C15.2256 60.8156 15.2493 61.5029 15.2481 63.2281C15.2465 65.3754 15.2323 65.6551 15.1257 65.6561C15.0273 65.6571 15.0247 65.6696 15.1115 65.7247C15.17 65.7617 15.1955 65.8282 15.1682 65.8724C15.1408 65.9167 15.1601 65.9786 15.211 66.01C15.2756 66.05 15.2585 66.0849 15.1544 66.1257C15.0372 66.1716 15.0322 66.1852 15.1313 66.1896C15.2386 66.1942 15.2585 66.3099 15.2654 66.9688C15.2752 67.9111 15.308 68.0552 15.6264 68.5566C15.8076 68.8419 15.9805 69.002 16.2511 69.1352L16.6253 69.3195H35.681C54.3134 69.3195 54.7433 69.3162 55.0349 69.1714C55.4508 68.9651 55.8248 68.5564 55.9593 68.1616C56.022 67.9777 56.0623 67.8159 56.049 67.8019C56.0356 67.7879 56.6375 67.7711 57.3866 67.7645C59.3192 67.7474 60.5941 67.4651 61.9886 66.7455C62.2856 66.5923 62.5743 66.4716 62.6303 66.4775C62.6861 66.4833 62.7135 66.4698 62.6911 66.4475C62.6281 66.3844 63.2846 65.9686 63.3669 66.0195C63.4069 66.0442 63.4203 66.033 63.3965 65.9945C63.3727 65.9561 63.5323 65.77 63.751 65.5809C63.9698 65.3919 64.3384 65.0213 64.5702 64.7573C64.802 64.4934 65.0243 64.2977 65.0643 64.3223C65.1043 64.347 65.1124 64.3274 65.0824 64.2788C65.0523 64.2302 65.1371 64.0314 65.2708 63.8371C65.5408 63.4446 66.1536 62.1853 66.2346 61.8559C66.2641 61.7364 66.3221 61.666 66.3676 61.6942C66.4121 61.7217 66.4264 61.7084 66.3993 61.6646C66.3723 61.6208 66.4254 61.277 66.5176 60.9005C66.6813 60.2317 66.6857 60.0713 66.7125 53.9195L66.74 47.6231L67.1802 47.5683C67.4223 47.5382 67.6899 47.5126 67.7748 47.5115C67.8596 47.5103 67.8865 47.4929 67.8346 47.4728C67.7649 47.4459 67.775 47.3832 67.8732 47.2333C67.9895 47.0556 68.0041 46.8353 67.9895 45.4719C67.977 44.3039 67.9964 43.9045 68.0669 43.8775C68.1188 43.8576 68.3564 43.6823 68.595 43.4879C68.8336 43.2935 69.056 43.159 69.0892 43.1889C69.1225 43.2188 69.1272 43.204 69.0997 43.156C69.0722 43.1079 69.1148 42.9859 69.1943 42.8849C69.4702 42.534 69.8119 41.8976 69.9424 41.4916C70.0473 41.1648 70.0837 40.6359 70.1242 38.8458C70.1809 36.3468 70.2043 36.2235 70.7491 35.5616C70.9088 35.3677 71.1418 35.0474 71.2671 34.8499C71.3923 34.6525 71.5226 34.5161 71.5566 34.5468C71.5905 34.5775 71.5957 34.563 71.568 34.5147C71.5404 34.4662 71.589 34.2655 71.676 34.0687C72.0582 33.2048 72.1896 31.4044 71.9403 30.4474C71.8762 30.2012 71.8467 29.9625 71.8749 29.917C71.9052 29.8679 71.8897 29.8567 71.837 29.8893C71.7837 29.9222 71.7479 29.8942 71.7479 29.8195C71.7479 29.7448 71.7837 29.7167 71.837 29.7497C71.8939 29.7848 71.9051 29.7707 71.8678 29.7105C71.8358 29.6587 71.7918 29.6342 71.77 29.6559C71.7483 29.6777 71.6478 29.5324 71.5466 29.3331C71.3348 28.9158 71.3318 28.9044 71.4513 28.9782C71.5081 29.0134 71.5193 28.9992 71.482 28.9391C71.45 28.8872 71.4054 28.8634 71.3828 28.886C71.3602 28.9085 71.2768 28.8446 71.1976 28.7439C71.0348 28.537 71.0099 28.4333 71.1427 28.5153C71.1983 28.5497 71.2107 28.5364 71.1758 28.48C71.1451 28.4303 71.0928 28.4066 71.0594 28.4272C71.0261 28.4478 70.9157 28.375 70.814 28.2656C70.5215 27.9504 69.7992 27.4151 69.4142 27.2281C69.1646 27.1067 69.0731 27.0209 69.1006 26.9337C69.1276 26.8482 69.1188 26.8392 69.0715 26.9042C68.9976 27.006 68.6387 26.9492 68.7027 26.8458C68.7241 26.8111 68.701 26.7577 68.6513 26.727C68.591 26.6897 68.5818 26.7048 68.6235 26.7723C68.6713 26.8496 68.6422 26.8611 68.5004 26.8209C68.3983 26.7921 68.2193 26.7475 68.1026 26.722C67.9859 26.6965 67.8905 26.654 67.8904 26.6275C67.8903 26.5647 66.9669 26.5039 66.0389 26.5056C65.1661 26.507 64.1871 26.5656 64.2346 26.6133C64.2532 26.6322 63.9985 26.7393 63.6686 26.8516C62.9408 27.0991 62.6957 27.2231 62.2267 27.5811C62.028 27.7328 61.8271 27.833 61.7802 27.804C61.7332 27.775 61.7161 27.7856 61.7421 27.8277C61.804 27.928 61.2272 28.4905 61.1421 28.4131C61.1061 28.3804 61.0969 28.3893 61.1216 28.4329C61.1462 28.4765 61.0473 28.7011 60.9017 28.9321C60.2566 29.9551 59.9989 31.2757 60.1769 32.6457C60.2275 33.0342 60.3327 33.538 60.4109 33.7652C60.4891 33.9924 60.5289 34.1789 60.4993 34.1795C60.4698 34.1802 60.4842 34.2062 60.5313 34.2374C60.5784 34.2686 60.6784 34.4156 60.7535 34.5641C60.9048 34.8637 61.3448 35.5008 61.6057 35.7985C61.9416 36.1817 61.9781 36.4306 62.0291 38.6915C62.056 39.8796 62.1006 40.9399 62.1283 41.0476C62.1791 41.2455 62.4239 41.9614 62.5338 42.2337C62.5789 42.3454 62.5686 42.366 62.4912 42.3183C62.4228 42.2759 62.4075 42.2849 62.445 42.3455C62.4757 42.3951 62.5331 42.4158 62.5726 42.3914C62.6121 42.367 62.6444 42.3769 62.6444 42.4133C62.6444 42.4498 62.8203 42.677 63.0354 42.9182C63.2504 43.1595 63.4048 43.3917 63.3785 43.4342C63.3504 43.4798 63.3818 43.492 63.4548 43.4639C63.5294 43.4353 63.6398 43.4818 63.7318 43.5806C63.816 43.6709 63.9202 43.7448 63.9635 43.7448C64.0068 43.7448 64.0207 43.7795 63.9945 43.8219C63.9683 43.8643 63.9836 43.8991 64.0285 43.8991C64.1346 43.8991 64.1389 45.2609 64.0331 45.3263C63.9906 45.3525 63.9565 45.4153 63.9571 45.4659C63.9578 45.5211 63.9882 45.5115 64.0331 45.442C64.0742 45.3784 64.1084 45.3627 64.109 45.4073C64.1097 45.4518 64.0685 45.53 64.0176 45.5809C63.9472 45.6513 63.9469 45.6735 64.0162 45.6735C64.0797 45.6735 64.106 45.8744 64.1026 46.3333C64.0989 46.8242 64.1305 47.043 64.2257 47.1884C64.3799 47.4237 64.7778 47.6022 65.1483 47.6022H65.42L65.4402 50.6303C65.4512 52.2957 65.4399 55.0644 65.4149 56.7829C65.37 59.874 65.3673 59.916 65.1572 60.7174C64.9221 61.614 64.5897 62.4341 64.487 62.3706C64.4504 62.348 64.4391 62.3778 64.4618 62.4368C64.4844 62.4959 64.3221 62.8118 64.1012 63.1388C63.8067 63.5748 63.6803 63.7068 63.6276 63.6334C63.5743 63.5593 63.5662 63.5664 63.5962 63.6611C63.6415 63.8031 63.3982 64.0686 63.3068 63.9771C63.2748 63.9452 63.2557 63.9538 63.2643 63.9962C63.3015 64.1805 63.2522 64.2714 63.1266 64.2504C63.0523 64.2379 62.9993 64.2683 63.0088 64.3179C63.0332 64.446 62.4981 64.8976 62.3964 64.8347C62.3479 64.8047 62.3338 64.8178 62.3633 64.8655C62.4296 64.9729 61.5193 65.5296 61.3989 65.4552C61.3471 65.4232 61.3296 65.433 61.3577 65.4784C61.44 65.6116 60.0397 66.1042 59.0956 66.2741C58.6076 66.362 57.7215 66.4543 57.1267 66.4793L56.0449 66.5247L56.0315 65.3405C56.0176 64.1202 56.0524 63.9577 56.3273 63.9577C56.5236 63.9577 57.355 63.6687 57.8008 63.4455C58.2102 63.2405 58.2802 63.2242 58.201 63.3524C58.1658 63.4093 58.18 63.4205 58.2401 63.3832C58.292 63.3512 58.3151 63.3058 58.2917 63.2824C58.2216 63.2123 58.7356 62.8709 58.8468 62.9136C58.9032 62.9353 58.9305 62.9226 58.9075 62.8855C58.846 62.7859 59.0735 62.6234 59.1813 62.69C59.2332 62.722 59.2536 62.7146 59.2278 62.6728C59.2026 62.632 59.391 62.3774 59.6467 62.107C60.4488 61.2589 61.1028 60.136 61.4538 59.0043C61.5289 58.7623 61.6105 58.5767 61.6351 58.592C61.6598 58.6072 61.683 58.5275 61.6866 58.4149C61.6902 58.3023 61.7342 57.8977 61.7844 57.5158C62.0446 55.5363 61.8626 54.1263 61.1465 52.5766C60.6363 51.4721 59.6949 50.3413 58.8087 49.7684C58.5873 49.6253 58.4278 49.4732 58.4542 49.4305C58.4821 49.3854 58.4634 49.3768 58.4098 49.4099C58.3589 49.4413 58.2373 49.4146 58.1396 49.3506C58.0419 49.2866 57.7396 49.1411 57.468 49.0273C57.1962 48.9135 56.9625 48.8096 56.9484 48.7964C56.9342 48.7833 57.1301 48.5179 57.3836 48.2066C57.9294 47.5365 58.1894 47.0421 58.3994 46.2759C58.5516 45.7206 58.5541 45.4553 58.5696 28.8165L58.5854 11.921L58.4152 11.3186C58.1034 10.2154 57.583 9.41873 56.7217 8.72625C56.4361 8.49657 56.2121 8.27709 56.2237 8.23828C56.2354 8.19955 56.2093 8.18983 56.1658 8.21676C56.0359 8.29707 55.8984 8.17263 56.0207 8.0853C56.1002 8.02844 56.0927 8.02103 55.9894 8.05428C55.8171 8.10975 55.4585 7.95106 55.5225 7.84752C55.549 7.80478 55.5345 7.79206 55.4903 7.81937C55.3961 7.87754 54.9154 7.72494 54.9602 7.6511C54.9771 7.62341 54.8508 7.59525 54.6798 7.58854C54.5088 7.58183 54.3474 7.54202 54.3213 7.50013C54.2952 7.45823 54.1696 7.42151 54.0423 7.4185C53.551 7.40701 18.3476 7.3699 18.3355 7.38093ZM54.6981 7.485C54.6981 7.52744 54.7349 7.56215 54.7798 7.56215C54.8247 7.56215 54.84 7.52744 54.8138 7.485C54.7876 7.44257 54.7509 7.40786 54.7321 7.40786C54.7134 7.40786 54.6981 7.44257 54.6981 7.485ZM54.1531 8.76675C54.8341 8.93416 55.4872 9.28981 56.0213 9.78426C56.5928 10.3132 56.9011 10.7859 57.1123 11.4571L57.2826 11.9982V28.778C57.2826 42.4332 57.2637 45.6152 57.1811 45.8664C56.979 46.4815 56.8232 46.8009 56.4983 47.2665C55.9894 47.9957 55.27 48.4675 54.2253 48.757C53.6642 48.9125 53.517 48.9137 35.6023 48.9137C19.601 48.9137 17.4926 48.9002 17.0851 48.795C15.8399 48.4736 14.9271 47.7616 14.4286 46.7229C14.2636 46.3791 14.0916 45.8918 14.0462 45.64C13.9893 45.3245 13.9637 40.0527 13.9637 28.6785C13.9637 13.8696 13.9763 12.1261 14.0859 11.7007C14.4467 10.3015 15.5841 9.18266 17.0476 8.7875C17.5215 8.65951 18.6125 8.65126 35.5989 8.64686C51.9562 8.64269 53.6942 8.65388 54.1531 8.76675ZM18.6381 12.0732C18.0826 12.302 17.6523 12.7067 17.4401 13.2001C17.2817 13.5683 17.281 13.6218 17.2796 25.5704C17.2781 38.7472 17.2431 37.7868 17.7467 38.4134C17.8988 38.6026 18.1667 38.7972 18.4646 38.9349L18.9398 39.1544H35.7196H52.4994L52.8252 38.9803C53.2675 38.744 53.6812 38.3151 53.8785 37.8884L54.0423 37.5343L54.0626 25.6958C54.0802 15.3839 54.068 13.8062 53.9677 13.4611C53.8157 12.9382 53.3466 12.4129 52.7859 12.1375L52.3451 11.921L35.7196 11.9032L19.0941 11.8854L18.6381 12.0732ZM52.4502 13.4539C52.5964 13.594 52.71 13.8064 52.7596 14.0325C52.8106 14.2654 52.8371 18.3235 52.8357 25.692C52.8337 36.4569 52.8269 37.0096 52.693 37.3157C52.6156 37.4924 52.4552 37.7007 52.3364 37.7786C52.1286 37.9147 51.4945 37.9201 35.6458 37.9201H19.1712L18.9307 37.7485C18.4546 37.4089 18.4813 38.1315 18.479 25.5382C18.4771 14.7471 18.4855 13.9883 18.6104 13.7601C18.6838 13.6259 18.8363 13.4435 18.9494 13.3545L19.1548 13.1929L35.687 13.2127L52.2192 13.2326L52.4502 13.4539ZM29.874 16.2225C29.7841 16.3182 29.5784 16.5952 29.4169 16.8379C27.0476 20.4006 22.7904 26.7409 22.1605 27.6451C21.7116 28.2894 21.2633 28.9342 21.1643 29.0781C21.0502 29.2437 20.9842 29.4512 20.9842 29.644C20.9842 29.9124 21.0415 30.0085 21.4664 30.4529C24.0565 33.162 29.2573 35.1933 34.5238 35.5527C39.7613 35.9101 45.4417 34.0918 49.4441 30.7767C50.0467 30.2776 50.2466 30.0637 50.3116 29.849C50.414 29.5106 50.3977 29.4762 49.6063 28.3637C48.9579 27.4521 47.8034 25.7364 44.72 21.1017C41.1987 15.809 41.3767 16.0485 40.9641 16.0485C40.8407 16.0485 40.4 16.2191 39.9848 16.4275C39.2314 16.8057 38.4082 17.0962 37.5326 17.2927C36.7906 17.4593 34.5451 17.4183 33.6366 17.2214C32.7616 17.032 31.7091 16.6684 30.9962 16.3096C30.3866 16.0028 30.1012 15.9807 29.874 16.2225ZM32.5951 18.2334C35.214 18.9136 37.6353 18.765 39.9591 17.7815C40.4026 17.5937 40.7845 17.467 40.8078 17.4998C40.831 17.5327 42.4454 19.9535 44.3953 22.8794C46.3452 25.8054 48.1419 28.4871 48.3877 28.8388C48.6336 29.1904 48.8348 29.5272 48.8348 29.5873C48.8348 29.6473 48.469 29.9844 48.0217 30.3365C46.0301 31.9046 43.7733 33.0096 41.2743 33.6401C37.6106 34.5645 33.933 34.5626 30.2322 33.6344C27.3071 32.9007 25.0135 31.827 23.0672 30.2805C22.7914 30.0614 22.5217 29.829 22.4679 29.7641C22.3852 29.6641 22.9933 28.7125 26.4353 23.5561L30.5004 17.4662L31.162 17.7496C31.5259 17.9055 32.1708 18.1232 32.5951 18.2334ZM12.504 17.7136C12.5077 17.8035 12.526 17.8217 12.5506 17.7603C12.5729 17.7045 12.5701 17.638 12.5445 17.6124C12.5189 17.5867 12.5007 17.6323 12.504 17.7136ZM68.0303 26.5934C68.086 26.6157 68.1526 26.6129 68.1782 26.5873C68.2038 26.5617 68.1583 26.5434 68.0769 26.5468C67.9871 26.5505 67.9688 26.5688 68.0303 26.5934ZM62.3358 27.235C62.3358 27.2774 62.3726 27.3122 62.4175 27.3122C62.4624 27.3122 62.4777 27.2774 62.4515 27.235C62.4253 27.1926 62.3886 27.1579 62.3698 27.1579C62.3511 27.1579 62.3358 27.1926 62.3358 27.235ZM67.7007 27.9704C67.9536 28.0353 68.4035 28.1829 68.7005 28.2983C69.6336 28.6606 70.5332 29.7176 70.7099 30.6594L70.7622 30.9381H66.1161H61.47L61.5224 30.6488C61.6226 30.0961 61.9281 29.5686 62.4501 29.0465C63.0127 28.4839 63.4487 28.246 64.3503 28.01C65.0949 27.815 67.0081 27.7924 67.7007 27.9704ZM34.6974 30.0634C34.7504 30.0849 34.8372 30.0849 34.8902 30.0634C34.9433 30.042 34.8999 30.0245 34.7938 30.0245C34.6877 30.0245 34.6444 30.042 34.6974 30.0634ZM69.6714 32.2453L70.7966 32.2497L70.7342 32.7058C70.6487 33.3312 70.3914 33.8763 69.8187 34.6453C68.9246 35.846 68.9403 35.7816 68.8874 38.4601C68.84 40.8583 68.825 40.9735 68.4691 41.6618C68.24 42.1049 67.7137 42.6031 67.2347 42.8306C66.3169 43.2663 65.1244 43.0838 64.352 42.3894C63.47 41.5964 63.342 41.1112 63.3046 38.4215C63.289 37.2971 63.2506 36.2729 63.2193 36.1456C63.1229 35.7537 62.8332 35.2426 62.4103 34.7184C61.8918 34.0757 61.5898 33.4265 61.5043 32.7701C61.4669 32.4836 61.4449 32.2405 61.4554 32.2301C61.4659 32.2196 63.0655 32.2178 65.0103 32.226C66.9551 32.2343 69.0526 32.2429 69.6714 32.2453ZM60.4842 34.4484C60.4842 34.512 60.5179 34.5641 60.559 34.5641C60.6 34.5641 60.6137 34.512 60.5893 34.4484C60.5648 34.3847 60.5312 34.3327 60.5145 34.3327C60.4979 34.3327 60.4842 34.3847 60.4842 34.4484ZM12.5101 38.1129C12.5101 38.219 12.5276 38.2624 12.549 38.2094C12.5704 38.1564 12.5704 38.0696 12.549 38.0165C12.5276 37.9635 12.5101 38.0069 12.5101 38.1129ZM23.9301 41.3147C22.1742 41.8075 21.322 43.6513 22.0665 45.3468C22.2638 45.7961 22.977 46.4899 23.4709 46.7128C24.2346 47.0576 25.2117 47.0364 25.9547 46.659C26.4598 46.4024 27.0378 45.7946 27.2791 45.2663C27.4672 44.8545 27.4986 44.6876 27.5008 44.0919C27.503 43.4899 27.4743 43.335 27.2856 42.9266C27.0145 42.34 26.413 41.7349 25.8423 41.4748C25.291 41.2234 24.4931 41.1566 23.9301 41.3147ZM35.0518 41.2749C33.3375 41.6372 32.3237 43.6669 33.0569 45.2685C33.7744 46.8356 35.4374 47.4045 36.9811 46.6107C38.2615 45.9524 38.8557 44.377 38.3386 43.0119C38.0996 42.3809 37.3995 41.6753 36.7843 41.4454C36.2711 41.2536 35.5077 41.1785 35.0518 41.2749ZM45.9417 41.2709C45.1509 41.4633 44.4505 42.0406 44.0284 42.8483C43.8011 43.2831 43.7816 43.3785 43.7816 44.0551C43.7816 44.729 43.8024 44.8319 44.0342 45.3026C44.5487 46.3475 45.4742 46.9271 46.6361 46.9321C47.4122 46.9353 47.9804 46.7282 48.5159 46.2468C49.9816 44.929 49.7963 42.691 48.133 41.6217C47.5704 41.26 46.6154 41.1071 45.9417 41.2709ZM25.3277 42.5576C26.2317 43.0129 26.5422 44.0279 26.0625 44.9599C25.7134 45.6383 24.7636 45.9406 24.0316 45.6063C23.3609 45.3 22.9059 44.4975 23.027 43.8347C23.1361 43.2382 23.6131 42.6657 24.1312 42.5095C24.4838 42.4032 25.0678 42.4267 25.3277 42.5576ZM36.549 42.6979C36.9906 42.9926 37.1914 43.3409 37.2421 43.9005C37.3731 45.3446 35.9236 46.2458 34.7588 45.4445C34.0756 44.9744 33.8652 43.9345 34.308 43.2162C34.7855 42.4417 35.8098 42.2047 36.549 42.6979ZM47.3528 42.5801C48.3701 43.1017 48.5916 44.455 47.7905 45.256C47.4042 45.6424 47.0161 45.7851 46.5139 45.7256C45.115 45.56 44.4968 43.9858 45.4262 42.9562C45.5824 42.783 45.8145 42.5959 45.9417 42.5403C46.293 42.387 47.016 42.4073 47.3528 42.5801ZM63.9207 44.2795C63.8962 44.319 63.9115 44.3731 63.9547 44.3998C63.9978 44.4264 64.0331 44.3941 64.0331 44.3279C64.0331 44.1924 63.9868 44.1725 63.9207 44.2795ZM66.7333 45.2877V46.2907H66.0389H65.3446V45.2877V44.2848H66.0389H66.7333V45.2877ZM12.5471 45.5578C12.5716 45.6214 12.6052 45.6735 12.6219 45.6735C12.6385 45.6735 12.6522 45.6214 12.6522 45.5578C12.6522 45.4941 12.6186 45.442 12.5774 45.442C12.5364 45.442 12.5227 45.4941 12.5471 45.5578ZM57.0718 48.7724C57.1167 48.8173 57.1989 48.8387 57.2546 48.8202C57.3124 48.8009 57.2773 48.766 57.173 48.7387C57.0447 48.7051 57.0146 48.7151 57.0718 48.7724ZM15.5067 49.7623C15.5067 49.8048 15.5414 49.8395 15.5838 49.8395C15.6263 49.8395 15.661 49.8048 15.661 49.7623C15.661 49.7199 15.6263 49.6852 15.5838 49.6852C15.5414 49.6852 15.5067 49.7199 15.5067 49.7623ZM56.1639 50.0197C56.7597 50.1769 57.2502 50.3843 57.2036 50.4595C57.182 50.4946 57.205 50.5483 57.2546 50.579C57.311 50.6138 57.3243 50.6014 57.2899 50.5458C57.2597 50.4968 57.256 50.4567 57.2819 50.4567C57.3578 50.4567 57.8043 50.696 58.047 50.8668C58.2546 51.0128 58.2604 51.0295 58.1242 51.0895C57.9992 51.1444 58.0038 51.149 58.1547 51.1202C58.2757 51.0969 58.4181 51.1612 58.6 51.3208C58.8278 51.5209 58.8528 51.5742 58.7693 51.6812C58.6833 51.7914 58.6869 51.7945 58.7991 51.7069C59.0778 51.489 60.0493 53.1073 60.2948 54.1984C60.3616 54.4954 60.447 54.8559 60.4848 54.9995C60.5584 55.2799 60.5323 57.1336 60.4494 57.5158C60.2506 58.4318 60.0611 59.0391 59.8196 59.5347C59.4697 60.2526 58.8905 61.0515 58.7728 60.9787C58.7171 60.9442 58.7076 60.96 58.7463 61.0226C58.8134 61.1312 58.3401 61.585 58.2304 61.5173C58.1949 61.4954 58.1755 61.5091 58.1871 61.5479C58.2415 61.7286 57.0176 62.4746 56.8434 62.3669C56.7911 62.3346 56.7789 62.3487 56.8124 62.4027C56.8426 62.4517 56.8393 62.4922 56.8049 62.4927C56.7706 62.4931 56.5824 62.5421 56.3867 62.6015L56.0308 62.7095L56.0237 60.8625C56.0183 59.4429 56.0382 59.0275 56.1096 59.0677C56.1793 59.1069 56.1788 59.0945 56.1079 59.0178C56.0332 58.9373 56.0332 58.8912 56.1079 58.7989C56.183 58.7061 56.1826 58.6939 56.1061 58.7399C56.0365 58.7816 56.0096 58.7255 56.0096 58.5387C56.0096 58.3962 56.0531 58.2328 56.1061 58.1756C56.1832 58.0925 56.1832 58.0827 56.1061 58.1262C56.0352 58.1662 56.0096 58.0889 56.0096 57.8339C56.0096 57.323 55.8032 56.4307 55.5839 55.9942C55.4783 55.7839 55.4147 55.5749 55.4427 55.5297C55.4706 55.4844 55.4585 55.469 55.416 55.4953C55.3734 55.5217 55.2919 55.4561 55.2348 55.3494C55.1142 55.1241 53.929 53.9754 53.7437 53.9043C53.6746 53.8778 53.618 53.8182 53.618 53.7719C53.618 53.7257 53.5909 53.7046 53.5576 53.7252C53.5244 53.7457 53.3311 53.6783 53.128 53.5754C52.9251 53.4725 52.7106 53.3883 52.6515 53.3883C52.5923 53.3883 52.468 53.3102 52.3753 53.2147C52.2826 53.1193 52.2312 53.0846 52.2611 53.1376C52.2911 53.1907 52.2788 53.234 52.2339 53.234C52.189 53.234 52.1522 53.208 52.1521 53.1762C52.152 53.0857 51.7955 53.0712 48.2176 53.0159L44.8617 52.964L44.8523 52.4047C44.8472 52.0971 44.8752 51.8454 44.9147 51.8454C44.9542 51.8454 44.963 51.8075 44.9344 51.7611C44.9058 51.7148 44.8698 51.3416 44.8544 50.9318L44.8264 50.1867L49.203 50.1807C53.0634 50.1755 53.6551 50.1588 54.2213 50.0395C54.5744 49.9652 54.9147 49.9241 54.9775 49.9481C55.044 49.9737 55.0714 49.959 55.043 49.913C54.9799 49.8109 55.5936 49.8694 56.1639 50.0197ZM43.5887 51.6499V53.0746L35.6424 53.0755L27.6961 53.0765V51.6509V50.2252H35.6424H43.5887V51.6499ZM60.1549 54.166C60.1822 54.2703 60.2171 54.3053 60.2364 54.2475C60.2549 54.1918 60.2335 54.1097 60.1886 54.0648C60.1314 54.0075 60.1213 54.0377 60.1549 54.166ZM51.9208 54.4168C52.9241 54.7498 53.9976 55.6261 54.3867 56.4297C54.7717 57.2251 54.7734 57.2532 54.7732 62.6461C54.773 65.4254 54.7474 67.7375 54.7162 67.7842C54.6851 67.8309 54.5837 67.909 54.491 67.9578C54.3654 68.0239 49.5504 68.0465 35.5704 68.0465C16.9211 68.0465 16.8174 68.0457 16.6639 67.8922C16.5128 67.7411 16.5096 67.6359 16.5108 62.7426C16.5117 58.6109 16.5316 57.6637 16.6258 57.2643C17.0176 55.6025 18.3478 54.4493 20.0199 54.322C20.3593 54.2961 27.5804 54.2751 36.0667 54.2755C50.7975 54.2759 51.5156 54.2823 51.9208 54.4168ZM15.5502 55.9888C15.5084 56.0987 15.5172 56.1076 15.5934 56.032C15.6462 55.9796 15.6699 55.9173 15.6461 55.8936C15.6223 55.8699 15.5792 55.9127 15.5502 55.9888ZM21.7668 57.7967C21.2649 57.9419 20.9195 58.2431 20.6674 58.7552L20.4283 59.2409L20.4173 61.1171C20.4068 62.8871 20.4156 63.0137 20.5722 63.3531C20.6634 63.5509 20.8689 63.8361 21.0286 63.9867C21.6096 64.5347 20.5182 64.4968 35.749 64.4982L49.4856 64.4993L49.8938 64.2997C50.1183 64.1898 50.3925 63.9813 50.5032 63.8361C50.8796 63.3426 50.911 63.1334 50.9127 61.1032C50.9143 59.3646 50.9019 59.1852 50.7573 58.8659C50.5636 58.4378 50.2803 58.1317 49.8763 57.9137L49.5677 57.7472L35.7967 57.7345C27.075 57.7264 21.9308 57.7491 21.7668 57.7967ZM49.4973 59.1981C49.682 59.4128 49.6834 59.4277 49.6834 61.1316V62.8487L49.4469 63.0753L49.2105 63.3019L35.825 63.3143C28.1181 63.3214 22.3354 63.2973 22.1941 63.2575C21.6967 63.1173 21.6786 63.0446 21.6786 61.189C21.6786 59.7694 21.6975 59.4903 21.8042 59.338C22.0908 58.9287 21.3817 58.9476 35.8613 58.9652L49.3111 58.9816L49.4973 59.1981ZM56.2841 62.4847C56.2603 62.5231 56.3103 62.5364 56.3953 62.5142C56.5754 62.4671 56.5982 62.4147 56.4385 62.4147C56.3773 62.4147 56.3079 62.4462 56.2841 62.4847ZM59.3897 66.0934C59.4453 66.1157 59.5119 66.1129 59.5375 66.0873C59.5632 66.0617 59.5176 66.0434 59.4363 66.0468C59.3464 66.0505 59.3282 66.0687 59.3897 66.0934ZM15.0648 67.0469C15.0585 67.1299 15.0829 67.1979 15.1189 67.1979C15.155 67.1979 15.177 67.1468 15.1678 67.0844C15.1414 66.9046 15.0772 66.8813 15.0648 67.0469ZM15.1404 67.6222C15.1412 67.7919 15.1571 67.8523 15.1755 67.7563C15.1939 67.6603 15.1932 67.5215 15.1739 67.4477C15.1547 67.3739 15.1395 67.4525 15.1404 67.6222Z" fill="#008ABD"/>
</svg>
